<?xml version="1.0" encoding="utf-8"?>
<!-- Generator: Adobe Illustrator 24.3.0, SVG Export Plug-In . SVG Version: 6.00 Build 0)  -->
<svg version="1.1" id="Camada_1" xmlns="http://www.w3.org/2000/svg" xmlns:xlink="http://www.w3.org/1999/xlink" x="0px" y="0px"
	 viewBox="0 0 243.61 107.87" style="enable-background:new 0 0 243.61 107.87;" xml:space="preserve">
<style type="text/css">
	.st0{clip-path:url(#SVGID_2_);fill:#FFD01F;}
	.st1{clip-path:url(#SVGID_2_);fill:#FFB300;}
	.st2{clip-path:url(#SVGID_4_);fill:#FFFFFF;}
</style>
<g>
	<defs>
		<rect id="SVGID_1_" width="243.61" height="107.87"/>
	</defs>
	<clipPath id="SVGID_2_">
		<use xlink:href="#SVGID_1_"  style="overflow:visible;"/>
	</clipPath>
	<path class="st0" d="M179.23,53.94c0,29.78-24.15,53.93-53.93,53.93c-29.79,0-53.93-24.15-53.93-53.93C71.36,24.15,95.51,0,125.3,0
		C155.08,0,179.23,24.15,179.23,53.94"/>
	<path class="st1" d="M160.05,53.94c0,19.2-15.56,34.76-34.76,34.76c-19.2,0-34.76-15.56-34.76-34.76
		c0-19.2,15.56-34.76,34.76-34.76C144.49,19.18,160.05,34.74,160.05,53.94"/>
</g>
<g>
	<defs>
		<rect id="SVGID_3_" width="243.61" height="107.87"/>
	</defs>
	<clipPath id="SVGID_4_">
		<use xlink:href="#SVGID_3_"  style="overflow:visible;"/>
	</clipPath>
	<path class="st2" d="M98.49,105.72c1.14-2.45,1.76-5.13,1.76-7.86c0-4.94-1.99-9.74-5.48-13.23c-1.97-1.97-4.36-3.44-6.96-4.37
		c-0.01-0.06-0.02-0.12-0.03-0.17c-0.91-3.24-2.55-6.06-4.92-8.44c-4.83-4.83-12.04-6.74-18.62-4.92
		c-5.6,1.54-10.24,5.66-12.51,10.94c-3.14-2.1-6.86-3.25-10.68-3.25c-5.06,0-9.97,2.03-13.55,5.61c-2.09,2.1-3.64,4.66-4.58,7.43
		c-0.57-0.24-1.13-0.48-1.7-0.72c-2.98-0.8-5.95-0.8-8.92,0C6.66,88.28,2.13,92.81,0.57,98.45c-0.66,2.4-0.73,4.87-0.32,7.27H98.49z
		"/>
	<path class="st2" d="M240.35,80.87c2.11-4.01,3.26-8.51,3.26-13.11c0-7.45-3-14.65-8.26-19.92c-5.26-5.27-12.49-8.26-19.95-8.26
		c-2.23,0-4.43,0.3-6.58,0.82c-1.2-1.33-2.46-2.6-3.83-3.72c-6.23-5.11-14.07-7.09-21.46-2.77c-5.99,3.51-10.09,11.75-8.69,18.87
		c-0.49-0.05-0.99-0.1-1.49-0.1c-5,0-9.72,2.71-12.24,7.02c-1.28,2.21-1.93,4.6-1.94,7.16c0.01,1.1,0.15,2.16,0.38,3.2
		c-0.23-0.01-0.45-0.27-0.69-0.27c-7.72,0-11.87,5.8-12.5,11.09H240.35z"/>
</g>
</svg>
