<?xml version="1.0" encoding="utf-8"?>
<!-- Generator: Adobe Illustrator 26.2.1, SVG Export Plug-In . SVG Version: 6.00 Build 0)  -->
<svg version="1.1" id="Layer_1" xmlns="http://www.w3.org/2000/svg" xmlns:xlink="http://www.w3.org/1999/xlink" x="0px" y="0px"
	 viewBox="0 0 1280 1024" style="enable-background:new 0 0 1280 1024;" xml:space="preserve">
<style type="text/css">
	.st0{fill:#FFFFFF;}
	.st1{fill:none;stroke:#FFFFFF;stroke-width:4;stroke-miterlimit:10;}
	.st2{font-family:'Montserrat-Black';}
	.st3{font-size:106.4337px;}
</style>
<g>
	<path id="XMLID_150_" class="st0" d="M639,126.32l8.11,16.43l18.13,2.63l-13.12,12.79l3.1,18.06L639,167.7l-16.22,8.52l3.1-18.06
		l-13.12-12.79l18.13-2.63L639,126.32z M709.12,154.16l-11.95,1.74l8.65,8.43l-2.04,11.9l10.69-5.62l10.69,5.62l-2.04-11.9
		l8.65-8.43l-11.95-1.74l-5.35-10.83L709.12,154.16z M558.19,154.16l-11.95,1.74l8.65,8.43l-2.04,11.9l10.69-5.62l10.69,5.62
		l-2.04-11.9l8.65-8.43l-11.95-1.74l-5.35-10.83L558.19,154.16z"/>
	<path id="XMLID_146_" class="st1" d="M1240.56,766.54H37.44c-19.05,0-31.33-11.86-22.56-21.79l50.42-57.1
		c3.8-4.31,3.8-9.43,0-13.74l-50.42-57.1c-8.77-9.93,3.5-21.79,22.56-21.79h1203.11c19.05,0,31.33,11.86,22.56,21.79l-50.42,57.1
		c-3.8,4.31-3.8,9.43,0,13.74l50.42,57.1C1271.88,754.69,1259.61,766.54,1240.56,766.54z"/>
	<g id="XMLID_137_">
		<path id="XMLID_139_" class="st1" d="M927.17,595.03V338.47C927.17,179.32,798.15,50.3,639,50.3h0
			c-159.15,0-288.17,129.02-288.17,288.17v256.56"/>
		<path id="XMLID_138_" class="st1" d="M370.65,766.54C412.64,873.75,516.92,949.7,639,949.7h0c122.08,0,226.36-75.96,268.35-183.16
			"/>
	</g>
	<g id="XMLID_202_">
		<path id="XMLID_179_" class="st0" d="M867.33,400.5c0.56-0.23,1.12-0.48,1.68-0.71c-2.24-0.03-4.44-0.04-6.66-0.05
			c-0.18,0.01-0.37,0.03-0.55,0.05c-2.64,0.9-5.41,1.87-8.3,2.9C858.12,401.89,862.73,401.17,867.33,400.5z"/>
		<path id="XMLID_178_" class="st0" d="M642.84,594.36c5.03,0,10-0.22,14.95-0.53c80.6-101.18,163.79-163.05,211.4-193.59
			c-0.62,0.09-1.24,0.18-1.85,0.27c-104.29,43.28-204.34,123.75-274.19,188.48C609.15,592.49,625.78,594.36,642.84,594.36z"/>
		<path id="XMLID_176_" class="st0" d="M871.64,399.82c-0.6-0.01-1.19,0-1.79-0.01c-0.22,0.14-0.45,0.29-0.67,0.43
			c0.81-0.11,1.63-0.25,2.44-0.36C871.63,399.86,871.64,399.84,871.64,399.82z"/>
		<path id="XMLID_175_" class="st0" d="M694.37,588.59c90.26-20.49,160.45-93.67,176.66-185.49
			C802.92,454.41,742.16,524.31,694.37,588.59z"/>
		<path id="XMLID_171_" class="st0" d="M483.32,530.67C653.06,426.31,807.9,404.38,861.8,399.79c0.05-0.02,0.1-0.03,0.15-0.05
			c-192.02-1.43-322.84,57.78-399.36,108.51C469,516.17,475.93,523.66,483.32,530.67z"/>
		<path id="XMLID_163_" class="st0" d="M561.19,579.53C677.74,475.38,792.52,424.47,853.5,402.7
			c-128.84,22.36-263.37,95.74-346.32,147.78C523.68,562.42,541.82,572.23,561.19,579.53z"/>
	</g>
	<g id="XMLID_195_">
		<path id="XMLID_162_" class="st0" d="M623.71,424.22c-58.97-15.27-127.89-25.07-207.31-24.48c0.05,0.02,0.1,0.03,0.15,0.05
			c30.09,2.56,91.66,10.55,169.7,35.24C598.34,431.2,610.85,427.56,623.71,424.22z"/>
		<path id="XMLID_149_" class="st0" d="M416.54,399.79c-0.18-0.02-0.37-0.03-0.55-0.05c-2.22,0.02-4.43,0.02-6.66,0.05
			c0.56,0.23,1.12,0.47,1.68,0.71c4.6,0.67,9.21,1.39,13.83,2.19C421.95,401.67,419.18,400.7,416.54,399.79z"/>
		<path id="XMLID_148_" class="st0" d="M408.49,399.81c-0.6,0.01-1.18,0-1.79,0.01c0,0.02,0.01,0.04,0.01,0.06
			c0.81,0.11,1.63,0.24,2.44,0.36C408.93,400.09,408.71,399.95,408.49,399.81z"/>
		<path id="XMLID_110_" class="st0" d="M562.56,442.94c-44.89-17.73-91.66-32.26-137.72-40.25c27.69,9.89,66.48,25.81,111.47,49.96
			C544.73,449.37,553.51,446.13,562.56,442.94z"/>
		<path id="XMLID_106_" class="st0" d="M486.77,473.75c-25.01-25.54-51.61-49.66-79.46-70.65c5.91,33.49,19.03,64.48,37.66,91.35
			C455.99,488.59,470.11,481.44,486.77,473.75z"/>
		<path id="XMLID_105_" class="st0" d="M520.43,459.03c-35.13-22.66-72-43-109.43-58.53c-0.62-0.09-1.24-0.18-1.85-0.27
			c23.16,14.85,54.74,37.15,90.34,67.74C506.15,465.03,513.15,462.04,520.43,459.03z"/>
	</g>
	<g id="XMLID_182_">
		<g id="XMLID_190_">
			<path id="XMLID_103_" class="st0" d="M601.17,321.39c-7.25,7.28-11.73,17.31-11.73,28.4c0,11.08,4.48,21.12,11.73,28.4
				c7.25-7.28,11.73-17.31,11.73-28.4C612.9,338.71,608.42,328.67,601.17,321.39z"/>
			<path id="XMLID_102_" class="st0" d="M629.42,293.15c-7.25,7.28-11.73,17.31-11.73,28.4c0,11.08,4.48,21.12,11.73,28.4
				c7.25-7.28,11.73-17.31,11.73-28.4C641.14,310.47,636.66,300.43,629.42,293.15z"/>
			<path id="XMLID_100_" class="st0" d="M659.9,262.67c-7.25,7.28-11.73,17.31-11.73,28.4c0,11.08,4.48,21.12,11.73,28.4
				c7.25-7.28,11.73-17.31,11.73-28.4C671.63,279.98,667.15,269.95,659.9,262.67z"/>
			<path id="XMLID_97_" class="st0" d="M689.49,233.08c-7.25,7.28-11.73,17.31-11.73,28.4c0,11.08,4.48,21.12,11.73,28.4
				c7.25-7.28,11.73-17.31,11.73-28.4C701.21,250.4,696.73,240.36,689.49,233.08z"/>
		</g>
		<g id="XMLID_185_">
			<path id="XMLID_89_" class="st0" d="M649.74,393.27c-7.28,7.25-17.31,11.73-28.4,11.73s-21.12-4.48-28.4-11.73
				c7.28-7.25,17.31-11.73,28.4-11.73S642.46,386.03,649.74,393.27z"/>
			<path id="XMLID_72_" class="st0" d="M677.99,365.03c-7.28,7.25-17.31,11.73-28.4,11.73s-21.12-4.48-28.4-11.73
				c7.28-7.25,17.31-11.73,28.4-11.73S670.71,357.79,677.99,365.03z"/>
			<path id="XMLID_23_" class="st0" d="M708.47,334.55c-7.28,7.25-17.31,11.73-28.4,11.73s-21.12-4.48-28.4-11.73
				c7.28-7.25,17.31-11.73,28.4-11.73S701.19,327.3,708.47,334.55z"/>
			<path id="XMLID_22_" class="st0" d="M738.05,304.96c-7.28,7.25-17.31,11.73-28.4,11.73s-21.12-4.48-28.4-11.73
				c7.28-7.25,17.31-11.73,28.4-11.73S730.78,297.72,738.05,304.96z"/>
		</g>
	</g>
	<g id="XMLID_147_">
		<text transform="matrix(1 0 0 1 247.7939 714.9629)" class="st0 st2 st3">AGRICULTURA</text>
	</g>
</g>
</svg>
