<?xml version="1.0" encoding="utf-8"?>
<!-- Generator: Adobe Illustrator 24.3.0, SVG Export Plug-In . SVG Version: 6.00 Build 0)  -->
<svg version="1.1" id="Layer_1" xmlns="http://www.w3.org/2000/svg" xmlns:xlink="http://www.w3.org/1999/xlink" x="0px" y="0px"
	 viewBox="0 0 1133.9 813.5" style="enable-background:new 0 0 1133.9 813.5;" xml:space="preserve">
<style type="text/css">
	.st0{fill:#FFFFFF;}
	.st1{fill:none;stroke:#FFFFFF;stroke-width:4;stroke-miterlimit:10;}
	.st2{enable-background:new    ;}
</style>
<g>
	<path id="XMLID_150_" class="st0" d="M566.9,68.8l7.3,14.9l16.4,2.4l-11.9,11.6l2.8,16.3l-14.7-7.7l-14.7,7.7l2.8-16.3L543.2,86
		l16.4-2.4L566.9,68.8z M630.3,93.9l-10.8,1.6l7.8,7.6l-1.8,10.8l9.7-5.1l9.7,5.1l-1.8-10.8l7.8-7.6L640,93.9l-4.8-9.8L630.3,93.9z
		 M493.9,93.9l-10.8,1.6l7.8,7.6l-1.8,10.8l9.7-5.1l9.7,5.1l-1.8-10.8l7.8-7.6l-10.8-1.6l-4.8-9.8L493.9,93.9z"/>
	<path id="XMLID_146_" class="st1" d="M1110.9,647.9H23c-17.2,0-28.3-10.7-20.4-19.7l45.6-51.6c3.4-3.9,3.4-8.5,0-12.4L2.6,512.4
		c-7.9-9,3.2-19.7,20.4-19.7h1087.8c17.2,0,28.3,10.7,20.4,19.7l-45.6,51.6c-3.4,3.9-3.4,8.5,0,12.4l45.6,51.6
		C1139.2,637.1,1128.1,647.9,1110.9,647.9z"/>
	<g id="XMLID_137_">
		<path id="XMLID_139_" class="st1" d="M827.5,492.7V260.7C827.5,116.7,710.8,0,566.9,0l0,0C423,0,306.4,116.7,306.4,260.7v232.1"/>
		<path id="XMLID_138_" class="st1" d="M324.3,647.9c38,97,132.3,165.7,242.6,165.7l0,0c110.4,0,204.7-68.7,242.6-165.7"/>
	</g>
	<g id="XMLID_202_">
		<path id="XMLID_179_" class="st0" d="M773.4,316.8c0.5-0.2,1-0.4,1.5-0.6c-2,0-4,0-6,0c-0.2,0-0.3,0-0.5,0
			c-2.4,0.8-4.9,1.7-7.5,2.6C765.1,318,769.2,317.4,773.4,316.8z"/>
		<path id="XMLID_178_" class="st0" d="M570.4,492.1c4.5,0,9-0.2,13.5-0.5c72.9-91.5,148.1-147.5,191.1-175.1
			c-0.6,0.1-1.1,0.2-1.7,0.2c-94.3,39.1-184.8,111.9-247.9,170.5C539.9,490.4,555,492.1,570.4,492.1z"/>
		<path id="XMLID_176_" class="st0" d="M777.3,316.2c-0.5,0-1.1,0-1.6,0c-0.2,0.1-0.4,0.3-0.6,0.4
			C775.8,316.4,776.5,316.3,777.3,316.2C777.3,316.2,777.3,316.2,777.3,316.2z"/>
		<path id="XMLID_175_" class="st0" d="M617,486.9c81.6-18.5,145.1-84.7,159.7-167.8C715.1,365.5,660.2,428.8,617,486.9z"/>
		<path id="XMLID_171_" class="st0" d="M426.2,434.5c153.5-94.4,293.5-114.2,342.2-118.4c0,0,0.1,0,0.1,0
			c-173.6-1.3-291.9,52.3-361.1,98.2C413.2,421.4,419.5,428.2,426.2,434.5z"/>
		<path id="XMLID_163_" class="st0" d="M496.6,478.7C602,384.5,705.7,338.5,760.9,318.8C644.4,339,522.7,405.4,447.7,452.4
			C462.7,463.2,479.1,472.1,496.6,478.7z"/>
	</g>
	<g id="XMLID_195_">
		<path id="XMLID_162_" class="st0" d="M553.1,338.2c-53.3-13.8-115.6-22.7-187.4-22.1c0,0,0.1,0,0.1,0
			c27.2,2.3,82.9,9.5,153.4,31.9C530.2,344.5,541.5,341.2,553.1,338.2z"/>
		<path id="XMLID_149_" class="st0" d="M365.8,316.1c-0.2,0-0.3,0-0.5,0c-2,0-4,0-6,0c0.5,0.2,1,0.4,1.5,0.6c4.2,0.6,8.3,1.3,12.5,2
			C370.7,317.8,368.2,317,365.8,316.1z"/>
		<path id="XMLID_148_" class="st0" d="M358.5,316.1c-0.5,0-1.1,0-1.6,0c0,0,0,0,0,0.1c0.7,0.1,1.5,0.2,2.2,0.3
			C358.9,316.4,358.7,316.3,358.5,316.1z"/>
		<path id="XMLID_110_" class="st0" d="M497.8,355.2c-40.6-16-82.9-29.2-124.5-36.4c25,8.9,60.1,23.3,100.8,45.2
			C481.7,361,489.6,358,497.8,355.2z"/>
		<path id="XMLID_106_" class="st0" d="M429.3,383c-22.6-23.1-46.7-44.9-71.8-63.9c5.3,30.3,17.2,58.3,34.1,82.6
			C401.5,396.5,414.2,390,429.3,383z"/>
		<path id="XMLID_105_" class="st0" d="M459.7,369.7c-31.8-20.5-65.1-38.9-98.9-52.9c-0.6-0.1-1.1-0.2-1.7-0.2
			c20.9,13.4,49.5,33.6,81.7,61.3C446.8,375.1,453.1,372.4,459.7,369.7z"/>
	</g>
	<g id="XMLID_182_">
		<g id="XMLID_190_">
			<path id="XMLID_103_" class="st0" d="M532.7,245.2c-6.6,6.6-10.6,15.7-10.6,25.7c0,10,4.1,19.1,10.6,25.7
				c6.6-6.6,10.6-15.7,10.6-25.7C543.3,260.9,539.3,251.8,532.7,245.2z"/>
			<path id="XMLID_102_" class="st0" d="M558.3,219.7c-6.6,6.6-10.6,15.7-10.6,25.7c0,10,4.1,19.1,10.6,25.7
				c6.6-6.6,10.6-15.7,10.6-25.7C568.9,235.3,564.8,226.3,558.3,219.7z"/>
			<path id="XMLID_100_" class="st0" d="M585.8,192.1c-6.6,6.6-10.6,15.7-10.6,25.7c0,10,4.1,19.1,10.6,25.7
				c6.6-6.6,10.6-15.7,10.6-25.7C596.4,207.8,592.4,198.7,585.8,192.1z"/>
			<path id="XMLID_97_" class="st0" d="M612.6,165.3C606,171.9,602,181,602,191c0,10,4.1,19.1,10.6,25.7
				c6.6-6.6,10.6-15.7,10.6-25.7C623.2,181,619.1,171.9,612.6,165.3z"/>
		</g>
		<g id="XMLID_185_">
			<path id="XMLID_89_" class="st0" d="M576.6,310.2c-6.6,6.6-15.7,10.6-25.7,10.6c-10,0-19.1-4.1-25.7-10.6
				c6.6-6.6,15.7-10.6,25.7-10.6C561,299.6,570.1,303.7,576.6,310.2z"/>
			<path id="XMLID_72_" class="st0" d="M602.2,284.7c-6.6,6.6-15.7,10.6-25.7,10.6c-10,0-19.1-4.1-25.7-10.6
				c6.6-6.6,15.7-10.6,25.7-10.6C586.5,274.1,595.6,278.1,602.2,284.7z"/>
			<path id="XMLID_23_" class="st0" d="M629.7,257.1c-6.6,6.6-15.7,10.6-25.7,10.6c-10,0-19.1-4.1-25.7-10.6
				c6.6-6.6,15.7-10.6,25.7-10.6C614.1,246.5,623.2,250.6,629.7,257.1z"/>
			<path id="XMLID_22_" class="st0" d="M656.5,230.4c-6.6,6.6-15.7,10.6-25.7,10.6c-10,0-19.1-4.1-25.7-10.6
				c6.6-6.6,15.7-10.6,25.7-10.6C640.8,219.7,649.9,223.8,656.5,230.4z"/>
		</g>
	</g>
	<g class="st2">
		<path class="st0" d="M266.4,583.2h-37.5l-8.1,18h-7.4l30.8-67.4h7l30.8,67.4h-7.5L266.4,583.2z M263.8,577.4l-16.2-36.2
			l-16.2,36.2H263.8z"/>
		<path class="st0" d="M339.7,567.5h6.8v25.7c-6.4,5.7-15.4,8.6-24.7,8.6c-20.5,0-35.5-14.5-35.5-34.3c0-19.7,15-34.3,35.6-34.3
			c10.2,0,19.1,3.3,25,9.7l-4.4,4.5c-5.7-5.6-12.4-7.9-20.3-7.9c-16.6,0-28.9,11.8-28.9,27.9c0,16,12.2,27.9,28.8,27.9
			c6.4,0,12.4-1.4,17.6-5.2V567.5z"/>
		<path class="st0" d="M412.6,601.2l-15.4-21.7c-1.7,0.2-3.5,0.3-5.4,0.3h-18.1v21.4h-7.1v-67.4h25.2c17.1,0,27.5,8.7,27.5,23.1
			c0,10.6-5.6,18-15.4,21.2l16.5,23.1H412.6z M412.2,556.9c0-10.8-7.1-16.9-20.6-16.9h-17.9v33.8h17.9
			C405.1,573.8,412.2,567.5,412.2,556.9z"/>
		<path class="st0" d="M436.2,533.8h7.1v67.4h-7.1V533.8z"/>
		<path class="st0" d="M459.3,567.5c0-19.7,15-34.3,35.3-34.3c9.8,0,18.7,3.3,24.6,9.8l-4.5,4.5c-5.5-5.6-12.2-8-19.9-8
			c-16.3,0-28.5,11.9-28.5,27.9c0,16,12.2,27.9,28.5,27.9c7.7,0,14.4-2.4,19.9-8.1l4.5,4.5c-6,6.5-14.8,9.9-24.7,9.9
			C474.3,601.8,459.3,587.3,459.3,567.5z"/>
		<path class="st0" d="M533.7,572.4v-38.6h7.1v38.3c0,16,7.5,23.3,20.6,23.3c13.2,0,20.7-7.3,20.7-23.3v-38.3h6.9v38.6
			c0,19.4-10.4,29.4-27.6,29.4C544.2,601.8,533.7,591.8,533.7,572.4z"/>
		<path class="st0" d="M610.5,533.8h7.1v61.2h37.7v6.2h-44.8V533.8z"/>
		<path class="st0" d="M674,540h-23.7v-6.2h54.5v6.2h-23.7v61.2H674V540z"/>
		<path class="st0" d="M714.2,572.4v-38.6h7.1v38.3c0,16,7.5,23.3,20.6,23.3c13.2,0,20.7-7.3,20.7-23.3v-38.3h6.9v38.6
			c0,19.4-10.4,29.4-27.6,29.4C724.7,601.8,714.2,591.8,714.2,572.4z"/>
		<path class="st0" d="M837,601.2l-15.4-21.7c-1.7,0.2-3.5,0.3-5.4,0.3h-18.1v21.4H791v-67.4h25.2c17.1,0,27.5,8.7,27.5,23.1
			c0,10.6-5.6,18-15.4,21.2l16.5,23.1H837z M836.6,556.9c0-10.8-7.1-16.9-20.6-16.9h-17.9v33.8H816
			C829.5,573.8,836.6,567.5,836.6,556.9z"/>
		<path class="st0" d="M902.8,583.2h-37.5l-8.1,18h-7.4l30.8-67.4h7l30.8,67.4h-7.5L902.8,583.2z M900.2,577.4l-16.2-36.2
			l-16.2,36.2H900.2z"/>
	</g>
</g>
</svg>
