<svg id="Layer_1" data-name="Layer 1" xmlns="http://www.w3.org/2000/svg" viewBox="0 0 830.74 597.11"><defs><style>.cls-1,.cls-2{fill:none;stroke:#fff;stroke-miterlimit:10;}.cls-2{stroke-width:2px;}.cls-3{font-size:37.11px;font-family:Montserrat-Black, Montserrat;font-weight:800;}.cls-3,.cls-9{fill:#fff;}.cls-4{letter-spacing:-0.02em;}.cls-5{letter-spacing:-0.01em;}.cls-6{letter-spacing:-0.02em;}.cls-7{letter-spacing:-0.06em;}.cls-8{letter-spacing:-0.01em;}</style></defs><path class="cls-1" d="M1065.17,695.5H269.1c-12.61,0-20.73-7.85-14.93-14.42l33.37-37.78a6.43,6.43,0,0,0,0-9.09l-33.37-37.78c-5.8-6.58,2.32-14.42,14.93-14.42h796.07c12.6,0,20.72,7.84,14.92,14.42l-33.36,37.78a6.41,6.41,0,0,0,0,9.09l33.36,37.78C1085.89,687.65,1077.77,695.5,1065.17,695.5Z" transform="translate(-251.76 -220.57)"/><path class="cls-2" d="M857.81,582V412.25c0-105.31-85.37-190.68-190.68-190.68h0c-105.31,0-190.68,85.37-190.68,190.68V582" transform="translate(-251.76 -220.57)"/><path class="cls-2" d="M489.57,695.5A190.7,190.7,0,0,0,667.13,816.69h0A190.7,190.7,0,0,0,844.69,695.5" transform="translate(-251.76 -220.57)"/><text class="cls-3" transform="translate(72.69 430.45)">INTEGR<tspan class="cls-4" x="144.99" y="0">A</tspan><tspan class="cls-5" x="173.9" y="0">Ç</tspan><tspan class="cls-6" x="199.07" y="0">Ã</tspan><tspan x="227.98" y="0">O L</tspan><tspan class="cls-7" x="290.47" y="0">A</tspan><tspan class="cls-8" x="317.9" y="0">V</tspan><tspan x="345.88" y="0">OURA - PEC</tspan><tspan class="cls-6" x="573.04" y="0">U</tspan><tspan x="600.24" y="0">ÁRIA</tspan></text><g id="iaZL5p.tif"><path class="cls-9" d="M757.11,315.63a40.07,40.07,0,0,1,15.1,5.64c6.58,4.3,10.1,10.36,10.11,18.27,0,8.1,2.38,15.71,4.48,23.39a46.48,46.48,0,0,1,2,10.11,12.17,12.17,0,0,1-4.5,10.41c-6,5.08-13.23,7.21-20.62,9-5.92,1.44-11.92,2.62-17.57,5a13.37,13.37,0,0,0-3.69,1.82c-4.26,3.69-8.17,2.92-12.24-1.14-10.84,32.13-11.59,64-2.72,96.81a75.43,75.43,0,0,0,8.85-14.32c9.11-18.83,12.41-38.84,11.88-59.6a7.88,7.88,0,0,1,7.69-7.73c1.62,0,1.49,1.31,1.73,2.29a142.64,142.64,0,0,1,3.72,46c-1,12.38-3.78,24.29-10.1,35.14-2.53,4.33-5,8.82-10.54,10-.94.21-1.84.71-3,.18,9.92-12.59,13.69-27.25,14.71-42.84.52-1.62,0-3.27.07-4.81.2-.45-.41-.18,0,0,0,0,0,.1-.07.28a2.73,2.73,0,0,1-.57,1,101.16,101.16,0,0,1-14.9,30.63,12.57,12.57,0,0,1-.89,1.18c-3.44,3.66-8.09,5.77-11.67,9.44-2.83,2.9-6.28.84-7.45-3.51-6.34-23.77-6.29-47.66-1.19-71.61a187.75,187.75,0,0,1,27.7-65.33c1.05-1.58,2.45-3.82,4.24-2.62s-.16,3.16-1,4.6a192,192,0,0,0-14.91,30.62c.22.12.44.32.53.28,8.45-4.79,18-6.14,27.15-8.67a51.4,51.4,0,0,0,9.94-3.7c7.93-4.08,10.53-9.48,8.81-18.2a1.53,1.53,0,0,0-.07-.29,140,140,0,0,1-5.64-29.45c-.85-9.15-4.22-12.06-13.41-13.11-11-1.26-21.06,1.69-30.45,7.26a11.66,11.66,0,0,0-5.43,7.4c-2.26,8.53-7.84,14.81-14.19,20.6-10.13,9.24-12.1,23-5.11,34.87a21.33,21.33,0,0,0,9.86,9,10,10,0,0,1,4.36,3.41c.4.57.83,1.22.32,1.87s-1.07.4-1.65.29a5.32,5.32,0,0,1-1.14-.31c-13.18-5.7-22.82-14.67-26-29.15-1.76-7.93.67-15,5.93-21.06a15.16,15.16,0,0,1,2.3-2.3,40.73,40.73,0,0,0,15-21.28c2-6.54,7.64-10,13.69-12.62,3.35-1.44,14.58-4,18.24-4" transform="translate(-251.76 -220.57)"/><path class="cls-9" d="M819.6,481.72c-1.06.23-.89,1.19-1.05,1.89-4.18,18.05-17.5,29.12-36.1,29.91-6,.25-12,0-18,1.14-2,.37-2.06-.73-1.38-2,1.75-3.4,4.14-6,8.34-6.09,4.63-.11,9.25-.27,13.87-.44a58.89,58.89,0,0,0,6.78-.4c12.29-1.87,18.75-9.33,19.7-22.67a38.84,38.84,0,0,0-.69-10.54l-4.23,2.82c-6.42,4.24-13.89,5.31-21.16,7a71.8,71.8,0,0,0-11.84,3.58c-7.72,3.25-12.66,8.94-14.38,17.12-.71,3.38-2.82,5.27-5.44,6.94-.63.41-1.45,1-2.18.45s-.34-1.49-.18-2.23c2.49-11.11,7.92-20.25,17.84-26.35,7.09-4.36,14.92-6.52,23.06-7.72,1.36-.2,2.72-.46,4.06-.74,6.2-1.29,11.88-3.5,16-8.63,1-1.28,2.41-2.72,4.14-2.56,2.38.22,1.26,2.7,2,4.05.19.35.31.69.76.76v1.77a.76.76,0,0,0,0,1.19v1.77a11.83,11.83,0,0,0,0,5.91Z" transform="translate(-251.76 -220.57)"/><path class="cls-9" d="M646.93,472.14c0-12,.07-24-.06-36,0-2.39.7-2.94,3-2.91,10,.12,20.09.1,30.13,0,1.89,0,2.61.45,2.52,2.45-.15,3.53-.16,7.09,0,10.62.09,2-.7,2.46-2.55,2.41-4.23-.12-8.47,0-12.7-.08-1.82,0-2.65.33-2.57,2.4.17,4,.14,8.07,0,12.1-.06,1.87.61,2.38,2.37,2.31,2.65-.12,5.32,0,8-.06,1.55-.05,2.37.27,2.31,2.08-.12,3.54-.12,7.09,0,10.63.06,1.81-.73,2.14-2.28,2.08-2.46-.09-4.93.11-7.39-.06-2.26-.16-3,.49-3,2.91.16,8.37,0,16.74.11,25.11,0,2-.43,2.76-2.58,2.67-4.23-.17-8.47-.16-12.7,0-2.07.08-2.65-.53-2.63-2.61C647,496.17,646.93,484.16,646.93,472.14Z" transform="translate(-251.76 -220.57)"/><path class="cls-9" d="M560.05,486.46l-.15-41.59c0-3.25.05-6.5,0-9.74,0-1.39.45-1.92,1.88-1.9,4.72.06,9.44.1,14.16,0,2.36-.05,1.82,1.53,1.82,2.8q0,24,0,48.09c0,3.05.11,6.11,0,9.15-.09,1.92.48,2.56,2.46,2.53,5.5-.07,11,.08,16.51.14,1.39,3.11.47,6.38.62,9.56.08,1.7.6,3.56-.63,5.13-11.57,0-23.14,0-34.71.14-1.78,0-2.06-.69-2.1-2.24-.08-3.31.49-6.64-.33-9.91-.68-1.15.29-1.82.8-2.56a36.12,36.12,0,0,0,2.67-4.53C564.84,487.79,564.35,486.93,560.05,486.46Z" transform="translate(-251.76 -220.57)"/><path class="cls-9" d="M560.05,486.46c1.85-2.23,3,.28,4.38.75,1.54.54.6,1.72.19,2.66a63.12,63.12,0,0,1-5.09,8.75A46.64,46.64,0,0,1,545,512.26a27.08,27.08,0,0,1-4.54,2.1c-8.72,3-16-1.94-16.3-11.19-.23-6.29,1.54-12.25,3.13-18.24,3.19-12.06,6.42-24.12,9.6-36.19,1.29-4.89,0-6.86-5-7.88a31,31,0,0,0-7.06-.35c-1.84.06-2.11-.51-1.63-2.25,1.38-5,1.3-5,6.56-5h24.46c-2.32,9-4.54,17.63-6.78,26.28-3.4,13.12-6.86,26.24-10.18,39.38-.66,2.6-1.84,5.72,1.08,7.59s5.53-.18,7.69-2A55.48,55.48,0,0,0,560.05,486.46Z" transform="translate(-251.76 -220.57)"/><path class="cls-9" d="M694.36,461.72c-3.12,11.17-4,22.43-1.36,33.82a23.17,23.17,0,0,0,3.87,8.55,11.07,11.07,0,0,1,2.13,6c0,.75.27,1.74-.7,2-.72.22-1.22-.5-1.66-1A47.15,47.15,0,0,1,689,497.89c-4.59-12-4.36-24.29-1.54-36.6a100.49,100.49,0,0,1,11.61-28.59c1.47-2.5,2.34-2.58,4-.25a11.06,11.06,0,0,1,2.21,9.13c-1.31,6.25-2.28,12.58-3.4,18.87-2.3,12.89,1,24.35,8.79,34.7,1.34,1.78,3,3.48,3.13,5.9.06,1,.33,2.12-.86,2.56-1,.36-1.69-.4-2.24-1.1-8.81-11.14-16-23-15.71-37.88C695.34,462.24,695.34,462.21,694.36,461.72Z" transform="translate(-251.76 -220.57)"/><path class="cls-9" d="M712.67,513.61a271.64,271.64,0,0,1,47.29,4.3c.39.07.77.17,1.15.27,1.21.31,3.23.26,3.15,1.56-.1,1.72-2.19,1.66-3.59,1.73-3.67.19-7.21-.9-10.8-1.43-28.83-4.2-57.34-1.77-85.71,3.93-15.62,3.13-30.93,7.77-46.74,10-4.71.67-9.5,2.19-14.23,0-.89-.41-1.77-.85-2.63-1.34-.67-.39-1.54-.8-1.44-1.7s1.17-.91,1.9-1c22.33-2,43.81-8.58,65.81-12.36A275.13,275.13,0,0,1,712.67,513.61Z" transform="translate(-251.76 -220.57)"/><path class="cls-9" d="M546.5,399.19a9.14,9.14,0,1,1,18.27-.24,9,9,0,0,1-8.82,9.43A9.2,9.2,0,0,1,546.5,399.19Z" transform="translate(-251.76 -220.57)"/><path class="cls-9" d="M645.86,455.11c-.29-11.27-6.89-19.19-18-21.23-9.59-1.77-19.18-1.19-28.72.59a1.77,1.77,0,0,0-.33,1.1c-.1,23.92.34,47.85-.53,71.76a4.17,4.17,0,0,0,.85,3.33c5,0,10-.08,15,.14,2.36.1,2.72-.8,2.68-2.87-.11-7.37,0-14.74-.08-22.12,0-1.94.39-3,2.57-2.73a17.49,17.49,0,0,0,3.23-.11c11.68-.9,20-7.86,22.5-18.78A36.44,36.44,0,0,0,645.86,455.11Zm-27,13.77c-1.45,0-2.1-.37-2.08-2,.08-5.8.07-11.59,0-17.39,0-1.51.56-2,2-2.2,4.38-.5,7.39,1.41,8.79,5.63a17.67,17.67,0,0,1,.65,4.95C628.29,465,624.85,469,618.89,468.88Z" transform="translate(-251.76 -220.57)"/></g></svg>