<?xml version="1.0" encoding="utf-8"?>
<!-- Generator: Adobe Illustrator 26.2.1, SVG Export Plug-In . SVG Version: 6.00 Build 0)  -->
<svg version="1.1" id="Layer_1" xmlns="http://www.w3.org/2000/svg" xmlns:xlink="http://www.w3.org/1999/xlink" x="0px" y="0px"
	 viewBox="0 0 1280 1024" style="enable-background:new 0 0 1280 1024;" xml:space="preserve">
<style type="text/css">
	.st0{fill:#FFFFFF;}
	.st1{fill:none;stroke:#FFFFFF;stroke-miterlimit:10;}
	.st2{fill:none;stroke:#FFFFFF;stroke-width:2;stroke-miterlimit:10;}
	.st3{font-family:'Montserrat-Black';}
	.st4{font-size:106.6477px;}
</style>
<g>
	<g id="XMLID_00000088111987638894697220000004016578169899532215_">
		<g>
			<path id="XMLID_00000049939769845250685850000000805139891083129509_" class="st0" d="M819.49,322.21
				c-8.83-2.08-14.03,7.27-19.74,5.19c-4.62-1.68-1.77-0.65-2.16-5.13c2.69-0.68,6.24-2.13,9.19-5.23
				c5.55-5.84,4.09-14.47-1.61-8.71c-3.82,3.86-8.54,4.81-11.25,5.02c-2.36-2.59-5.71-4.08-9.58-5.02
				c-4.1,4.58-5.59,7.62-1.18,12.72c5.84,6.74,14.37,7.19,10.33,15.94c-4.04,8.76-14.35,14.15-13.01,21.33
				c1.33,7.19,8.3,12.58,8.52,17.74c0.22,5.16-1.75,13.47-1.55,17.74c0.2,4.27,4.02,12.13-3.62,11c-7.64-1.12-6.72-4.27-3.47-7.86
				c3.25-3.59,5.94-6.51,1.45-6.74c-4.49-0.22-6.18,0.85-9.6,0.9c-3.42,0.05-5.1-1.12-9.6-0.9c-4.49,0.22-1.8,3.14,1.45,6.74
				c3.25,3.59,4.16,6.74-3.47,7.86c-7.64,1.12-3.82-6.74-3.62-11c0.2-4.27-1.77-12.58-1.55-17.74c0.22-5.17,7.19-10.55,8.52-17.74
				c1.33-7.19-8.97-12.58-13.01-21.33c-4.04-8.76,4.49-9.21,10.33-15.94c4.42-5.1,2.92-8.14-1.18-12.72
				c-3.88,0.94-7.22,2.43-9.58,5.02c-2.71-0.21-7.44-1.16-11.25-5.02c-5.7-5.76-7.16,2.86-1.61,8.71c2.94,3.1,6.49,4.55,9.19,5.23
				c-0.39,4.48,2.46,3.45-2.16,5.13c-5.72,2.08-10.91-7.27-19.74-5.19c-2.93,0.69-6.42,1.22-9.78,1.72
				c-2.25,0.33-4.55,0.18-6.69-0.6c-3.84-1.39-8.46-2.18-11.73-1.3c-13.8,3.71-57.3,8.6-72.65,9.86
				c-38.67,3.16-95.96-21.44-135.19-5.72c-0.87,0.35-1.69,0.76-2.48,1.19c-11.94,2.56-20.27,12.35-20.27,23.12
				c0,7.62-1.33,60.82-1.82,79.94c-1.34,0.98-2.84,3.13-4.5,6.85c-8.89,19.92,11.64,52.87,11.64,52.87s1.66-25.94,1.59-36.91
				c-0.04-6.58-1.6-18.17-4.75-22.1c0.36-12.83,1.25-42.42,2.27-56.19c0.82,6.73,1.7,16.46,0.67,23.04
				c-1.66,10.64,21.4,44.46,23.13,53.77c1.73,9.31-7.46,33.01-7.46,33.01s6.94,54.89,6.94,56.22c0,1.33-4.05,11.3-4.05,11.3
				s5.16,2.18,6.49,2.51c1.33,0.33,0.76,4.87,0.76,4.87l22.97-0.7l-9.55-24.63c0,0-3.23-42.03-0.33-47.89
				c0.44-0.89,7.98-20.29,7.98-20.29s1.15,2.74,6.83,4.56c-2.15,7.53-4.67,14.04-4.67,14.04s6.94,54.89,6.94,56.22
				c0,1.33-4.05,11.3-4.05,11.3s5.16,2.18,6.49,2.51c1.33,0.33,0.76,4.87,0.76,4.87l22.97-0.7l-9.55-24.63
				c0,0-3.23-42.03-0.33-47.89c0.29-0.59,3.68-9.24,5.94-15.06c1.09-0.15,2.21-0.31,3.37-0.5c0.02,0.88,0.02,1.76,0.05,2.64
				c0.06,1.74,0.3,3.73,1.74,4.72c1.31,0.89,3.19,0.51,4.37-0.53c1.19-1.04,1.8-2.6,2.15-4.14c0.33-1.42,0.41-2.89,0.36-4.35
				c0.74-0.17,1.44-0.34,2.12-0.51c-0.01,0.32-0.02,0.65-0.02,0.97c0.02,2.59,0.52,5.33,2.23,7.29c0.65,0.74,1.6,1.38,2.57,1.19
				c1.34-0.27,1.87-1.87,2.09-3.22c0.45-2.69,0.66-5.42,0.65-8.14c7.71-1.76,16.14-2.18,39.43,3.35
				c22.12,5.25,24.94-3.66,31.92-4.32c6.98-0.67,32.75-3.58,39.63,2.1c6.87,5.67,8.23,49.86,5.93,80.71l4.43,4.19l0.96,9.6h22.09
				c0,0,0.96-8.64-5.76-11.52c-6.72-2.88-4.8-7.68-6.72-21.13c-1.92-13.44,4.8-27.85,4.8-30.75c0-1.89,2.27-15.17,6.5-24.21
				c3.96,14.85,4.51,48.74,2.64,73.83l4.43,4.19l0.96,9.6h22.09c0,0,0.96-8.64-5.76-11.52c-6.72-2.88-4.8-7.68-6.72-21.13
				c-1.92-13.44,4.8-27.85,4.8-30.75c0-2.56,0.32-21.3,8.15-37.57c5.86-3.2,11.1-8.44,13.82-17.04c2.19-6.92,11.72-24.24,9.26-31.74
				c2.18-0.2,4.19-1.1,4.19-1.1s5.71,2.6,8.31,0s6.23-3.64,9.87-4.68c3.64-1.04-0.52-11.43-0.52-15.59c0-4.16,1.56-6.23,1.56-11.95
				c0-5.72-1.56-11.43,1.04-12.47c2.6-1.04,3.12-9.87,3.64-11.43c0.52-1.56,8.31-6.23,8.31-6.23c29.61,7.79,37.92-18.7,37.92-21.52
				C842.35,324.89,828.32,324.29,819.49,322.21z"/>
		</g>
	</g>
	<path id="XMLID_184_" class="st0" d="M640.08,126.83l8.12,16.46l18.17,2.64l-13.15,12.81l3.1,18.09l-16.25-8.54l-16.25,8.54
		l3.1-18.09l-13.15-12.81l18.17-2.64L640.08,126.83z M710.34,154.72l-11.98,1.74l8.67,8.45l-2.05,11.93l10.71-5.63l10.71,5.63
		l-2.05-11.93l8.67-8.45l-11.98-1.74l-5.36-10.85L710.34,154.72z M559.1,154.72l-11.98,1.74l8.67,8.45l-2.05,11.93l10.71-5.63
		l10.71,5.63l-2.05-11.93l8.67-8.45l-11.98-1.74l-5.36-10.85L559.1,154.72z"/>
	<path id="XMLID_183_" class="st1" d="M1242.84,799.8H37.31c-19.09,0-31.39-16.23-22.6-29.83l50.53-78.16
		c3.81-5.9,3.81-12.91,0-18.81l-50.53-78.16c-8.79-13.6,3.51-29.83,22.6-29.83h1205.53c19.09,0,31.39,16.23,22.6,29.83L1214.92,673
		c-3.81,5.9-3.81,12.91,0,18.81l50.53,78.16C1274.23,783.57,1261.93,799.8,1242.84,799.8z"/>
	<g id="XMLID_174_">
		<path id="XMLID_38_" class="st2" d="M928.83,565.01V339.4c0-159.47-129.28-288.75-288.75-288.75h0
			c-159.47,0-288.75,129.28-288.75,288.75v225.61"/>
		<path id="XMLID_39_" class="st2" d="M385.76,799.8c42.07,107.42,131.99,152.06,254.32,152.06h0
			c122.33,0,212.25-44.64,254.32-152.06"/>
	</g>
	<g id="XMLID_3_">
		<text transform="matrix(1 0 0 1 118.2384 673.1653)"><tspan x="0" y="0" class="st0 st3 st4">PECUÁRIA BOVINA</tspan><tspan x="249.5" y="109.45" class="st0 st3 st4">DE CORTE</tspan></text>
	</g>
</g>
</svg>
