<?xml version="1.0" encoding="utf-8"?>
<!-- Generator: Adobe Illustrator 24.3.0, SVG Export Plug-In . SVG Version: 6.00 Build 0)  -->
<svg version="1.1" id="Layer_1" xmlns="http://www.w3.org/2000/svg" xmlns:xlink="http://www.w3.org/1999/xlink" x="0px" y="0px"
	 viewBox="0 0 1133.9 813.5" style="enable-background:new 0 0 1133.9 813.5;" xml:space="preserve">
<style type="text/css">
	.st0{fill:#FFFFFF;}
	.st1{fill:none;stroke:#FFFFFF;stroke-miterlimit:10;}
	.st2{fill:none;stroke:#FFFFFF;stroke-width:2;stroke-miterlimit:10;}
	.st3{enable-background:new    ;}
</style>
<g>
	<g id="XMLID_00000088111987638894697220000004016578169899532215_">
		<g>
			<path id="XMLID_00000049939769845250685850000000805139891083129509_" class="st0" d="M728.8,245.1c-8-1.9-12.7,6.6-17.8,4.7
				c-4.2-1.5-1.6-0.6-1.9-4.6c2.4-0.6,5.6-1.9,8.3-4.7c5-5.3,3.7-13.1-1.5-7.9c-3.4,3.5-7.7,4.3-10.2,4.5c-2.1-2.3-5.2-3.7-8.6-4.5
				c-3.7,4.1-5,6.9-1.1,11.5c5.3,6.1,13,6.5,9.3,14.4c-3.6,7.9-12.9,12.8-11.7,19.3c1.2,6.5,7.5,11.4,7.7,16
				c0.2,4.7-1.6,12.2-1.4,16c0.2,3.9,3.6,11-3.3,9.9c-6.9-1-6.1-3.9-3.1-7.1c2.9-3.2,5.4-5.9,1.3-6.1c-4.1-0.2-5.6,0.8-8.7,0.8
				s-4.6-1-8.7-0.8c-4.1,0.2-1.6,2.8,1.3,6.1c2.9,3.2,3.8,6.1-3.1,7.1c-6.9,1-3.4-6.1-3.3-9.9c0.2-3.9-1.6-11.4-1.4-16
				c0.2-4.7,6.5-9.5,7.7-16c1.2-6.5-8.1-11.4-11.7-19.3c-3.6-7.9,4.1-8.3,9.3-14.4c4-4.6,2.6-7.3-1.1-11.5c-3.5,0.8-6.5,2.2-8.6,4.5
				c-2.4-0.2-6.7-1-10.2-4.5c-5.1-5.2-6.5,2.6-1.5,7.9c2.7,2.8,5.9,4.1,8.3,4.7c-0.4,4,2.2,3.1-1.9,4.6c-5.2,1.9-9.8-6.6-17.8-4.7
				c-2.6,0.6-5.8,1.1-8.8,1.6c-2,0.3-4.1,0.2-6-0.5c-3.5-1.3-7.6-2-10.6-1.2c-12.5,3.3-51.7,7.8-65.6,8.9
				c-34.9,2.9-86.6-19.4-122-5.2c-0.8,0.3-1.5,0.7-2.2,1.1c-10.8,2.3-18.3,11.1-18.3,20.9c0,6.9-1.2,54.9-1.6,72.2
				c-1.2,0.9-2.6,2.8-4.1,6.2c-8,18,10.5,47.7,10.5,47.7s1.5-23.4,1.4-33.3c0-5.9-1.4-16.4-4.3-20c0.3-11.6,1.1-38.3,2-50.7
				c0.7,6.1,1.5,14.9,0.6,20.8c-1.5,9.6,19.3,40.1,20.9,48.5c1.6,8.4-6.7,29.8-6.7,29.8s6.3,49.6,6.3,50.8c0,1.2-3.7,10.2-3.7,10.2
				s4.7,2,5.9,2.3c1.2,0.3,0.7,4.4,0.7,4.4l20.7-0.6l-8.6-22.2c0,0-2.9-37.9-0.3-43.2c0.4-0.8,7.2-18.3,7.2-18.3s1,2.5,6.2,4.1
				c-1.9,6.8-4.2,12.7-4.2,12.7s6.3,49.6,6.3,50.8c0,1.2-3.7,10.2-3.7,10.2s4.7,2,5.9,2.3c1.2,0.3,0.7,4.4,0.7,4.4l20.7-0.6
				l-8.6-22.2c0,0-2.9-37.9-0.3-43.2c0.3-0.5,3.3-8.3,5.4-13.6c1-0.1,2-0.3,3-0.5c0,0.8,0,1.6,0,2.4c0.1,1.6,0.3,3.4,1.6,4.3
				c1.2,0.8,2.9,0.5,3.9-0.5c1.1-0.9,1.6-2.3,1.9-3.7c0.3-1.3,0.4-2.6,0.3-3.9c0.7-0.2,1.3-0.3,1.9-0.5c0,0.3,0,0.6,0,0.9
				c0,2.3,0.5,4.8,2,6.6c0.6,0.7,1.4,1.2,2.3,1.1c1.2-0.2,1.7-1.7,1.9-2.9c0.4-2.4,0.6-4.9,0.6-7.3c7-1.6,14.6-2,35.6,3
				c20,4.7,22.5-3.3,28.8-3.9c6.3-0.6,29.6-3.2,35.8,1.9c6.2,5.1,7.4,45,5.4,72.9l4,3.8l0.9,8.7H635c0,0,0.9-7.8-5.2-10.4
				c-6.1-2.6-4.3-6.9-6.1-19.1c-1.7-12.1,4.3-25.1,4.3-27.8c0-1.7,2-13.7,5.9-21.9c3.6,13.4,4.1,44,2.4,66.6l4,3.8l0.9,8.7h19.9
				c0,0,0.9-7.8-5.2-10.4c-6.1-2.6-4.3-6.9-6.1-19.1c-1.7-12.1,4.3-25.1,4.3-27.8c0-2.3,0.3-19.2,7.4-33.9c5.3-2.9,10-7.6,12.5-15.4
				c2-6.2,10.6-21.9,8.4-28.7c2-0.2,3.8-1,3.8-1s5.2,2.3,7.5,0c2.3-2.3,5.6-3.3,8.9-4.2c3.3-0.9-0.5-10.3-0.5-14.1s1.4-5.6,1.4-10.8
				s-1.4-10.3,0.9-11.3c2.3-0.9,2.8-8.9,3.3-10.3c0.5-1.4,7.5-5.6,7.5-5.6c26.7,7,34.2-16.9,34.2-19.4
				C749.5,247.6,736.8,247,728.8,245.1z"/>
		</g>
	</g>
	<path id="XMLID_184_" class="st0" d="M566.9,68.8l7.3,14.9l16.4,2.4l-11.9,11.6l2.8,16.3l-14.7-7.7l-14.7,7.7l2.8-16.3L543.2,86
		l16.4-2.4L566.9,68.8z M630.3,93.9l-10.8,1.6l7.8,7.6l-1.8,10.8l9.7-5.1l9.7,5.1l-1.8-10.8l7.8-7.6L640,93.9l-4.8-9.8L630.3,93.9z
		 M493.9,93.9L483,95.5l7.8,7.6l-1.8,10.8l9.7-5.1l9.7,5.1l-1.8-10.8l7.8-7.6l-10.8-1.6l-4.8-9.8L493.9,93.9z"/>
	<path id="XMLID_183_" class="st1" d="M1110.8,676.3H23c-17.2,0-28.3-14.7-20.4-26.9l45.6-70.6c3.4-5.3,3.4-11.7,0-17L2.6,491.3
		C-5.3,479,5.8,464.3,23,464.3h1087.8c17.2,0,28.3,14.7,20.4,26.9l-45.6,70.6c-3.4,5.3-3.4,11.7,0,17l45.6,70.6
		C1139.2,661.6,1128.1,676.3,1110.8,676.3z"/>
	<g id="XMLID_174_">
		<path id="XMLID_38_" class="st2" d="M827.5,464.3V260.7C827.5,116.7,710.8,0,566.9,0l0,0C423,0,306.4,116.7,306.4,260.7v203.7"/>
		<path id="XMLID_39_" class="st2" d="M337.4,676.3c38,97,119.1,137.3,229.5,137.3l0,0c110.4,0,191.5-40.3,229.5-137.3"/>
	</g>
	<g class="st3">
		<path class="st0" d="M159.7,517.7c0,14.3-10.4,23-27.5,23h-18.1V562H107v-67.4h25.2C149.3,494.6,159.7,503.2,159.7,517.7z
			 M152.6,517.7c0-10.8-7.1-16.9-20.6-16.9h-17.9v33.7H132C145.5,534.4,152.6,528.3,152.6,517.7z"/>
		<path class="st0" d="M222.8,555.8v6.2h-47.6v-67.4h46.2v6.2h-39.1v24h34.8v6.1h-34.8v25H222.8z"/>
		<path class="st0" d="M233.2,528.3c0-19.7,15-34.3,35.3-34.3c9.8,0,18.7,3.3,24.6,9.8l-4.5,4.5c-5.5-5.6-12.2-8-19.9-8
			c-16.3,0-28.5,11.9-28.5,27.9c0,16,12.2,27.9,28.5,27.9c7.7,0,14.4-2.4,19.9-8.1l4.5,4.5c-6,6.5-14.8,9.9-24.7,9.9
			C248.2,562.5,233.2,548,233.2,528.3z"/>
		<path class="st0" d="M307.6,533.2v-38.6h7.1v38.3c0,16,7.5,23.3,20.6,23.3c13.2,0,20.7-7.3,20.7-23.3v-38.3h6.9v38.6
			c0,19.4-10.4,29.4-27.6,29.4C318,562.5,307.6,552.5,307.6,533.2z"/>
		<path class="st0" d="M425.2,544h-37.5l-8.1,18h-7.4l30.8-67.4h7l30.8,67.4h-7.5L425.2,544z M422.6,538.2L406.4,502l-16.2,36.2
			H422.6z M407,489.1h-6.7l13.2-11.9h9.1L407,489.1z"/>
		<path class="st0" d="M497.9,562l-15.4-21.7c-1.7,0.2-3.5,0.3-5.4,0.3H459V562h-7.1v-67.4h25.2c17.1,0,27.5,8.7,27.5,23.1
			c0,10.6-5.6,18-15.4,21.2l16.5,23.1H497.9z M497.5,517.7c0-10.8-7.1-16.9-20.6-16.9H459v33.8h17.9
			C490.4,534.5,497.5,528.3,497.5,517.7z"/>
		<path class="st0" d="M521.5,494.6h7.1V562h-7.1V494.6z"/>
		<path class="st0" d="M592.8,544h-37.5l-8.1,18h-7.4l30.8-67.4h7l30.8,67.4h-7.5L592.8,544z M590.2,538.2L574,502l-16.2,36.2H590.2
			z"/>
		<path class="st0" d="M701.1,544c0,11.5-8.5,18-25.3,18h-31v-67.4h29.1c15,0,23.7,6.4,23.7,17.3c0,7.7-4.1,12.8-10.3,15.3
			C695.9,529.1,701.1,534.8,701.1,544z M651.9,500.4v24.5h21.5c10.8,0,17-4.1,17-12.2c0-8.1-6.3-12.2-17-12.2H651.9z M693.9,543.4
			c0-8.8-6.4-12.6-18.3-12.6h-23.8v25.3h23.8C687.5,556.1,693.9,552.2,693.9,543.4z"/>
		<path class="st0" d="M711.4,528.3c0-19.6,15-34.3,35.4-34.3c20.2,0,35.3,14.5,35.3,34.3c0,19.7-15.1,34.3-35.3,34.3
			C726.4,562.5,711.4,547.9,711.4,528.3z M775,528.3c0-16.1-12-27.9-28.2-27.9c-16.3,0-28.4,11.8-28.4,27.9
			c0,16.1,12.1,27.9,28.4,27.9C762.9,556.2,775,544.3,775,528.3z"/>
		<path class="st0" d="M852.1,494.6L822.2,562h-7l-29.8-67.4h7.7l25.8,58.5l26-58.5H852.1z"/>
		<path class="st0" d="M861.8,494.6h7.1V562h-7.1V494.6z"/>
		<path class="st0" d="M947.1,494.6V562h-5.9L898,507.3V562h-7.1v-67.4h5.9l43.4,54.7v-54.7H947.1z"/>
		<path class="st0" d="M1011.3,544h-37.5l-8.1,18h-7.4l30.8-67.4h7l30.8,67.4h-7.5L1011.3,544z M1008.7,538.2L992.6,502l-16.2,36.2
			H1008.7z"/>
	</g>
	<g class="st3">
		<path class="st0" d="M332.1,593.4h27.4c21.6,0,36.1,13.9,36.1,33.7c0,19.8-14.5,33.7-36.1,33.7h-27.4V593.4z M359.2,654.6
			c17.9,0,29.4-11.4,29.4-27.5c0-16.2-11.5-27.5-29.4-27.5h-19.9v55.1H359.2z"/>
		<path class="st0" d="M459.3,654.6v6.2h-47.6v-67.4h46.2v6.2h-39.1v24h34.8v6.1h-34.8v25H459.3z"/>
		<path class="st0" d="M495.3,627.1c0-19.7,15-34.3,35.3-34.3c9.8,0,18.7,3.3,24.6,9.8l-4.5,4.5c-5.5-5.6-12.2-8-19.9-8
			c-16.3,0-28.5,11.9-28.5,27.9c0,16,12.2,27.9,28.5,27.9c7.7,0,14.4-2.4,19.9-8.1l4.5,4.5c-6,6.5-14.8,9.9-24.7,9.9
			C510.3,661.3,495.3,646.8,495.3,627.1z"/>
		<path class="st0" d="M563,627.1c0-19.6,15-34.3,35.4-34.3c20.2,0,35.3,14.5,35.3,34.3c0,19.7-15.1,34.3-35.3,34.3
			C578,661.3,563,646.7,563,627.1z M626.6,627.1c0-16.1-12-27.9-28.2-27.9c-16.3,0-28.4,11.8-28.4,27.9c0,16.1,12.1,27.9,28.4,27.9
			C614.6,655,626.6,643.1,626.6,627.1z"/>
		<path class="st0" d="M695.7,660.8l-15.4-21.7c-1.7,0.2-3.5,0.3-5.4,0.3h-18.1v21.4h-7.1v-67.4h25.2c17.1,0,27.5,8.7,27.5,23.1
			c0,10.6-5.6,18-15.4,21.2l16.5,23.1H695.7z M695.3,616.5c0-10.8-7.1-16.9-20.6-16.9h-17.9v33.8h17.9
			C688.2,633.3,695.3,627.1,695.3,616.5z"/>
		<path class="st0" d="M731.4,599.5h-23.7v-6.2h54.5v6.2h-23.7v61.2h-7.1V599.5z"/>
		<path class="st0" d="M821.2,654.6v6.2h-47.6v-67.4h46.2v6.2h-39.1v24h34.8v6.1h-34.8v25H821.2z"/>
	</g>
</g>
</svg>
