<?xml version="1.0" encoding="utf-8"?>
<!-- Generator: Adobe Illustrator 24.3.0, SVG Export Plug-In . SVG Version: 6.00 Build 0)  -->
<svg version="1.1" id="Layer_1" xmlns="http://www.w3.org/2000/svg" xmlns:xlink="http://www.w3.org/1999/xlink" x="0px" y="0px"
	 viewBox="0 0 1133.9 813.5" style="enable-background:new 0 0 1133.9 813.5;" xml:space="preserve">
<style type="text/css">
	.st0{fill:none;stroke:#FFFFFF;stroke-miterlimit:10;}
	.st1{fill:none;stroke:#FFFFFF;stroke-width:2;stroke-miterlimit:10;}
	.st2{fill:#FFFFFF;}
	.st3{font-family:'Montserrat-ExtraBold';}
	.st4{font-size:50.7303px;}
	.st5{letter-spacing:-1;}
	.st6{letter-spacing:-2;}
</style>
<path class="st0" d="M1111.4,648.9H23.5c-17.2,0-28.3-10.7-20.4-19.7l45.6-51.6c3.4-3.4,3.4-9,0-12.4L3.1,513.4
	c-7.9-9,3.2-19.7,20.4-19.7h1087.9c17.2,0,28.3,10.7,20.4,19.7l-45.6,51.6c-3.4,3.4-3.4,9,0,12.4c0,0,0,0,0,0l45.6,51.6
	C1139.7,638.1,1128.6,648.9,1111.4,648.9z"/>
<path class="st1" d="M828,493.7V261.7C828,117.7,711.3,1,567.4,1l0,0C423.5,1,306.9,117.7,306.9,261.7v232.1"/>
<path class="st1" d="M324.8,648.9c39.1,99.9,135.4,165.7,242.6,165.7l0,0c107.3,0,203.5-65.8,242.6-165.7"/>
<text transform="matrix(0.9996 0 0 1 99.1489 588.0685)" class="st2 st3 st4">INTEGR</text>
<text transform="matrix(0.9996 0 0 1 297.2822 588.0685)" class="st2 st3 st4 st5">A</text>
<text transform="matrix(0.9996 0 0 1 336.7881 588.0685)" class="st2 st3 st4">Ç</text>
<text transform="matrix(0.9996 0 0 1 371.1836 588.0685)" class="st2 st3 st4 st5">Ã</text>
<text transform="matrix(0.9996 0 0 1 410.6899 588.0685)" class="st2 st3 st4">O L</text>
<text transform="matrix(0.9996 0 0 1 496.084 588.0685)" class="st2 st3 st4 st6">A</text>
<text transform="matrix(0.9996 0 0 1 533.5684 588.0685)" class="st2 st3 st4">V</text>
<text transform="matrix(0.9996 0 0 1 571.8037 588.0685)" class="st2 st3 st4">OURA - PEC</text>
<text transform="matrix(0.9996 0 0 1 882.2236 588.0685)" class="st2 st3 st4 st5">U</text>
<text transform="matrix(0.9996 0 0 1 919.3936 588.0685)" class="st2 st3 st4">ÁRIA</text>
<g id="iaZL5p.tif">
	<path class="st2" d="M690.4,129.6c7.3,1.1,14.3,3.8,20.6,7.7c9,5.9,13.8,14.2,13.8,25c0,11.1,3.3,21.5,6.1,32
		c1.4,4.5,2.3,9.1,2.7,13.8c0.4,5.5-1.9,10.8-6.1,14.2c-8.2,6.9-18.1,9.9-28.2,12.3c-8.1,2-16.3,3.6-24,6.8c-1.8,0.6-3.5,1.4-5,2.5
		c-5.8,5-11.2,4-16.7-1.6c-14.8,43.9-15.8,87.5-3.7,132.3c4.7-6.1,8.8-12.6,12.1-19.6c12.4-25.7,17-53.1,16.2-81.5
		c0.1-5.8,4.7-10.4,10.5-10.6c2.2,0,2,1.8,2.4,3.1c5.1,20.5,6.8,41.8,5.1,62.9c-1.4,16.9-5.2,33.2-13.8,48
		c-3.5,5.9-6.8,12.1-14.4,13.7c-1.3,0.3-2.5,1-4.1,0.2c13.6-17.2,18.7-37.3,20.1-58.6c0.7-2.2,0-4.5,0.1-6.6c0.3-0.6-0.6-0.2,0,0
		c0,0,0,0.1-0.1,0.4c-0.2,0.5-0.4,1-0.8,1.4c-4.4,15-11.3,29.2-20.4,41.9c-0.4,0.6-0.8,1.1-1.2,1.6c-4.7,5-11.1,7.9-15.9,12.9
		c-3.9,4-8.6,1.1-10.2-4.8c-8.7-32.5-8.6-65.2-1.6-97.9c6.8-31.9,19.7-62.2,37.9-89.3c1.4-2.2,3.3-5.2,5.8-3.6s-0.2,4.3-1.4,6.3
		c-8,13.3-14.8,27.3-20.4,41.9c0.3,0.2,0.6,0.4,0.7,0.4c11.5-6.5,24.6-8.4,37.1-11.9c4.7-1.2,9.2-2.9,13.6-5.1
		c10.8-5.6,14.4-13,12-24.9c0-0.1-0.1-0.3-0.1-0.4c-4-13.1-6.6-26.6-7.7-40.3c-1.2-12.5-5.8-16.5-18.3-17.9
		c-15-1.7-28.8,2.3-41.6,9.9c-3.8,2.2-6.4,5.9-7.4,10.1c-3.1,11.7-10.7,20.2-19.4,28.2c-13.8,12.6-16.5,31.4-7,47.7
		c3.1,5.4,7.8,9.8,13.5,12.3c2.4,1,4.5,2.6,6,4.7c0.5,0.8,1.1,1.7,0.4,2.6s-1.5,0.5-2.3,0.4c-0.5-0.1-1.1-0.2-1.6-0.4
		c-18-7.8-31.2-20.1-35.5-39.8c-2.4-10.8,0.9-20.5,8.1-28.8c0.9-1.2,2-2.2,3.1-3.1c9.8-7.2,17-17.4,20.5-29.1
		c2.7-8.9,10.4-13.7,18.7-17.3c4.6-2,19.9-5.5,24.9-5.5"/>
	<path class="st2" d="M775.8,356.6c-1.4,0.3-1.2,1.6-1.4,2.6c-5.7,24.7-23.9,39.8-49.3,40.9c-8.2,0.3-16.4,0-24.6,1.6
		c-2.7,0.5-2.8-1-1.9-2.7c2.4-4.6,5.7-8.2,11.4-8.3c6.3-0.2,12.6-0.4,19-0.6c3.1,0,6.2-0.2,9.3-0.5c16.8-2.6,25.6-12.8,26.9-31
		c0.3-4.8,0-9.7-0.9-14.4l-5.8,3.9c-8.8,5.8-19,7.3-28.9,9.6c-5.5,1.2-10.9,2.8-16.2,4.9c-10.5,4.4-17.3,12.2-19.7,23.4
		c-1,4.6-3.9,7.2-7.4,9.5c-0.9,0.6-2,1.4-3,0.6c-1-0.8-0.5-2-0.2-3c3.4-15.2,10.8-27.7,24.4-36c9.7-6,20.4-8.9,31.5-10.6
		c1.9-0.3,3.7-0.6,5.5-1c8.5-1.8,16.2-4.8,21.9-11.8c1.4-1.7,3.3-3.7,5.7-3.5c3.3,0.3,1.7,3.7,2.7,5.5c0.3,0.5,0.4,0.9,1,1v2.4
		c-0.4,0.4-0.5,1-0.2,1.5c0,0.1,0.1,0.1,0.2,0.2v2.4c-0.7,2.6-0.7,5.4,0,8.1L775.8,356.6z"/>
	<path class="st2" d="M539.8,343.5c0-16.4,0.1-32.8-0.1-49.2c0-3.3,1-4,4.1-4c13.7,0.2,27.5,0.1,41.2,0c2.6,0,3.6,0.6,3.4,3.3
		c-0.2,4.8-0.2,9.7,0,14.5c0.1,2.7-1,3.4-3.5,3.3c-5.8-0.2-11.6,0-17.4-0.1c-2.5,0-3.6,0.5-3.5,3.3c0.2,5.5,0.2,11,0,16.5
		c-0.1,2.6,0.8,3.3,3.2,3.2c3.6-0.2,7.3,0,10.9-0.1c2.1-0.1,3.2,0.4,3.2,2.8c-0.2,4.8-0.2,9.7,0,14.5c0.1,2.5-1,2.9-3.1,2.8
		c-3.4-0.1-6.7,0.2-10.1-0.1c-3.1-0.2-4.1,0.7-4.1,4c0.2,11.4,0,22.9,0.2,34.3c0,2.7-0.6,3.8-3.5,3.6c-5.8-0.2-11.6-0.2-17.4,0
		c-2.8,0.1-3.6-0.7-3.6-3.6C539.9,376.4,539.8,360,539.8,343.5z"/>
	<path class="st2" d="M421.1,363.1l-0.2-56.9c0-4.4,0.1-8.9,0-13.3c0-1.9,0.6-2.6,2.6-2.6c6.4,0.1,12.9,0.1,19.4,0
		c3.2-0.1,2.5,2.1,2.5,3.8c0,21.9,0,43.8,0,65.7c0,4.2,0.2,8.4,0,12.5c-0.1,2.6,0.7,3.5,3.4,3.5c7.5-0.1,15,0.1,22.6,0.2
		c1.9,4.3,0.6,8.7,0.8,13.1c0.1,2.3,0.8,4.9-0.9,7c-15.8,0-31.6,0-47.4,0.2c-2.4,0-2.8-0.9-2.9-3.1c-0.1-4.5,0.7-9.1-0.5-13.5
		c-0.9-1.6,0.4-2.5,1.1-3.5c1.4-2,2.6-4,3.6-6.2C427.6,364.9,427,363.8,421.1,363.1z"/>
	<path class="st2" d="M421.1,363.1c2.5-3,4.1,0.4,6,1c2.1,0.7,0.8,2.4,0.3,3.6c-2,4.2-4.3,8.2-7,12c-5.2,7.6-12,13.9-19.9,18.6
		c-2,1.1-4.1,2.1-6.2,2.9c-11.9,4.1-21.9-2.7-22.3-15.3c-0.3-8.6,2.1-16.7,4.3-24.9c4.4-16.5,8.8-33,13.1-49.5
		c1.8-6.7,0-9.4-6.8-10.8c-3.2-0.5-6.4-0.7-9.6-0.5c-2.5,0.1-2.9-0.7-2.2-3.1c1.9-6.8,1.8-6.8,9-6.8h33.4
		c-3.2,12.3-6.2,24.1-9.3,35.9c-4.6,17.9-9.4,35.9-13.9,53.8c-0.9,3.6-2.5,7.8,1.5,10.4c4,2.6,7.6-0.2,10.5-2.7
		C410,381,416.5,372.6,421.1,363.1z"/>
	<path class="st2" d="M604.6,329.3c-4.3,15.3-5.5,30.7-1.9,46.2c0.9,4.2,2.7,8.2,5.3,11.7c1.8,2.4,2.8,5.2,2.9,8.2
		c0,1,0.4,2.4-1,2.7c-1,0.3-1.7-0.7-2.3-1.4c-4.4-5.4-8-11.5-10.4-18c-6.3-16.4-6-33.2-2.1-50c3.2-13.8,8.6-27,15.9-39.1
		c2-3.4,3.2-3.5,5.5-0.3c2.8,3.5,3.9,8.1,3,12.5c-1.8,8.5-3.1,17.2-4.6,25.8c-3.1,17.6,1.4,33.3,12,47.4c1.8,2.4,4.1,4.8,4.3,8.1
		c0.1,1.4,0.5,2.9-1.2,3.5c-1.4,0.5-2.3-0.5-3.1-1.5c-12-15.2-21.9-31.4-21.5-51.8C606,330,606,330,604.6,329.3z"/>
	<path class="st2" d="M629.7,400.2c21.7,0.1,43.3,2,64.6,5.9c0.5,0.1,1.1,0.2,1.6,0.4c1.7,0.4,4.4,0.4,4.3,2.1
		c-0.1,2.4-3,2.3-4.9,2.4c-5,0.3-9.9-1.2-14.8-2c-39.4-5.7-78.4-2.4-117.1,5.4c-21.3,4.3-42.3,10.6-63.9,13.7c-6.4,0.9-13,3-19.4,0
		c-1.2-0.6-2.4-1.2-3.6-1.8c-0.9-0.5-2.1-1.1-2-2.3c0.1-1.2,1.6-1.2,2.6-1.4c30.5-2.7,59.9-11.7,89.9-16.9
		C587.7,402.1,608.7,400.3,629.7,400.2z"/>
	<path class="st2" d="M402.6,243.8c-0.3-6.9,5-12.7,11.9-13c6.9-0.3,12.7,5,13,11.9c0,0.3,0,0.5,0,0.8c0.3,6.8-4.9,12.6-11.7,12.9
		c-0.1,0-0.2,0-0.4,0c-6.9,0.2-12.7-5.3-12.9-12.2C402.6,244,402.6,243.9,402.6,243.8z"/>
	<path class="st2" d="M538.4,320.3c-0.4-15.4-9.4-26.2-24.6-29c-13.1-2.4-26.2-1.6-39.2,0.8c-0.3,0.4-0.5,1-0.5,1.5
		c-0.1,32.7,0.5,65.4-0.7,98.1c-0.3,1.6,0.1,3.3,1.2,4.6c6.8,0,13.7-0.1,20.5,0.2c3.2,0.1,3.7-1.1,3.7-3.9
		c-0.2-10.1,0-20.1-0.1-30.2c0-2.7,0.5-4.1,3.5-3.7c1.5,0.1,3,0,4.4-0.2c16-1.2,27.3-10.7,30.7-25.7
		C538.1,328.6,538.5,324.4,538.4,320.3z M501.5,339.1c-2,0-2.9-0.5-2.8-2.7c0.1-7.9,0.1-15.8,0-23.8c0-2.1,0.8-2.7,2.7-3
		c6-0.7,10.1,1.9,12,7.7c0.6,2.2,0.9,4.5,0.9,6.8C514.4,333.8,509.7,339.2,501.5,339.1L501.5,339.1z"/>
</g>
</svg>
