<?xml version="1.0" encoding="utf-8"?>
<!-- Generator: Adobe Illustrator 26.2.1, SVG Export Plug-In . SVG Version: 6.00 Build 0)  -->
<svg version="1.1" id="Layer_1" xmlns="http://www.w3.org/2000/svg" xmlns:xlink="http://www.w3.org/1999/xlink" x="0px" y="0px"
	 viewBox="0 0 1280 1024" style="enable-background:new 0 0 1280 1024;" xml:space="preserve">
<style type="text/css">
	.st0{fill:#EDEDED;}
</style>
<g>
	<path class="st0" d="M354.26,422c7.34,0,13.62,0.48,18.85,1.44c1.47,0.38,2.2,1.24,2.2,2.58v7.66c0,0.96-0.48,1.44-1.43,1.44
		h-19.62c-6.45,0-10.65,1.66-12.63,4.98c-1.91,3.38-2.87,9.86-2.87,19.43c0,9.7,0.96,16.21,2.87,19.52
		c1.98,3.32,6.19,4.98,12.63,4.98h19.62c0.96,0,1.43,0.48,1.43,1.44v7.75c0,1.28-0.73,2.11-2.2,2.49c-4.72,0.96-11,1.44-18.85,1.44
		c-6.45,0-11.55-0.59-15.31-1.77c-3.77-1.18-6.83-3.24-9.19-6.17c-2.3-3-3.91-6.78-4.83-11.34c-0.93-4.56-1.39-10.67-1.39-18.33
		c0-7.66,0.46-13.76,1.39-18.33c0.92-4.56,2.54-8.31,4.83-11.25c2.36-2.93,5.42-4.99,9.19-6.17C342.71,422.59,347.81,422,354.26,422
		z"/>
	<path class="st0" d="M443.16,459.71c0,14.55-2.14,24.44-6.41,29.67c-4.34,5.17-12.54,7.75-24.59,7.75
		c-12.06,0-20.26-2.58-24.6-7.75c-4.28-5.23-6.41-15.12-6.41-29.67c0-7.72,0.48-13.86,1.44-18.42c0.96-4.56,2.62-8.31,4.98-11.24
		c2.36-3,5.44-5.09,9.23-6.27c3.79-1.18,8.92-1.77,15.36-1.77c6.44,0,11.56,0.59,15.36,1.77c3.79,1.18,6.87,3.27,9.23,6.27
		c2.36,2.93,4.02,6.68,4.98,11.24C442.69,445.85,443.16,451.99,443.16,459.71z M396.37,459.71c0,9.51,1.02,15.95,3.06,19.33
		c1.98,3.32,6.22,4.98,12.73,4.98s10.75-1.66,12.73-4.98c2.04-3.38,3.06-9.82,3.06-19.33c0-9.63-1.02-16.14-3.06-19.52
		c-2.04-3.38-6.28-5.07-12.73-5.07c-6.45,0-10.69,1.69-12.73,5.07C397.39,443.57,396.37,450.08,396.37,459.71z"/>
	<path class="st0" d="M455.89,422.58h12.15c0.96,0,1.43,0.48,1.43,1.44v59.53h31.39c0.96,0,1.44,0.48,1.44,1.44v10.24
		c0,0.96-0.48,1.44-1.44,1.44h-44.98c-0.96,0-1.43-0.51-1.43-1.53v-71.11C454.46,423.06,454.93,422.58,455.89,422.58z"/>
	<path class="st0" d="M541.54,422c5.8,0,9.63,0.64,11.48,1.91c1.72,1.21,3.32,4.4,4.79,9.57l16.84,61.63
		c0.19,1.02-0.22,1.53-1.24,1.53h-12.25c-0.38,0-0.65-0.1-0.81-0.29c-0.16-0.19-0.3-0.61-0.43-1.24l-5.45-19.91h-25.65l-5.55,19.91
		c-0.13,0.64-0.27,1.05-0.43,1.24c-0.16,0.19-0.46,0.29-0.91,0.29h-12.15c-1.02,0-1.44-0.51-1.24-1.53l17.13-61.63
		c1.47-5.17,3.06-8.36,4.79-9.57C532.29,422.64,535.99,422,541.54,422z M541.54,434.64c-0.77,0-1.28,0.16-1.53,0.48
		c-0.26,0.32-0.54,1.09-0.86,2.3l-6.99,25.36h18.95l-6.89-25.36c-0.45-1.53-0.9-2.39-1.34-2.58
		C542.63,434.7,542.18,434.64,541.54,434.64z"/>
	<path class="st0" d="M610.64,422c9.38,0,16.14,1.53,20.29,4.59s6.22,8.39,6.22,15.98c0,5.23-0.83,9.16-2.49,11.77
		c-1.66,2.62-4.43,4.27-8.33,4.98v0.29c4.53,0.57,7.73,2.22,9.62,4.93c1.88,2.71,2.82,6.81,2.82,12.3c0,7.59-2.01,12.89-6.03,15.89
		c-3.96,2.94-10.56,4.4-19.81,4.4c-11.68,0-21.34-0.32-29-0.96c-0.96-0.06-1.43-0.51-1.43-1.34V424.4c0-0.51,0.1-0.84,0.29-1.01
		c0.19-0.16,0.57-0.27,1.15-0.33C592.04,422.35,600.94,422,610.64,422z M609.11,435.11h-11.58v19.04h9.76
		c5.74,0,9.6-0.57,11.58-1.72c2.04-1.28,3.06-3.8,3.06-7.56c0-3.7-0.96-6.25-2.87-7.66C617.15,435.82,613.83,435.11,609.11,435.11z
		 M611.98,464.97h-14.45v19.04h14.36c4.34,0,7.37-0.67,9.09-2.01c1.72-1.34,2.58-3.73,2.58-7.18c0-3.7-0.89-6.27-2.68-7.7
		C619.09,465.69,616.12,464.97,611.98,464.97z"/>
	<path class="st0" d="M709.21,459.71c0,14.55-2.14,24.44-6.41,29.67c-4.34,5.17-12.54,7.75-24.59,7.75
		c-12.06,0-20.26-2.58-24.6-7.75c-4.28-5.23-6.41-15.12-6.41-29.67c0-7.72,0.48-13.86,1.44-18.42c0.96-4.56,2.62-8.31,4.98-11.24
		c2.36-3,5.44-5.09,9.24-6.27c3.79-1.18,8.92-1.77,15.36-1.77c6.44,0,11.56,0.59,15.36,1.77c3.79,1.18,6.87,3.27,9.23,6.27
		c2.36,2.93,4.02,6.68,4.98,11.24C708.73,445.85,709.21,451.99,709.21,459.71z M662.41,459.71c0,9.51,1.02,15.95,3.06,19.33
		c1.98,3.32,6.22,4.98,12.73,4.98c6.51,0,10.75-1.66,12.73-4.98c2.04-3.38,3.06-9.82,3.06-19.33c0-9.63-1.02-16.14-3.06-19.52
		c-2.04-3.38-6.28-5.07-12.73-5.07c-6.45,0-10.69,1.69-12.73,5.07C663.43,443.57,662.41,450.08,662.41,459.71z"/>
	<path class="st0" d="M747.39,422c10.65,0,17.96,1.76,21.92,5.26c4.08,3.45,6.12,9.89,6.12,19.33c0,7.21-1.09,12.47-3.25,15.79
		c-2.23,3.32-6.03,5.49-11.39,6.51l16.27,25.84c0.38,0.51,0.46,0.96,0.24,1.34c-0.23,0.38-0.69,0.57-1.39,0.57h-12.06
		c-1.6,0-2.87-0.7-3.83-2.11l-15.69-24.69h-8.81v25.26c0,0.64-0.1,1.05-0.29,1.24c-0.19,0.19-0.57,0.29-1.15,0.29h-12.15
		c-0.57,0-0.96-0.1-1.15-0.29c-0.19-0.19-0.29-0.61-0.29-1.24V424.4c0-0.51,0.1-0.84,0.29-1.01c0.19-0.16,0.57-0.27,1.15-0.33
		C730.04,422.35,738.52,422,747.39,422z M745.86,435.11h-10.34v23.16h10.34c5.87,0,9.73-0.67,11.58-2.01
		c1.85-1.47,2.78-4.56,2.78-9.28c0-4.78-0.96-7.94-2.87-9.47C755.49,435.91,751.67,435.11,745.86,435.11z"/>
	<path class="st0" d="M817.64,422c5.8,0,9.63,0.64,11.48,1.91c1.72,1.21,3.32,4.4,4.79,9.57l16.84,61.63
		c0.19,1.02-0.22,1.53-1.24,1.53h-12.25c-0.38,0-0.65-0.1-0.81-0.29c-0.16-0.19-0.3-0.61-0.43-1.24l-5.45-19.91h-25.65l-5.55,19.91
		c-0.13,0.64-0.27,1.05-0.43,1.24c-0.16,0.19-0.46,0.29-0.91,0.29h-12.15c-1.02,0-1.44-0.51-1.24-1.53l17.13-61.63
		c1.47-5.17,3.06-8.36,4.79-9.57C808.39,422.64,812.09,422,817.64,422z M817.64,434.64c-0.77,0-1.28,0.16-1.53,0.48
		c-0.26,0.32-0.54,1.09-0.86,2.3l-6.99,25.36h18.95l-6.89-25.36c-0.45-1.53-0.9-2.39-1.34-2.58
		C818.72,434.7,818.27,434.64,817.64,434.64z"/>
	<path class="st0" d="M887.78,422c11.16,0,19.11,2.94,23.83,8.8c4.78,5.87,7.18,15.47,7.18,28.81c0,13.4-2.39,23-7.18,28.81
		c-4.66,5.81-12.6,8.71-23.83,8.71c-10.85,0-20.1-0.32-27.75-0.96c-0.96-0.06-1.43-0.48-1.43-1.24V424.4c0-0.51,0.1-0.84,0.29-1.01
		c0.19-0.16,0.57-0.27,1.15-0.33C868.13,422.35,877.38,422,887.78,422z M887.02,435.11h-13.4v48.9h14.17
		c5.68,0,9.73-1.88,12.15-5.65c2.42-3.76,3.64-10.02,3.64-18.76c0-8.68-1.28-14.93-3.83-18.76
		C897.19,437.03,892.95,435.11,887.02,435.11z"/>
	<path class="st0" d="M989.61,459.71c0,14.55-2.14,24.44-6.41,29.67c-4.34,5.17-12.54,7.75-24.59,7.75
		c-12.06,0-20.26-2.58-24.6-7.75c-4.28-5.23-6.41-15.12-6.41-29.67c0-7.72,0.48-13.86,1.44-18.42c0.96-4.56,2.62-8.31,4.98-11.24
		c2.36-3,5.44-5.09,9.23-6.27c3.79-1.18,8.92-1.77,15.36-1.77c6.44,0,11.56,0.59,15.36,1.77c3.79,1.18,6.87,3.27,9.23,6.27
		c2.36,2.93,4.02,6.68,4.98,11.24C989.13,445.85,989.61,451.99,989.61,459.71z M942.81,459.71c0,9.51,1.02,15.95,3.06,19.33
		c1.98,3.32,6.22,4.98,12.73,4.98c6.51,0,10.75-1.66,12.73-4.98c2.04-3.38,3.06-9.82,3.06-19.33c0-9.63-1.02-16.14-3.06-19.52
		c-2.04-3.38-6.28-5.07-12.73-5.07c-6.45,0-10.69,1.69-12.73,5.07C943.83,443.57,942.81,450.08,942.81,459.71z"/>
	<path class="st0" d="M1027.79,422c10.65,0,17.96,1.76,21.92,5.26c4.08,3.45,6.12,9.89,6.12,19.33c0,7.21-1.09,12.47-3.25,15.79
		c-2.23,3.32-6.03,5.49-11.39,6.51l16.27,25.84c0.38,0.51,0.46,0.96,0.24,1.34c-0.23,0.38-0.69,0.57-1.39,0.57h-12.06
		c-1.6,0-2.87-0.7-3.83-2.11l-15.69-24.69h-8.81v25.26c0,0.64-0.1,1.05-0.29,1.24c-0.19,0.19-0.57,0.29-1.15,0.29h-12.15
		c-0.57,0-0.96-0.1-1.15-0.29c-0.19-0.19-0.29-0.61-0.29-1.24V424.4c0-0.51,0.1-0.84,0.29-1.01c0.19-0.16,0.57-0.27,1.15-0.33
		C1010.44,422.35,1018.92,422,1027.79,422z M1026.26,435.11h-10.34v23.16h10.34c5.87,0,9.73-0.67,11.58-2.01
		c1.85-1.47,2.78-4.56,2.78-9.28c0-4.78-0.96-7.94-2.87-9.47C1035.89,435.91,1032.07,435.11,1026.26,435.11z"/>
	<path class="st0" d="M1068.56,422.58h47.95c0.96,0,1.44,0.48,1.44,1.44v10.24c0,0.96-0.48,1.44-1.44,1.44h-34.36v18.09h31.39
		c1.02,0,1.53,0.48,1.53,1.44v9.76c0,0.96-0.51,1.44-1.53,1.44h-31.39v17.13h34.36c0.96,0,1.44,0.48,1.44,1.44v10.24
		c0,0.96-0.48,1.44-1.44,1.44h-47.95c-0.96,0-1.43-0.51-1.43-1.53v-71.11C1067.13,423.06,1067.6,422.58,1068.56,422.58z"/>
	<path class="st0" d="M1153.73,422c6.06,0,12.73,0.64,20,1.91c1.15,0.38,1.72,0.96,1.72,1.72v7.75c0,1.15-0.61,1.72-1.82,1.72
		h-22.68c-5.87,0-8.8,2.07-8.8,6.22v1.34c0,3.32,1.88,5.71,5.65,7.18l17.9,6.99c4.79,1.91,8.2,4.27,10.24,7.08
		c2.04,2.81,3.06,6.86,3.06,12.15v2.68c0,6.51-2.28,11.2-6.84,14.07c-4.56,2.87-11.47,4.31-20.72,4.31
		c-7.34,0-15.22-0.67-23.64-2.01c-1.09-0.32-1.63-1.02-1.63-2.1v-7.27c0-1.15,0.61-1.72,1.82-1.72h27.18c5.81,0,8.71-1.98,8.71-5.93
		v-1.24c0-2.04-0.51-3.64-1.53-4.79c-1.02-1.15-2.81-2.2-5.36-3.16l-18.66-6.99c-4.02-1.53-6.92-3.8-8.71-6.8
		c-1.79-3-2.68-7.24-2.68-12.73v-2.1c0-6.57,2.15-11.26,6.46-14.07C1137.7,423.41,1144.48,422,1153.73,422z"/>
	<path class="st0" d="M354.74,513.11c10.97,0,18.79,2.9,23.45,8.71c4.66,5.68,6.98,15.15,6.98,28.42c0,13.14-2.33,22.62-6.98,28.42
		c-4.66,5.74-12.47,8.61-23.45,8.61c-10.34,0-19.33-0.29-26.99-0.86c-0.57-0.06-0.96-0.16-1.15-0.29c-0.19-0.13-0.29-0.45-0.29-0.96
		v-69.96c0-0.51,0.1-0.84,0.29-1c0.19-0.16,0.57-0.27,1.15-0.34C335.02,513.37,344.02,513.11,354.74,513.11z M353.78,523.83h-15.12
		v52.73h16.08c6.44,0,11.05-2.04,13.83-6.13c2.78-4.08,4.16-10.81,4.16-20.19c0-9.44-1.45-16.2-4.35-20.29
		C365.47,525.87,360.61,523.83,353.78,523.83z"/>
	<path class="st0" d="M424.89,513.11c6.32,0,11.32,0.59,15.03,1.77c3.7,1.18,6.67,3.24,8.9,6.17c2.3,2.87,3.89,6.56,4.79,11.05
		c0.89,4.5,1.34,10.57,1.34,18.23s-0.45,13.7-1.34,18.14c-0.9,4.43-2.49,8.09-4.79,10.96c-2.23,2.87-5.22,4.9-8.95,6.08
		c-3.73,1.18-8.73,1.77-14.98,1.77c-6.19,0-11.15-0.59-14.88-1.77c-3.73-1.18-6.75-3.21-9.04-6.08c-2.3-2.81-3.89-6.46-4.79-10.96
		c-0.9-4.5-1.34-10.54-1.34-18.14c0-7.66,0.45-13.73,1.34-18.23c0.89-4.5,2.49-8.18,4.79-11.05c2.3-2.93,5.29-4.99,8.99-6.17
		C413.65,513.7,418.63,513.11,424.89,513.11z M407.28,550.34c0,10.4,1.12,17.39,3.35,20.96c2.17,3.51,6.92,5.26,14.26,5.26
		c7.33,0,12.09-1.75,14.26-5.26c2.3-3.57,3.44-10.56,3.44-20.96c0-10.53-1.15-17.54-3.44-21.05c-2.23-3.64-6.99-5.45-14.26-5.45
		c-7.27,0-12.03,1.82-14.26,5.45C408.39,532.86,407.28,539.88,407.28,550.34z"/>
	<path class="st0" d="M514.94,513.11c8.93,0,15.44,1.5,19.52,4.5c4.08,2.94,6.12,8.2,6.12,15.79c0,5.04-0.73,8.87-2.2,11.48
		c-1.47,2.62-3.89,4.28-7.27,4.98v0.29c4.02,0.57,6.9,2.28,8.66,5.12c1.75,2.84,2.63,6.88,2.63,12.11c0,7.59-1.98,12.82-5.93,15.69
		c-3.96,2.81-10.27,4.21-18.95,4.21c-11.16,0-20.58-0.29-28.23-0.86c-0.57-0.06-0.96-0.17-1.15-0.34c-0.19-0.16-0.29-0.49-0.29-1
		v-69.86c0-0.51,0.1-0.84,0.29-1c0.19-0.16,0.57-0.27,1.15-0.34C496.56,513.37,505.11,513.11,514.94,513.11z M513.79,523.83H500.2
		v21.72h10.81c6.89,0,11.45-0.61,13.69-1.82c2.36-1.21,3.54-4.15,3.54-8.8c0-4.27-1.07-7.19-3.21-8.76
		C522.9,524.61,519.15,523.83,513.79,523.83z M517.33,554.84H500.2v21.72h16.94c4.72,0,8.05-0.73,10-2.2
		c1.95-1.47,2.92-4.18,2.92-8.13c0-4.27-0.99-7.24-2.97-8.9C525.11,555.67,521.86,554.84,517.33,554.84z"/>
	<path class="st0" d="M578.48,513.11c10.85,0,18.31,1.59,22.39,4.78c4.02,3.13,6.03,9.47,6.03,19.04c0,7.4-1.15,12.73-3.44,15.98
		c-2.23,3.25-6.16,5.3-11.77,6.12l16.17,25.84c0.38,0.51,0.46,0.96,0.24,1.34c-0.22,0.38-0.69,0.57-1.39,0.57h-8.9
		c-1.6,0-2.87-0.7-3.83-2.11l-15.79-24.88l-11.68,0.1v25.46c0,0.57-0.1,0.96-0.29,1.15c-0.19,0.19-0.57,0.29-1.15,0.29h-9.48
		c-0.57,0-0.96-0.1-1.15-0.29c-0.19-0.19-0.29-0.57-0.29-1.15v-70.15c0-0.51,0.1-0.84,0.29-1c0.19-0.16,0.57-0.27,1.15-0.34
		C562.88,513.37,570.51,513.11,578.48,513.11z M577.33,523.83h-10.81v26.22h10.81c4.02,0,6.94-0.11,8.76-0.34
		c1.82-0.22,3.43-0.78,4.83-1.67c1.4-0.89,2.34-2.12,2.82-3.68c0.48-1.56,0.72-3.94,0.72-7.13c0-5.61-1.12-9.25-3.35-10.91
		C588.88,524.66,584.29,523.83,577.33,523.83z"/>
	<path class="st0" d="M644.42,513.11c5.36,0,8.84,0.61,10.43,1.82c1.66,1.28,3.19,4.4,4.59,9.38L676,585.27
		c0.19,1.02-0.19,1.53-1.15,1.53h-9.76c-0.64,0-1.09-0.51-1.34-1.53l-5.65-20.58h-27.27l-5.74,20.58c-0.25,1.02-0.67,1.53-1.24,1.53
		h-9.86c-0.96,0-1.34-0.51-1.15-1.53l17.04-60.96c1.47-4.98,2.97-8.07,4.5-9.28C636.03,513.75,639.38,513.11,644.42,513.11z
		 M644.42,523.54c-1.09,0-1.77,0.19-2.06,0.57c-0.29,0.38-0.72,1.5-1.29,3.35l-7.37,26.89h21.63l-7.18-26.89
		c-0.57-1.85-1.02-2.97-1.34-3.35C646.49,523.74,645.7,523.54,644.42,523.54z"/>
	<path class="st0" d="M708.44,513.11c5.42,0,11.83,0.54,19.24,1.63c1.02,0.19,1.53,0.7,1.53,1.53v5.93c0,1.09-0.48,1.63-1.43,1.63
		h-22.11c-7.15,0-10.72,2.46-10.72,7.37v1.53c0,2.17,0.46,3.88,1.39,5.12c0.92,1.25,2.6,2.38,5.02,3.4l19.43,7.75
		c4.4,1.79,7.51,4.02,9.33,6.7c1.82,2.68,2.73,6.41,2.73,11.2v2.97c0,6.83-2.55,11.55-7.66,14.17c-4.53,2.17-10.75,3.25-18.66,3.25
		c-7.85,0-15.69-0.57-23.54-1.72c-0.9-0.19-1.34-0.76-1.34-1.72v-5.74c0-1.02,0.51-1.53,1.53-1.53h26.7
		c7.08,0,10.62-2.39,10.62-7.18v-1.63c0-2.3-0.51-4.13-1.53-5.5c-1.02-1.37-2.87-2.6-5.55-3.68l-20.67-8.13
		c-3.7-1.34-6.32-3.41-7.85-6.22c-1.53-2.81-2.3-6.67-2.3-11.58v-2.2c0-6.7,2.18-11.26,6.56-13.69
		C693.53,514.33,699.96,513.11,708.44,513.11z"/>
	<path class="st0" d="M745.1,513.59h9.38c0.96,0,1.43,0.48,1.43,1.44v70.24c0,1.02-0.48,1.53-1.43,1.53h-9.38
		c-0.96,0-1.43-0.51-1.43-1.53v-70.24C743.66,514.07,744.14,513.59,745.1,513.59z"/>
	<path class="st0" d="M772.08,513.59h9.48c0.96,0,1.43,0.48,1.43,1.44v61.06h33.11c0.96,0,1.43,0.48,1.43,1.44v7.85
		c0,0.96-0.48,1.44-1.43,1.44h-44.02c-0.96,0-1.43-0.48-1.43-1.44v-70.34C770.65,514.07,771.13,513.59,772.08,513.59z"/>
</g>
<g>
	<path class="st0" d="M169.73,406.9h86.29v27.53h-86.29c-26.67,0-44.44,16.69-44.44,41.63c0,24.93,17.78,41.63,44.44,41.63h86.29
		v27.53h-86.29c-41.19,0-68.73-27.75-68.73-69.16S128.53,406.9,169.73,406.9z"/>
</g>
<g>
	<path class="st0" d="M294.33,593.44v23.65H183.51V463.79h27.82v129.65H294.33z"/>
</g>
</svg>
