<?xml version="1.0" encoding="utf-8"?>
<!-- Generator: Adobe Illustrator 24.3.0, SVG Export Plug-In . SVG Version: 6.00 Build 0)  -->
<svg version="1.1" id="Layer_1" xmlns="http://www.w3.org/2000/svg" xmlns:xlink="http://www.w3.org/1999/xlink" x="0px" y="0px"
	 viewBox="0 0 1077.2 165.8" style="enable-background:new 0 0 1077.2 165.8;" xml:space="preserve">
<style type="text/css">
	.st0{fill:#FFFFFF;}
</style>
<g>
	<path class="st0" d="M199.8,11.9c5.8,0,10.7,0.4,14.9,1.1c1.2,0.3,1.7,1,1.7,2v6c0,0.8-0.4,1.1-1.1,1.1h-15.5
		c-5.1,0-8.4,1.3-10,3.9c-1.5,2.7-2.3,7.8-2.3,15.3c0,7.7,0.8,12.8,2.3,15.4c1.6,2.6,4.9,3.9,10,3.9h15.5c0.8,0,1.1,0.4,1.1,1.1v6.1
		c0,1-0.6,1.7-1.7,2c-3.7,0.8-8.7,1.1-14.9,1.1c-5.1,0-9.1-0.5-12.1-1.4c-3-0.9-5.4-2.6-7.2-4.9c-1.8-2.4-3.1-5.3-3.8-8.9
		c-0.7-3.6-1.1-8.4-1.1-14.5c0-6,0.4-10.9,1.1-14.5c0.7-3.6,2-6.6,3.8-8.9c1.9-2.3,4.3-3.9,7.2-4.9
		C190.7,12.4,194.7,11.9,199.8,11.9z"/>
	<path class="st0" d="M269.9,41.7c0,11.5-1.7,19.3-5.1,23.4c-3.4,4.1-9.9,6.1-19.4,6.1c-9.5,0-16-2-19.4-6.1
		c-3.4-4.1-5.1-11.9-5.1-23.4c0-6.1,0.4-10.9,1.1-14.5c0.8-3.6,2.1-6.6,3.9-8.9c1.9-2.4,4.3-4,7.3-4.9c3-0.9,7-1.4,12.1-1.4
		c5.1,0,9.1,0.5,12.1,1.4c3,0.9,5.4,2.6,7.3,4.9c1.9,2.3,3.2,5.3,3.9,8.9C269.5,30.7,269.9,35.6,269.9,41.7z M233,41.7
		c0,7.5,0.8,12.6,2.4,15.2c1.6,2.6,4.9,3.9,10,3.9s8.5-1.3,10-3.9c1.6-2.7,2.4-7.7,2.4-15.2c0-7.6-0.8-12.7-2.4-15.4
		c-1.6-2.7-5-4-10-4c-5.1,0-8.4,1.3-10,4C233.8,28.9,233,34.1,233,41.7z"/>
	<path class="st0" d="M280,12.4h9.6c0.8,0,1.1,0.4,1.1,1.1v47h24.8c0.8,0,1.1,0.4,1.1,1.1v8.1c0,0.8-0.4,1.1-1.1,1.1H280
		c-0.8,0-1.1-0.4-1.1-1.2V13.5C278.8,12.7,279.2,12.4,280,12.4z"/>
	<path class="st0" d="M347.5,11.9c4.6,0,7.6,0.5,9.1,1.5c1.4,1,2.6,3.5,3.8,7.5l13.3,48.6c0.1,0.8-0.2,1.2-1,1.2H363
		c-0.3,0-0.5-0.1-0.6-0.2s-0.2-0.5-0.3-1l-4.3-15.7h-20.2l-4.4,15.7c-0.1,0.5-0.2,0.8-0.3,1s-0.4,0.2-0.7,0.2h-9.6
		c-0.8,0-1.1-0.4-1-1.2L335,21c1.2-4.1,2.4-6.6,3.8-7.5C340.2,12.4,343.1,11.9,347.5,11.9z M347.5,21.9c-0.6,0-1,0.1-1.2,0.4
		c-0.2,0.3-0.4,0.9-0.7,1.8l-5.5,20h14.9l-5.4-20c-0.4-1.2-0.7-1.9-1.1-2C348.4,21.9,348,21.9,347.5,21.9z"/>
	<path class="st0" d="M402,11.9c7.4,0,12.7,1.2,16,3.6s4.9,6.6,4.9,12.6c0,4.1-0.7,7.2-2,9.3c-1.3,2.1-3.5,3.4-6.6,3.9v0.2
		c3.6,0.4,6.1,1.8,7.6,3.9c1.5,2.1,2.2,5.4,2.2,9.7c0,6-1.6,10.2-4.8,12.5c-3.1,2.3-8.3,3.5-15.6,3.5c-9.2,0-16.8-0.3-22.9-0.8
		c-0.8,0-1.1-0.4-1.1-1.1V13.8c0-0.4,0.1-0.7,0.2-0.8c0.1-0.1,0.4-0.2,0.9-0.3C387.4,12.2,394.4,11.9,402,11.9z M400.8,22.3h-9.1v15
		h7.7c4.5,0,7.6-0.4,9.1-1.4c1.6-1,2.4-3,2.4-6c0-2.9-0.8-4.9-2.3-6C407.2,22.8,404.6,22.3,400.8,22.3z M403.1,45.8h-11.4v15H403
		c3.4,0,5.8-0.5,7.2-1.6c1.4-1.1,2-2.9,2-5.7c0-2.9-0.7-4.9-2.1-6.1C408.7,46.4,406.4,45.8,403.1,45.8z"/>
	<path class="st0" d="M479.8,41.7c0,11.5-1.7,19.3-5.1,23.4c-3.4,4.1-9.9,6.1-19.4,6.1c-9.5,0-16-2-19.4-6.1
		c-3.4-4.1-5.1-11.9-5.1-23.4c0-6.1,0.4-10.9,1.1-14.5c0.8-3.6,2.1-6.6,3.9-8.9c1.9-2.4,4.3-4,7.3-4.9c3-0.9,7-1.4,12.1-1.4
		c5.1,0,9.1,0.5,12.1,1.4c3,0.9,5.4,2.6,7.3,4.9c1.9,2.3,3.2,5.3,3.9,8.9C479.4,30.7,479.8,35.6,479.8,41.7z M442.9,41.7
		c0,7.5,0.8,12.6,2.4,15.2c1.6,2.6,4.9,3.9,10,3.9s8.5-1.3,10-3.9c1.6-2.7,2.4-7.7,2.4-15.2c0-7.6-0.8-12.7-2.4-15.4s-5-4-10-4
		c-5.1,0-8.4,1.3-10,4C443.7,28.9,442.9,34.1,442.9,41.7z"/>
	<path class="st0" d="M509.9,11.9c8.4,0,14.2,1.4,17.3,4.1c3.2,2.7,4.8,7.8,4.8,15.2c0,5.7-0.9,9.8-2.6,12.5c-1.8,2.6-4.8,4.3-9,5.1
		l12.8,20.4c0.3,0.4,0.4,0.8,0.2,1.1c-0.2,0.3-0.5,0.4-1.1,0.4h-9.5c-1.3,0-2.3-0.6-3-1.7l-12.4-19.5h-6.9v19.9c0,0.5-0.1,0.8-0.2,1
		c-0.1,0.1-0.4,0.2-0.9,0.2h-9.6c-0.4,0-0.8-0.1-0.9-0.2c-0.1-0.1-0.2-0.5-0.2-1V13.8c0-0.4,0.1-0.7,0.2-0.8
		c0.1-0.1,0.4-0.2,0.9-0.3C496.2,12.2,502.9,11.9,509.9,11.9z M508.7,22.3h-8.2v18.3h8.2c4.6,0,7.7-0.5,9.1-1.6
		c1.5-1.2,2.2-3.6,2.2-7.3c0-3.8-0.8-6.3-2.3-7.5C516.3,22.9,513.3,22.3,508.7,22.3z"/>
	<path class="st0" d="M565.3,11.9c4.6,0,7.6,0.5,9.1,1.5c1.4,1,2.6,3.5,3.8,7.5l13.3,48.6c0.1,0.8-0.2,1.2-1,1.2h-9.7
		c-0.3,0-0.5-0.1-0.6-0.2s-0.2-0.5-0.3-1l-4.3-15.7h-20.2l-4.4,15.7c-0.1,0.5-0.2,0.8-0.3,1c-0.1,0.1-0.4,0.2-0.7,0.2h-9.6
		c-0.8,0-1.1-0.4-1-1.2L552.8,21c1.2-4.1,2.4-6.6,3.8-7.5C558,12.4,561,11.9,565.3,11.9z M565.3,21.9c-0.6,0-1,0.1-1.2,0.4
		c-0.2,0.3-0.4,0.9-0.7,1.8l-5.5,20h14.9l-5.4-20c-0.4-1.2-0.7-1.9-1.1-2C566.2,21.9,565.8,21.9,565.3,21.9z"/>
	<path class="st0" d="M620.7,11.9c8.8,0,15.1,2.3,18.8,6.9c3.8,4.6,5.7,12.2,5.7,22.7c0,10.6-1.9,18.1-5.7,22.7
		c-3.7,4.6-9.9,6.9-18.8,6.9c-8.6,0-15.9-0.3-21.9-0.8c-0.8,0-1.1-0.4-1.1-1V13.8c0-0.4,0.1-0.7,0.2-0.8c0.1-0.1,0.4-0.2,0.9-0.3
		C605.2,12.2,612.5,11.9,620.7,11.9z M620.1,22.3h-10.6v38.6h11.2c4.5,0,7.7-1.5,9.6-4.5c1.9-3,2.9-7.9,2.9-14.8
		c0-6.8-1-11.8-3-14.8C628.1,23.8,624.7,22.3,620.1,22.3z"/>
	<path class="st0" d="M701,41.7c0,11.5-1.7,19.3-5.1,23.4c-3.4,4.1-9.9,6.1-19.4,6.1c-9.5,0-16-2-19.4-6.1
		c-3.4-4.1-5.1-11.9-5.1-23.4c0-6.1,0.4-10.9,1.1-14.5c0.8-3.6,2.1-6.6,3.9-8.9c1.9-2.4,4.3-4,7.3-4.9c3-0.9,7-1.4,12.1-1.4
		s9.1,0.5,12.1,1.4c3,0.9,5.4,2.6,7.3,4.9c1.9,2.3,3.2,5.3,3.9,8.9C700.6,30.7,701,35.6,701,41.7z M664.1,41.7
		c0,7.5,0.8,12.6,2.4,15.2c1.6,2.6,4.9,3.9,10,3.9s8.5-1.3,10-3.9c1.6-2.7,2.4-7.7,2.4-15.2c0-7.6-0.8-12.7-2.4-15.4s-5-4-10-4
		s-8.4,1.3-10,4S664.1,34.1,664.1,41.7z"/>
	<path class="st0" d="M731.1,11.9c8.4,0,14.2,1.4,17.3,4.1c3.2,2.7,4.8,7.8,4.8,15.2c0,5.7-0.9,9.8-2.6,12.5c-1.8,2.6-4.8,4.3-9,5.1
		l12.8,20.4c0.3,0.4,0.4,0.8,0.2,1.1c-0.2,0.3-0.5,0.4-1.1,0.4h-9.5c-1.3,0-2.3-0.6-3-1.7l-12.4-19.5h-6.9v19.9c0,0.5-0.1,0.8-0.2,1
		c-0.1,0.1-0.4,0.2-0.9,0.2H711c-0.4,0-0.8-0.1-0.9-0.2c-0.1-0.1-0.2-0.5-0.2-1V13.8c0-0.4,0.1-0.7,0.2-0.8c0.1-0.1,0.4-0.2,0.9-0.3
		C717.4,12.2,724.1,11.9,731.1,11.9z M729.9,22.3h-8.2v18.3h8.2c4.6,0,7.7-0.5,9.1-1.6c1.5-1.2,2.2-3.6,2.2-7.3
		c0-3.8-0.8-6.3-2.3-7.5C737.5,22.9,734.5,22.3,729.9,22.3z"/>
	<path class="st0" d="M763.3,12.4h37.8c0.8,0,1.1,0.4,1.1,1.1v8.1c0,0.8-0.4,1.1-1.1,1.1H774V37h24.8c0.8,0,1.2,0.4,1.2,1.1v7.7
		c0,0.8-0.4,1.1-1.2,1.1H774v13.5h27.1c0.8,0,1.1,0.4,1.1,1.1v8.1c0,0.8-0.4,1.1-1.1,1.1h-37.8c-0.8,0-1.1-0.4-1.1-1.2V13.5
		C762.1,12.7,762.5,12.4,763.3,12.4z"/>
	<path class="st0" d="M830.5,11.9c4.8,0,10,0.5,15.8,1.5c0.9,0.3,1.4,0.8,1.4,1.4v6.1c0,0.9-0.5,1.4-1.4,1.4h-17.9
		c-4.6,0-6.9,1.6-6.9,4.9v1.1c0,2.6,1.5,4.5,4.5,5.7l14.1,5.5c3.8,1.5,6.5,3.4,8.1,5.6s2.4,5.4,2.4,9.6v2.1c0,5.1-1.8,8.8-5.4,11.1
		c-3.6,2.3-9,3.4-16.3,3.4c-5.8,0-12-0.5-18.6-1.6c-0.9-0.3-1.3-0.8-1.3-1.7v-5.7c0-0.9,0.5-1.4,1.4-1.4h21.4c4.6,0,6.9-1.6,6.9-4.7
		v-1c0-1.6-0.4-2.9-1.2-3.8c-0.8-0.9-2.2-1.7-4.2-2.5l-14.7-5.5c-3.2-1.2-5.5-3-6.9-5.4c-1.4-2.4-2.1-5.7-2.1-10v-1.7
		c0-5.2,1.7-8.9,5.1-11.1C817.8,13,823.2,11.9,830.5,11.9z"/>
	<path class="st0" d="M200.2,83.8c8.7,0,14.8,2.3,18.5,6.9c3.7,4.5,5.5,12,5.5,22.4c0,10.4-1.8,17.8-5.5,22.4
		c-3.7,4.5-9.8,6.8-18.5,6.8c-8.2,0-15.2-0.2-21.3-0.7c-0.4,0-0.8-0.1-0.9-0.2c-0.1-0.1-0.2-0.4-0.2-0.8V85.4c0-0.4,0.1-0.7,0.2-0.8
		c0.1-0.1,0.4-0.2,0.9-0.3C184.6,84,191.7,83.8,200.2,83.8z M199.4,92.2h-11.9v41.6h12.7c5.1,0,8.7-1.6,10.9-4.8
		c2.2-3.2,3.3-8.5,3.3-15.9c0-7.4-1.1-12.8-3.4-16C208.6,93.9,204.8,92.2,199.4,92.2z"/>
	<path class="st0" d="M255.5,83.8c5,0,8.9,0.5,11.9,1.4c2.9,0.9,5.3,2.6,7,4.9c1.8,2.3,3.1,5.2,3.8,8.7c0.7,3.5,1.1,8.3,1.1,14.4
		s-0.4,10.8-1.1,14.3c-0.7,3.5-2,6.4-3.8,8.6c-1.8,2.3-4.1,3.9-7.1,4.8c-2.9,0.9-6.9,1.4-11.8,1.4c-4.9,0-8.8-0.5-11.7-1.4
		c-2.9-0.9-5.3-2.5-7.1-4.8c-1.8-2.2-3.1-5.1-3.8-8.6c-0.7-3.5-1.1-8.3-1.1-14.3c0-6,0.4-10.8,1.1-14.4c0.7-3.5,2-6.5,3.8-8.7
		c1.8-2.3,4.2-3.9,7.1-4.9C246.6,84.3,250.6,83.8,255.5,83.8z M241.6,113.2c0,8.2,0.9,13.7,2.6,16.5c1.7,2.8,5.5,4.1,11.2,4.1
		c5.8,0,9.5-1.4,11.2-4.1c1.8-2.8,2.7-8.3,2.7-16.5c0-8.3-0.9-13.8-2.7-16.6c-1.8-2.9-5.5-4.3-11.2-4.3s-9.5,1.4-11.2,4.3
		C242.5,99.4,241.6,104.9,241.6,113.2z"/>
	<path class="st0" d="M326.5,83.8c7,0,12.2,1.2,15.4,3.5c3.2,2.3,4.8,6.5,4.8,12.5c0,4-0.6,7-1.7,9.1c-1.2,2.1-3.1,3.4-5.7,3.9v0.2
		c3.2,0.4,5.4,1.8,6.8,4c1.4,2.2,2.1,5.4,2.1,9.6c0,6-1.6,10.1-4.7,12.4c-3.1,2.2-8.1,3.3-14.9,3.3c-8.8,0-16.2-0.2-22.3-0.7
		c-0.4,0-0.8-0.1-0.9-0.3c-0.1-0.1-0.2-0.4-0.2-0.8V85.4c0-0.4,0.1-0.7,0.2-0.8c0.1-0.1,0.4-0.2,0.9-0.3
		C312,84,318.8,83.8,326.5,83.8z M325.6,92.2h-10.7v17.1h8.5c5.4,0,9-0.5,10.8-1.4c1.9-1,2.8-3.3,2.8-6.9c0-3.4-0.8-5.7-2.5-6.9
		C332.8,92.9,329.9,92.2,325.6,92.2z M328.4,116.7h-13.5v17.1h13.4c3.7,0,6.4-0.6,7.9-1.7c1.5-1.2,2.3-3.3,2.3-6.4
		c0-3.4-0.8-5.7-2.3-7C334.6,117.4,332,116.7,328.4,116.7z"/>
	<path class="st0" d="M376.7,83.8c8.6,0,14.4,1.3,17.7,3.8c3.2,2.5,4.8,7.5,4.8,15c0,5.8-0.9,10-2.7,12.6c-1.8,2.6-4.9,4.2-9.3,4.8
		l12.8,20.4c0.3,0.4,0.4,0.8,0.2,1.1c-0.2,0.3-0.5,0.4-1.1,0.4h-7c-1.3,0-2.3-0.6-3-1.7l-12.5-19.6l-9.2,0.1v20.1
		c0,0.4-0.1,0.8-0.2,0.9s-0.4,0.2-0.9,0.2h-7.5c-0.4,0-0.8-0.1-0.9-0.2c-0.1-0.1-0.2-0.4-0.2-0.9V85.4c0-0.4,0.1-0.7,0.2-0.8
		c0.1-0.1,0.4-0.2,0.9-0.3C364.4,84,370.4,83.8,376.7,83.8z M375.8,92.2h-8.5v20.7h8.5c3.2,0,5.5-0.1,6.9-0.3
		c1.4-0.2,2.7-0.6,3.8-1.3c1.1-0.7,1.8-1.7,2.2-2.9s0.6-3.1,0.6-5.6c0-4.4-0.9-7.3-2.6-8.6C384.9,92.9,381.2,92.2,375.8,92.2z"/>
	<path class="st0" d="M428.7,83.8c4.2,0,7,0.5,8.2,1.4c1.3,1,2.5,3.5,3.6,7.4l13.1,48.1c0.1,0.8-0.1,1.2-0.9,1.2H445
		c-0.5,0-0.9-0.4-1.1-1.2l-4.5-16.2H418l-4.5,16.2c-0.2,0.8-0.5,1.2-1,1.2h-7.8c-0.8,0-1.1-0.4-0.9-1.2l13.4-48.1
		c1.2-3.9,2.3-6.4,3.5-7.3C422.1,84.3,424.7,83.8,428.7,83.8z M428.7,92c-0.9,0-1.4,0.1-1.6,0.4c-0.2,0.3-0.6,1.2-1,2.6l-5.8,21.2
		h17.1l-5.7-21.2c-0.4-1.5-0.8-2.3-1.1-2.6C430.3,92.2,429.7,92,428.7,92z"/>
	<path class="st0" d="M479.2,83.8c4.3,0,9.3,0.4,15.2,1.3c0.8,0.1,1.2,0.6,1.2,1.2V91c0,0.9-0.4,1.3-1.1,1.3H477
		c-5.6,0-8.5,1.9-8.5,5.8v1.2c0,1.7,0.4,3.1,1.1,4c0.7,1,2.1,1.9,4,2.7l15.3,6.1c3.5,1.4,5.9,3.2,7.4,5.3c1.4,2.1,2.2,5.1,2.2,8.8
		v2.3c0,5.4-2,9.1-6,11.2c-3.6,1.7-8.5,2.6-14.7,2.6c-6.2,0-12.4-0.4-18.6-1.4c-0.7-0.1-1.1-0.6-1.1-1.4v-4.5c0-0.8,0.4-1.2,1.2-1.2
		h21.1c5.6,0,8.4-1.9,8.4-5.7v-1.3c0-1.8-0.4-3.3-1.2-4.3c-0.8-1.1-2.3-2.1-4.4-2.9l-16.3-6.4c-2.9-1.1-5-2.7-6.2-4.9
		c-1.2-2.2-1.8-5.3-1.8-9.1v-1.7c0-5.3,1.7-8.9,5.2-10.8C467.4,84.7,472.5,83.8,479.2,83.8z"/>
	<path class="st0" d="M508.1,84.2h7.4c0.8,0,1.1,0.4,1.1,1.1v55.4c0,0.8-0.4,1.2-1.1,1.2h-7.4c-0.8,0-1.1-0.4-1.1-1.2V85.3
		C507,84.5,507.3,84.2,508.1,84.2z"/>
	<path class="st0" d="M529.4,84.2h7.5c0.8,0,1.1,0.4,1.1,1.1v48.2h26.1c0.8,0,1.1,0.4,1.1,1.1v6.2c0,0.8-0.4,1.1-1.1,1.1h-34.7
		c-0.8,0-1.1-0.4-1.1-1.1V85.3C528.3,84.5,528.6,84.2,529.4,84.2z"/>
</g>
<g>
	<path class="st0" d="M54.2,0h68.1v21.7H54.2c-21,0-35.1,13.2-35.1,32.8c0,19.7,14,32.8,35.1,32.8h68.1v21.7H54.2
		C21.7,109.1,0,87.2,0,54.6S21.7,0,54.2,0z"/>
</g>
<g>
	<path class="st0" d="M152.5,147.2v18.7H65.1V44.9H87v102.3H152.5z"/>
</g>
</svg>
