<?xml version="1.0" encoding="utf-8"?>
<!-- Generator: Adobe Illustrator 26.3.1, SVG Export Plug-In . SVG Version: 6.00 Build 0)  -->
<svg version="1.1" id="Layer_1" xmlns="http://www.w3.org/2000/svg" xmlns:xlink="http://www.w3.org/1999/xlink" x="0px" y="0px"
	 viewBox="0 0 1364 451" style="enable-background:new 0 0 1364 451;" xml:space="preserve">
<style type="text/css">
	.st0{fill-rule:evenodd;clip-rule:evenodd;fill:#FFFFFF;}
	.st1{fill:#FFFFFF;}
</style>
<path class="st0" d="M197.83,207.25V379.7h86.05c6.83,0,12.1,1.84,15.78,5.62c3.67,3.79,5.51,8.49,5.51,14.23
	c0,5.79-1.84,10.5-5.45,14.11c-3.61,3.56-8.89,5.39-15.83,5.39H181.37c-9.24,0-15.83-2.35-19.91-6.94
	c-4.07-4.65-6.08-12.16-6.08-22.43V207.25c0-9.64,1.95-16.92,5.79-21.8c3.84-4.82,8.95-7.23,15.2-7.23c6.37,0,11.53,2.35,15.49,7.11
	C195.82,190.16,197.83,197.5,197.83,207.25z"/>
<path class="st0" d="M36.58,216.03c12.05,41.88,44.63,72.22,81.57,88.97c31.84,14.34,67.98,16.06,101.82,9.24
	c22.26-4.47,41.65-12.16,61.44-24.04c5.28-3.16,13.19-7.46,17.96-10.96c6.6-4.82,7.4-14.57,4.47-21.91
	c-7.17-18.13-23.46-6.02-37.23,0.11c-30.29,13.65-60.75,21.91-94.02,18.7c-28.17-2.7-57.77-14.74-77.79-36.71
	c-21.28-23.41-31.61-56.91-20.08-88.29c9.75-26.45,33.79-47.44,58.05-57.88c30.81-13.19,65.45-11.93,97.12-3.1
	c11.93,3.33,30.4,9.75,40.84,16.35c6.31,4.02,12.74,7.63,20.31,8.03c9.41,0.46,12.91-3.79,15.95-12.45v-6.08
	c-1.43-2.29-1.95-4.7-3.9-7.34c-6.94-9.52-36.6-24.61-46.24-28.97C145.23,9.4-1,85.98,36.58,216.03z"/>
<path class="st0" d="M78.97,105.6c0.57,1.72,2.01,3.38,3.33,4.53c1.84-0.63,3.27-2.29,4.3-4.02c-0.46-1.89-1.95-3.33-3.38-4.65
	C81.55,102.16,79.95,104.05,78.97,105.6z"/>
<path class="st0" d="M150.33,62.29c-0.23,1.95,0.17,3.96,0.63,5.91c2.18,0.4,3.61-0.23,5.62-0.8c0.23-1.84-0.06-4.47-0.75-6.08
	C153.95,61.03,152,61.37,150.33,62.29z"/>
<path class="st0" d="M197.32,66.65c0.46-1.89,0.92-4.59,0.46-6.02l-5.22-1.09C189.97,65.56,191.92,67.28,197.32,66.65z"/>
<path class="st0" d="M110.87,79.9l1.95,5.28c2.18-0.06,3.61-1.15,5.39-2.47c-0.23-1.95-1.26-3.9-2.07-5.62
	C114.25,77.38,112.24,78.3,110.87,79.9z"/>
<path class="st0" d="M110.75,282.06c1.43,1.66,3.44,2.58,5.34,2.87c0.86-1.66,1.89-3.67,2.12-5.56c-1.84-1.32-3.21-2.41-5.51-2.52
	L110.75,282.06z"/>
<path class="st0" d="M78.97,256.42c0.98,1.78,2.41,3.38,4.19,4.07l3.56-3.96c-0.69-2.12-2.52-4.02-4.42-4.65
	C80.98,253.15,79.54,254.7,78.97,256.42z"/>
<path class="st0" d="M150.33,299.73c1.61,0.92,3.61,1.26,5.45,1.03l1.15-5.85c-1.84-0.98-4.02-1.38-5.97-1.09
	C150.51,295.77,150.1,297.84,150.33,299.73z"/>
<path class="st0" d="M191.52,296.46c0.06,1.95,0.23,4.25,0.98,5.85l5.34-0.69c0.4-1.55,0.06-4.59-0.63-6.2
	C195.19,295.14,193.19,295.31,191.52,296.46z"/>
<g>
	<path class="st1" d="M391.5,114.57c18.39,0,32.26,10.35,36.67,27.09h-20.7c-3.19-6.61-9.03-9.91-16.19-9.91
		c-11.56,0-19.49,8.59-19.49,22.24s7.93,22.24,19.49,22.24c7.16,0,12.99-3.3,16.19-9.91h20.7c-4.4,16.74-18.28,26.98-36.67,26.98
		c-22.79,0-38.87-16.19-38.87-39.31S368.71,114.57,391.5,114.57z"/>
	<path class="st1" d="M476.28,193.52c-21.91,0-39.75-16.41-39.75-39.64c0-23.23,17.84-39.53,39.75-39.53
		c22.02,0,39.53,16.3,39.53,39.53C515.81,177.11,498.19,193.52,476.28,193.52z M476.28,176.34c12.33,0,20.37-8.92,20.37-22.46
		c0-13.76-8.04-22.46-20.37-22.46c-12.55,0-20.48,8.7-20.48,22.46C455.8,167.43,463.73,176.34,476.28,176.34z"/>
	<path class="st1" d="M545.1,115.45v62.76h24.66v14.53h-43.49v-77.3H545.1z"/>
	<path class="st1" d="M626.9,179.1h-28.85l-4.62,13.65h-19.71l27.97-77.3h21.8l27.97,77.3h-19.93L626.9,179.1z M612.48,136.26
		l-9.47,28.3h19.05L612.48,136.26z"/>
	<path class="st1" d="M695.94,192.75h-36v-77.3h34.79c15.75,0,25.11,7.82,25.11,20.04c0,9.36-5.62,15.42-13.1,17.62
		c9.03,1.87,14.87,9.8,14.87,18.61C721.6,184.49,712.24,192.75,695.94,192.75z M691.1,130.54h-12.33v16.19h12.33
		c6.17,0,9.58-2.75,9.58-8.04S697.26,130.54,691.1,130.54z M692.42,160.49h-13.65v17.07h13.87c6.28,0,9.91-2.86,9.91-8.37
		S698.69,160.49,692.42,160.49z"/>
	<path class="st1" d="M769.05,193.52c-21.91,0-39.75-16.41-39.75-39.64c0-23.23,17.84-39.53,39.75-39.53
		c22.02,0,39.53,16.3,39.53,39.53C808.58,177.11,790.96,193.52,769.05,193.52z M769.05,176.34c12.33,0,20.37-8.92,20.37-22.46
		c0-13.76-8.04-22.46-20.37-22.46c-12.55,0-20.48,8.7-20.48,22.46C748.57,167.43,756.5,176.34,769.05,176.34z"/>
	<path class="st1" d="M850.64,115.45c18.94,0,28.41,10.9,28.41,24.33c0,9.69-5.29,18.83-17.18,22.35l17.84,30.61h-21.25
		l-16.08-29.18h-4.51v29.18h-18.83v-77.3H850.64z M849.54,131.09h-11.67v19.16h11.67c7.05,0,10.35-3.63,10.35-9.69
		C859.89,134.83,856.58,131.09,849.54,131.09z"/>
	<path class="st1" d="M938.94,179.1h-28.85l-4.62,13.65h-19.71l27.97-77.3h21.8l27.97,77.3h-19.93L938.94,179.1z M924.52,136.26
		l-9.47,28.3h19.05L924.52,136.26z"/>
	<path class="st1" d="M1041.45,154.1c0,22.9-15.86,38.65-40.52,38.65h-28.96v-77.3h28.96
		C1025.59,115.45,1041.45,131.09,1041.45,154.1z M999.72,176.45c14.2,0,22.57-8.15,22.57-22.35c0-14.2-8.37-22.57-22.57-22.57h-8.92
		v44.92H999.72z"/>
	<path class="st1" d="M1088.57,193.52c-21.91,0-39.75-16.41-39.75-39.64c0-23.23,17.84-39.53,39.75-39.53
		c22.02,0,39.53,16.3,39.53,39.53C1128.1,177.11,1110.49,193.52,1088.57,193.52z M1088.57,176.34c12.33,0,20.37-8.92,20.37-22.46
		c0-13.76-8.04-22.46-20.37-22.46c-12.55,0-20.48,8.7-20.48,22.46C1068.09,167.43,1076.02,176.34,1088.57,176.34z"/>
	<path class="st1" d="M1170.16,115.45c18.94,0,28.41,10.9,28.41,24.33c0,9.69-5.29,18.83-17.18,22.35l17.84,30.61h-21.25
		l-16.08-29.18h-4.51v29.18h-18.83v-77.3H1170.16z M1169.06,131.09h-11.67v19.16h11.67c7.05,0,10.35-3.63,10.35-9.69
		C1179.41,134.83,1176.11,131.09,1169.06,131.09z"/>
	<path class="st1" d="M1257.69,130.54h-28.52v15.64h25.21v14.53h-25.21v16.96h28.52v15.08h-47.35v-77.3h47.35V130.54z"/>
	<path class="st1" d="M1297.88,193.52c-16.63,0-29.62-8.26-30.17-23.89h20.04c0.55,5.95,4.29,8.81,9.58,8.81
		c5.51,0,9.03-2.75,9.03-7.27c0-14.31-38.65-6.61-38.43-34.02c0-14.64,12-22.79,28.19-22.79c16.85,0,28.19,8.37,28.96,23.12h-20.37
		c-0.33-4.95-3.85-7.93-8.92-8.04c-4.51-0.11-7.93,2.2-7.93,7.05c0,13.43,38.21,7.38,38.21,33.25
		C1326.07,182.73,1315.94,193.52,1297.88,193.52z"/>
	<path class="st1" d="M425.3,260.1c0,22.9-15.86,38.65-40.52,38.65h-28.96v-77.3h28.96C409.45,221.45,425.3,237.09,425.3,260.1z
		 M383.57,282.45c14.2,0,22.57-8.15,22.57-22.35s-8.37-22.57-22.57-22.57h-8.92v44.92H383.57z"/>
	<path class="st1" d="M472.43,299.52c-21.91,0-39.75-16.41-39.75-39.64c0-23.23,17.84-39.53,39.75-39.53
		c22.02,0,39.53,16.3,39.53,39.53C511.96,283.12,494.34,299.52,472.43,299.52z M472.43,282.34c12.33,0,20.37-8.92,20.37-22.46
		c0-13.76-8.04-22.46-20.37-22.46c-12.55,0-20.48,8.7-20.48,22.46C451.95,273.43,459.88,282.34,472.43,282.34z"/>
	<path class="st1" d="M581.76,298.75h-36v-77.3h34.79c15.75,0,25.11,7.82,25.11,20.04c0,9.36-5.62,15.42-13.1,17.62
		c9.03,1.87,14.87,9.8,14.87,18.61C607.42,290.49,598.06,298.75,581.76,298.75z M576.92,236.54h-12.33v16.19h12.33
		c6.17,0,9.58-2.75,9.58-8.04S583.08,236.54,576.92,236.54z M578.24,266.49h-13.65v17.07h13.87c6.28,0,9.91-2.86,9.91-8.37
		C588.37,269.68,584.51,266.49,578.24,266.49z"/>
	<path class="st1" d="M649.92,221.45c18.94,0,28.41,10.9,28.41,24.33c0,9.69-5.29,18.83-17.18,22.35l17.84,30.61h-21.25
		l-16.08-29.18h-4.51v29.18h-18.83v-77.3H649.92z M648.81,237.09h-11.67v19.16h11.67c7.05,0,10.35-3.63,10.35-9.69
		C659.17,240.83,655.86,237.09,648.81,237.09z"/>
	<path class="st1" d="M738.22,285.1h-28.85l-4.62,13.65h-19.71l27.97-77.3h21.8l27.97,77.3h-19.93L738.22,285.1z M723.8,242.26
		l-9.47,28.3h19.05L723.8,242.26z"/>
	<path class="st1" d="M799.22,299.52c-16.63,0-29.62-8.26-30.17-23.89h20.04c0.55,5.95,4.29,8.81,9.58,8.81
		c5.51,0,9.03-2.75,9.03-7.27c0-14.31-38.65-6.61-38.43-34.02c0-14.64,12-22.79,28.19-22.79c16.85,0,28.19,8.37,28.96,23.12h-20.37
		c-0.33-4.96-3.85-7.93-8.92-8.04c-4.51-0.11-7.93,2.2-7.93,7.05c0,13.43,38.21,7.38,38.21,33.25
		C827.41,288.73,817.28,299.52,799.22,299.52z"/>
	<path class="st1" d="M838.96,221.45h18.83v77.3h-18.83V221.45z"/>
	<path class="st1" d="M890.27,221.45v62.76h24.66v14.53h-43.49v-77.3H890.27z"/>
</g>
</svg>
