<?xml version="1.0" encoding="utf-8"?>
<!-- Generator: Adobe Illustrator 24.3.0, SVG Export Plug-In . SVG Version: 6.00 Build 0)  -->
<svg version="1.1" id="Camada_1" xmlns="http://www.w3.org/2000/svg" xmlns:xlink="http://www.w3.org/1999/xlink" x="0px" y="0px"
	 viewBox="0 0 240.9 22.7" style="enable-background:new 0 0 240.9 22.7;" xml:space="preserve">
<style type="text/css">
	.st0{fill:#18955E;}
</style>
<g>
	<path class="st0" d="M28.5,15.2c-0.4-0.4-1,0.2-0.8,0.7c0.2,0.5,1.1,0.4,1.1-0.1C28.8,15.6,28.7,15.3,28.5,15.2"/>
	<path class="st0" d="M117,15.4c-0.2-0.1-0.5-0.1-0.7,0l0,0c-0.2,0.1-0.1,0.2,0.3,0.1C117,15.6,117.2,15.5,117,15.4"/>
	<path class="st0" d="M111.9,15.7c-0.2,0.1,0,0.2,0.4,0.1c0.5,0,0.7-0.1,0.4-0.2C112.5,15.6,112.1,15.6,111.9,15.7"/>
	<path class="st0" d="M110.2,15.9c-0.2-0.1-0.4-0.1-0.6,0c-0.2,0.1,0,0.2,0.3,0.1C110.2,16,110.3,15.9,110.2,15.9"/>
	<path class="st0" d="M108.1,15.6c-0.1-0.1-0.3-0.1-0.5,0c-0.2,0.1-0.1,0.2,0.2,0.2C108,15.8,108.2,15.7,108.1,15.6"/>
	<path class="st0" d="M86.4,18.8c0.3,0.4,0.6,0.3,0.6-0.3c0-0.6-1.6-0.9-3.3-0.8c-0.8,0.1-0.7,0.1,0.8,0.4
		C85.4,18.4,86.3,18.7,86.4,18.8"/>
	<path class="st0" d="M100.8,15.6c-0.5-0.1-1.3,0-1.8,0.1c-0.5,0.1-0.1,0.1,0.9,0.1S101.3,15.6,100.8,15.6"/>
	<path class="st0" d="M42.4,19.2L42.4,19.2c0.3,0.1,0.6,0.3,0.7,0.3c0,0,0.1-0.1,0.1-0.4s-0.3-0.4-0.7-0.3l-0.7,0.1L42.4,19.2z"/>
	<path class="st0" d="M35.7,13.1c-0.1,0.1,1,0.6,2.7,1.2c3.3,1.1,3.7,1.2,3.4,0.7C41.4,14.5,36,12.9,35.7,13.1"/>
	<path class="st0" d="M34.4,12.6c0.1,0,0-0.2-0.4-0.5c-0.3-0.3-0.7-0.5-0.9-0.5c-0.1,0,0,0.2,0.4,0.5C33.9,12.4,34.2,12.6,34.4,12.6
		"/>
	<path class="st0" d="M43.6,19.4c0.2,0.1,1.7,0.4,3.3,0.4s3,0.1,3,0.2c0.2,0.3,0.5,0.2,0.5-0.2c0-0.4-1.3-0.5-5.1-0.7
		C44.1,19.1,43.4,19.3,43.6,19.4"/>
	<path class="st0" d="M46,16.2c0.3,0,0.3-0.1,0-0.4c-0.2-0.2-0.5-0.4-0.7-0.4c-0.3,0-0.3,0.1,0,0.4C45.5,16.1,45.8,16.2,46,16.2"/>
	<path class="st0" d="M81.3,18.2L79.8,18c-1.7-0.2-6.3-0.4-5.6-0.2c0.3,0.1,1.4,0.2,2.4,0.4l0,0c1.1,0.1,2.6,0.1,3.3,0.1L81.3,18.2z
		"/>
	<path class="st0" d="M127.3,22.7c-0.1,0.1,0.6,0.1,1.5,0.1c0.9-0.1,1.7-0.3,1.7-0.4C130.6,21.9,127.5,22.3,127.3,22.7"/>
	<path class="st0" d="M240.9,11.3c-2.1,0.5-3.3,0.5-5.5,0.8c-2.4,0.4-2-0.3-2.6,0.4c-0.2,0.2-4.1-0.1-6.1-0.5
		c-0.8-0.1-0.9-0.1-0.7,0.5c0.1,0.6,0.1,0.7-0.6,0.5c-0.4-0.1-2-0.2-3.5-0.2s-3.6-0.1-4.6-0.1c-1-0.1-1.7,0.1-1.6,0.2
		c0.1,0.1,0.3,0.3,0.5,0.3s1.3,0.1,2.5,0.1s3,0.2,4,0.2c1,0.1,1.9,0.1,1.9,0.3c0.2,0.3,10.6-0.5,13.6-1.1c1.1-0.2,2-0.4,2.7-0.5"/>
	<path class="st0" d="M185.1,18.1L185.1,18.1c-0.3,0.1-0.1,0.1,0.4,0.1s0.8-0.1,0.5-0.2C185.9,18,185.4,18,185.1,18.1"/>
	<path class="st0" d="M189.7,18.2l-1.5,0.1l1.7,0.1c0.9,0.1,2.1,0.1,2.6,0.1c0.7,0,0.7-0.1-0.2-0.3
		C191.7,18.2,190.5,18.1,189.7,18.2"/>
	<path class="st0" d="M212.7,16c-0.2,0.1-0.1,0.2,0.2,0.2s0.4-0.1,0.3-0.2C213,15.9,212.8,15.9,212.7,16"/>
	<path class="st0" d="M196.2,18.5c-1-0.1-1.9,0-2.1,0.1c-0.2,0.1,0.5,0.3,1.5,0.3c4.4,0.1,6.8-0.1,9.9-0.9c1.8-0.4,3.4-0.9,3.4-0.9
		s-1.3,0-2.9,0.1c-1.8,0.1-2.6,0.3-1.9,0.4l1.1,0.1l-1.6,0.4C201.8,18.5,198.6,18.8,196.2,18.5"/>
	<path class="st0" d="M171.7,17.7L171.7,17.7c-0.2,0.1-0.1,0.2,0.2,0.2s0.4-0.1,0.3-0.2C172.1,17.7,171.9,17.7,171.7,17.7"/>
	<path class="st0" d="M176.7,17.9c-0.2,0.1,0,0.2,0.4,0.1c0.5,0,0.7-0.1,0.4-0.2C177.3,17.7,177,17.7,176.7,17.9"/>
	<path class="st0" d="M210.6,16.7c0.7,0,1-0.1,0.7-0.2s-0.9-0.1-1.2,0.1C209.7,16.7,210,16.7,210.6,16.7"/>
	<path class="st0" d="M166.4,17.7c-0.2,0.1,0,0.2,0.3,0.1c0.3,0,0.5-0.1,0.3-0.2S166.5,17.6,166.4,17.7"/>
	<path class="st0" d="M159.5,17.4c-0.4,0.1-0.1,0.1,0.8,0.1c0.9-0.1,1.2-0.1,0.8-0.2C160.7,17.2,160,17.2,159.5,17.4"/>
	<path class="st0" d="M162.6,17.6L162.6,17.6c-0.2,0.1-0.1,0.2,0.3,0.1c0.4,0,0.6-0.1,0.4-0.2C163.2,17.5,162.8,17.5,162.6,17.6"/>
	<path class="st0" d="M240.9,5.7c-0.8,0.6-2.7,1-7.4,0.8c-1.6,0.2-3.2,0.4-4.7,0.6l0.4-0.8c0.3-0.7,0.8-0.9,2.3-1.1
		c1.3-0.2,2-0.4,2.3-0.9c0.2-0.4,1.1-0.9,1.9-1.2c0.9-0.3,1.6-0.9,1.9-1.3C238,1,238,1.2,238.3,1c0.9-0.7,2.2,2,2.5,1.3
		c0-0.1,0.1-0.3,0.1-0.6c0,0,0,0,0-1.6H0c0,1.3,0,2.5,0,2.8c1.1,0.4,3.1,0.5,3.2,0.8c0.1,0.4-0.9,0.7-2,0.4C0.7,4,0.3,3.7,0,3.6v0.5
		c0.7,0.5,2.6,1.2,4.7,1.5c1.3,0.3,2.7,0.7,3.2,1C8.4,7,9.4,7.2,10.1,7.4c0.7,0.1,2.1,0.4,3.1,0.6c0.9,0.2,3.4,0.6,5.5,0.8
		c2.1,0.2,4.6,0.5,5.6,0.7c1,0.1,2.7,0.3,3.8,0.4c2.9,0.1,5.9,0.6,7.4,1.1c0.7,0.2,2.1,0.5,3.1,0.6s2.1,0.3,2.7,0.4
		c0.6,0.2,1.1,0.1,1.3-0.1c0.3-0.4,4.9,0.2,5.4,0.7c0.5,0.5,13.4,2.2,18.2,2.4c1.2,0.1,3.4,0.3,4.9,0.5c4,0.6,10.1,0.8,19.9,0.7
		c0.7,0,2.7,0,4.3,0c2.4,0.1,2.5,0,1-0.1c-1.1-0.1-5.1-0.3-9-0.4c-7.5-0.1-12.1-0.4-15.5-0.9c-1.1-0.1-3.8-0.4-6-0.6
		c-5.7-0.4-11.2-1-11.3-1.3c-0.2-0.3,6-0.1,7.2,0.2c0.5,0.1,3,0.4,5.3,0.4c2.4,0.1,4.4,0.2,4.5,0.3c0.1,0.1,1.3,0.1,2.7,0
		c1.4-0.1,3.7,0,5.1,0.1c1.4,0.1,3.5,0.2,4.8,0.3c1.2,0,2.8,0.1,3.5,0.1c2.8,0.2,6.6,0.3,10.8,0.1c2.4-0.1,4.4-0.1,4.5,0
		s3,0.1,6.5,0c6.4-0.1,8.2,0.6,12.6,0.6c1.3,0,2.7,0.7,3.9,0.1c0,0,2.2-0.9,2.8,0.2c0,0,0.2,0.4,0.4,0.4c0.1,0,0.1-0.1,0.1-0.1
		s0-0.1,0-0.1c-0.3-0.7,5.9-0.5,13.9,0.4c1.6,0.1,5.3,0.2,8.2,0.1c10.7-0.4,11.4-0.4,20.4,0.3c1.6,0.1,3.4,0.2,4,0.3l0,0
		c0.6,0,2.3-0.1,3.8-0.3c1.5-0.2,8.3-0.7,15.2-1.2c10.7-0.8,20.8-2,18-2c-1.4,0-0.7-0.4,2.4-1.2c2.1-0.6,3.9-0.8,6.1-0.7
		c1.7,0,4.2,0.1,5.6,0c1.4,0,4.3,0,6.5,0c1.5,0,2.5,0,3.5-0.1c1.4-0.1,2.5-0.4,4.4-0.9 M240.9,8.6c-5.8,1.8-11.6,1.9-11.6,1.2V9.7
		c0.1-0.2,1.7-0.5,3.8-0.7c3.7-0.3,8.7-1.1,7.3-1.2c-0.7-0.1-0.6-0.1,0.4-0.5c0.1,0,0.1,0,0.1,0 M225.5,9.9c-0.7,0.1-1,0-0.7-0.1
		c0.4-0.1,1-0.1,1.3-0.1C226.6,9.7,226.3,9.8,225.5,9.9 M53.3,12.6c-0.5,0-0.7-0.1-0.4-0.1c0.2-0.1,0.6-0.1,0.9-0.1
		C53.9,12.4,53.7,12.5,53.3,12.6"/>
	<path class="st0" d="M4.9,14L4.9,14c-0.2,0.1-0.1,0.2,0.2,0.2c0.3,0,0.4-0.1,0.3-0.2C5.3,13.9,5,13.9,4.9,14"/>
	<path class="st0" d="M18.8,14.2c0.7,0.1,2.5,0.1,3.9,0.1l2.6-0.1l-1.1-0.5c-0.8-0.4-1.7-0.4-3-0.2c-1.1,0.1-2.3,0.4-2.8,0.4
		C17.7,14,17.8,14,18.8,14.2"/>
	<path class="st0" d="M9.2,14.8c1.1,0.1,2,0.2,2.1,0.2c0.1,0,0.2-0.1,0.2-0.3c0-0.2-0.7-0.4-1.5-0.4C9.2,14.2,8.1,14,7.6,14
		c-0.7-0.1-0.8-0.1-0.6,0.2C7.2,14.4,8.2,14.7,9.2,14.8"/>
</g>
</svg>
