<?xml version="1.0" encoding="utf-8"?>
<!-- Generator: Adobe Illustrator 24.3.0, SVG Export Plug-In . SVG Version: 6.00 Build 0)  -->
<svg version="1.1" id="Camada_1" xmlns="http://www.w3.org/2000/svg" xmlns:xlink="http://www.w3.org/1999/xlink" x="0px" y="0px"
	 viewBox="0 0 240.9 22.7" style="enable-background:new 0 0 240.9 22.7;" xml:space="preserve">
<style type="text/css">
	.st0{fill:#18955E;}
</style>
<g>
	<path class="st0" d="M212.4,7.5c0.4,0.4,1-0.2,0.8-0.7c-0.2-0.5-1.1-0.4-1.1,0.1C212.1,7.1,212.3,7.4,212.4,7.5"/>
	<path class="st0" d="M124,7.4c0.2,0.1,0.5,0.1,0.7,0l0,0c0.2-0.1,0.1-0.2-0.3-0.1C124,7.1,123.8,7.3,124,7.4"/>
	<path class="st0" d="M129.1,7.1c0.2-0.1,0-0.2-0.4-0.1c-0.5,0-0.7,0.1-0.4,0.2C128.5,7.2,128.8,7.1,129.1,7.1"/>
	<path class="st0" d="M130.8,6.9c0.2,0.1,0.4,0.1,0.6,0c0.2-0.1,0-0.2-0.3-0.1C130.7,6.7,130.6,6.9,130.8,6.9"/>
	<path class="st0" d="M132.9,7.1c0.1,0.1,0.3,0.1,0.5,0c0.2-0.1,0.1-0.2-0.2-0.2S132.8,7.1,132.9,7.1"/>
	<path class="st0" d="M154.5,3.9c-0.3-0.4-0.6-0.3-0.6,0.3s1.6,0.9,3.3,0.8c0.8-0.1,0.7-0.1-0.8-0.4C155.5,4.4,154.6,4.1,154.5,3.9"
		/>
	<path class="st0" d="M140.2,7.1c0.5,0.1,1.3,0,1.8-0.1c0.5-0.1,0.1-0.1-0.9-0.1C140.1,7,139.7,7.1,140.2,7.1"/>
	<path class="st0" d="M198.5,3.6L198.5,3.6c-0.3-0.1-0.6-0.3-0.7-0.3s-0.1,0.1-0.1,0.4s0.3,0.4,0.7,0.3l0.7-0.1L198.5,3.6z"/>
	<path class="st0" d="M205.3,9.7c0.1-0.1-1-0.6-2.7-1.2c-3.3-1.1-3.7-1.2-3.4-0.7C199.5,8.2,204.9,9.9,205.3,9.7"/>
	<path class="st0" d="M206.6,10.1c-0.1,0,0,0.2,0.4,0.5c0.4,0.3,0.7,0.5,0.9,0.5c0.1,0,0-0.2-0.4-0.5
		C207.1,10.4,206.7,10.1,206.6,10.1"/>
	<path class="st0" d="M197.3,3.3c-0.2-0.1-1.7-0.4-3.3-0.4s-3-0.1-3-0.2c-0.2-0.3-0.5-0.2-0.5,0.2c0,0.4,1.3,0.5,5.1,0.7
		C196.8,3.6,197.5,3.5,197.3,3.3"/>
	<path class="st0" d="M194.9,6.6c-0.3,0-0.3,0.1,0,0.4c0.2,0.2,0.5,0.4,0.7,0.4c0.3,0,0.3-0.1,0-0.4C195.5,6.7,195.1,6.6,194.9,6.6"
		/>
	<path class="st0" d="M159.7,4.6l1.5,0.2c1.7,0.2,6.3,0.4,5.6,0.2c-0.3-0.1-1.4-0.2-2.4-0.4l0,0c-1.1-0.1-2.6-0.1-3.3-0.1L159.7,4.6
		z"/>
	<path class="st0" d="M113.7,0.1c0-0.1-0.7-0.1-1.5-0.1c-0.9,0.1-1.7,0.3-1.7,0.4C110.3,0.8,113.4,0.4,113.7,0.1"/>
	<path class="st0" d="M0,11.5C2.1,11,3.3,11,5.5,10.7c2.4-0.4,2,0.3,2.6-0.4c0.2-0.2,4.1,0.1,6.1,0.5c0.8,0.1,0.9,0.1,0.7-0.5
		c-0.1-0.6-0.1-0.7,0.6-0.5c0.4,0.1,2,0.2,3.5,0.2s3.6,0.1,4.6,0.1s1.7-0.1,1.6-0.2c-0.1-0.1-0.3-0.3-0.5-0.3s-1.3-0.1-2.5-0.1
		s-3-0.2-4-0.2c-1-0.1-1.9-0.1-1.9-0.3C16.1,8.7,5.8,9.5,2.7,10.1c-1.1,0.2-2,0.4-2.7,0.5"/>
	<path class="st0" d="M55.8,4.7L55.8,4.7c0.3-0.1,0.1-0.1-0.4-0.1s-0.8,0.1-0.5,0.2C55.1,4.8,55.5,4.7,55.8,4.7"/>
	<path class="st0" d="M51.2,4.6l1.5-0.1L51,4.3c-0.9-0.1-2.1-0.1-2.6-0.1c-0.7,0-0.7,0.1,0.2,0.3C49.3,4.6,50.4,4.7,51.2,4.6"/>
	<path class="st0" d="M28.3,6.8c0.2-0.1,0.1-0.2-0.2-0.2s-0.4,0.1-0.3,0.2C27.9,6.9,28.1,6.9,28.3,6.8"/>
	<path class="st0" d="M44.7,4.2c1,0.1,1.9,0,2.1-0.1c0.2-0.1-0.5-0.3-1.5-0.3c-4.4-0.1-6.8,0.1-9.9,0.9C33.6,5.2,32,5.6,32,5.7
		s1.3,0,2.9-0.1c1.8-0.1,2.6-0.3,1.9-0.4l-1.1-0.1l1.6-0.4C39.1,4.2,42.4,4,44.7,4.2"/>
	<path class="st0" d="M69.2,5L69.2,5c0.2-0.1,0.1-0.2-0.2-0.2c-0.3,0-0.4,0.1-0.3,0.2C68.8,5.1,69,5.1,69.2,5"/>
	<path class="st0" d="M64.2,4.9c0.2-0.1,0-0.2-0.4-0.1c-0.5,0-0.7,0.1-0.4,0.2C63.6,5,64,5,64.2,4.9"/>
	<path class="st0" d="M30.3,6.1c-0.7,0-1,0.1-0.7,0.2c0.3,0.1,0.9,0.1,1.2-0.1C31.2,6.1,31,6.1,30.3,6.1"/>
	<path class="st0" d="M74.6,5c0.2-0.1,0-0.2-0.3-0.1C74,4.9,73.8,5,74,5.1C74.1,5.2,74.4,5.1,74.6,5"/>
	<path class="st0" d="M81.4,5.4c0.4-0.1,0.1-0.1-0.8-0.1c-0.9,0.1-1.2,0.1-0.8,0.2C80.3,5.5,81,5.5,81.4,5.4"/>
	<path class="st0" d="M78.4,5.2L78.4,5.2C78.6,5,78.5,5,78.1,5c-0.4,0-0.6,0.1-0.4,0.2C77.8,5.3,78.1,5.3,78.4,5.2"/>
	<path class="st0" d="M0,17.1c0.8-0.6,2.7-1,7.4-0.8c1.6-0.2,3.2-0.4,4.7-0.6l-0.4,0.8c-0.3,0.7-0.8,0.9-2.3,1.1
		c-1.3,0.2-2,0.4-2.3,0.9c-0.2,0.4-1.1,0.9-1.9,1.2C4.3,20,3.6,20.6,3.3,21c-0.4,0.7-0.4,0.6-0.7,0.8c-0.9,0.7-2.2-2-2.5-1.3
		C0,20.6,0,20.8,0,21.1c0,0,0,0,0,1.6h240.9c0.1-1.4,0-2.6,0-2.8c-1.1-0.4-3.1-0.5-3.2-0.8c-0.1-0.4,0.9-0.7,2-0.4
		c0.6,0.1,0.9,0.4,1.2,0.5v-0.5c-0.7-0.5-2.6-1.2-4.7-1.5c-1.3-0.2-2.7-0.7-3.2-0.9c-0.5-0.3-1.5-0.6-2.2-0.7
		c-0.7-0.1-2.1-0.4-3.1-0.6c-0.9-0.2-3.4-0.6-5.5-0.8c-2.1-0.2-4.6-0.5-5.6-0.7c-1-0.1-2.7-0.3-3.8-0.4c-2.9-0.1-5.9-0.6-7.4-1.1
		c-0.7-0.2-2.1-0.5-3.1-0.6c-1-0.1-2.1-0.3-2.7-0.4c-0.6-0.2-1.1-0.1-1.3,0.1c-0.3,0.4-4.9-0.2-5.4-0.7c-0.5-0.5-13.4-2.2-18.2-2.4
		c-1.2-0.1-3.4-0.3-4.9-0.5c-4-0.6-10.1-0.8-19.9-0.7c-0.7,0-2.7,0-4.3,0c-2.4-0.1-2.5,0-1,0.1c1.1,0.1,5.1,0.3,9,0.4
		c7.5,0.1,12.1,0.4,15.5,0.9c1.1,0.1,3.8,0.4,6,0.6c5.7,0.4,11.2,1,11.3,1.3c0.2,0.3-6,0.1-7.2-0.2c-0.5-0.1-3-0.4-5.3-0.4
		c-2.4-0.1-4.4-0.2-4.5-0.3c-0.1-0.1-1.3-0.1-2.7,0S163,9,161.6,9c-1.4-0.1-3.5-0.2-4.8-0.3c-1.2,0-2.8-0.1-3.5-0.1
		c-2.8-0.2-6.6-0.3-10.8-0.1c-2.4,0.1-4.4,0.1-4.5,0s-3-0.1-6.5,0c-6.4,0.1-8.2-0.6-12.6-0.6c-1.3,0-2.7-0.7-3.9-0.1
		c0,0-2.2,0.9-2.8-0.2c0,0-0.2-0.4-0.4-0.4c-0.1,0-0.1,0.1-0.1,0.1c0,0.1,0,0.1,0,0.1C112,8,105.8,7.9,97.8,7
		c-1.6-0.1-5.3-0.2-8.2-0.1C78.9,7.4,78.2,7.4,69.2,6.6c-1.6-0.1-3.4-0.2-4-0.3l0,0c-0.6,0-2.3,0.1-3.8,0.3
		c-1.5,0.1-8.3,0.7-15.2,1.2c-10.7,0.8-20.8,2-18,2c1.4,0,0.7,0.4-2.4,1.2c-2.1,0.6-3.9,0.8-6.1,0.7c-1.7,0-4.2-0.1-5.6,0
		c-1.4,0-4.3,0-6.5,0c-1.5,0-2.5,0-3.5,0.1C3,12.2,1.9,12.5,0,12.9 M0,14.1c5.8-1.8,11.6-1.9,11.6-1.2V13c-0.1,0.2-1.7,0.5-3.8,0.7
		c-3.7,0.3-8.7,1.1-7.3,1.2c0.7,0.1,0.6,0.1-0.4,0.5c-0.1,0-0.1,0-0.1,0 M15.4,12.9c0.7-0.1,1,0,0.7,0.1c-0.4,0.1-1,0.1-1.3,0.1
		C14.4,13.1,14.7,13,15.4,12.9 M187.7,10.2c0.5,0,0.7,0.1,0.4,0.1c-0.2,0.1-0.6,0.1-0.9,0.1C187,10.4,187.2,10.2,187.7,10.2"/>
	<path class="st0" d="M236.1,8.8L236.1,8.8c0.2-0.1,0.1-0.2-0.2-0.2s-0.4,0.1-0.3,0.2C235.7,8.8,235.9,8.9,236.1,8.8"/>
	<path class="st0" d="M222.1,8.6c-0.7-0.1-2.5-0.1-3.9-0.1l-2.6,0.1l1.1,0.5c0.8,0.4,1.7,0.4,3,0.2c1.1-0.1,2.3-0.4,2.8-0.4
		C223.3,8.8,223.1,8.7,222.1,8.6"/>
	<path class="st0" d="M231.7,7.9c-1.1-0.1-2-0.2-2.1-0.2s-0.2,0.1-0.2,0.3c0,0.2,0.7,0.4,1.5,0.4c0.8,0.1,1.9,0.2,2.4,0.3
		c0.7,0.1,0.8,0.1,0.6-0.2C233.8,8.4,232.8,8.1,231.7,7.9"/>
</g>
</svg>
