<?xml version="1.0" encoding="utf-8"?>
<!-- Generator: Adobe Illustrator 24.3.0, SVG Export Plug-In . SVG Version: 6.00 Build 0)  -->
<svg version="1.1" id="Camada_1" xmlns="http://www.w3.org/2000/svg" xmlns:xlink="http://www.w3.org/1999/xlink" x="0px" y="0px"
	 viewBox="0 0 816.2 32.02" style="enable-background:new 0 0 816.2 32.02;" xml:space="preserve">
<style type="text/css">
	.st0{fill:#18955E;}
</style>
<g>
	<path class="st0" d="M96.6,21.39c-1.23-0.47-3.47,0.26-2.82,0.91c0.67,0.68,3.74,0.63,3.72-0.06
		C97.48,21.95,97.08,21.57,96.6,21.39"/>
	<path class="st0" d="M396.22,21.65c-0.56-0.14-1.68-0.12-2.48,0.04l0,0c-0.8,0.16-0.34,0.27,1.02,0.25
		C396.13,21.92,396.78,21.79,396.22,21.65"/>
	<path class="st0" d="M378.88,22.09c-0.79,0.16-0.14,0.26,1.45,0.21c1.59-0.04,2.23-0.17,1.44-0.29
		C380.97,21.89,379.67,21.93,378.88,22.09"/>
	<path class="st0" d="M373.1,22.25c-0.57-0.14-1.5-0.11-2.06,0.05c-0.56,0.17-0.09,0.28,1.04,0.25
		C373.22,22.53,373.68,22.39,373.1,22.25"/>
	<path class="st0" d="M366.06,21.92c-0.28-0.18-0.99-0.18-1.58,0c-0.65,0.19-0.45,0.32,0.51,0.32
		C365.85,22.24,366.34,22.1,366.06,21.92"/>
	<path class="st0" d="M292.61,26.52c0.98,0.63,2,0.43,1.97-0.39c-0.03-0.83-5.43-1.36-11.09-1.09c-2.76,0.13-2.28,0.25,2.55,0.62
		C289.31,25.92,292.27,26.3,292.61,26.52"/>
	<path class="st0" d="M341.3,21.95c-1.71-0.07-4.49,0-6.19,0.16s-0.3,0.22,3.1,0.13C341.62,22.16,343.01,22.02,341.3,21.95"/>
	<path class="st0" d="M143.5,26.99L143.5,26.99c1.14,0.21,2.17,0.41,2.28,0.44c0.12,0.03,0.2-0.2,0.19-0.5s-1.04-0.5-2.29-0.44
		l-2.27,0.11L143.5,26.99z"/>
	<path class="st0" d="M120.71,18.36c-0.5,0.13,3.54,0.87,8.99,1.65c11.07,1.58,12.68,1.73,11.5,1.04
		C140.17,20.46,121.92,18.06,120.71,18.36"/>
	<path class="st0" d="M116.36,17.75c0.45-0.01-0.12-0.35-1.26-0.75c-1.15-0.4-2.46-0.72-2.91-0.71c-0.45,0.01,0.11,0.35,1.26,0.75
		C114.59,17.44,115.9,17.76,116.36,17.75"/>
	<path class="st0" d="M147.64,27.37c0.69,0.25,5.67,0.48,11.06,0.51c5.4,0.04,10.01,0.19,10.26,0.35c0.72,0.45,1.83,0.3,1.81-0.26
		c-0.02-0.51-4.27-0.74-17.37-0.94C149.27,26.97,146.9,27.11,147.64,27.37"/>
	<path class="st0" d="M155.75,22.8c1.1-0.03,1.1-0.09-0.02-0.53c-0.69-0.28-1.81-0.49-2.49-0.47c-1.1,0.03-1.1,0.09,0.02,0.53
		C153.94,22.6,155.07,22.82,155.75,22.8"/>
	<path class="st0" d="M275.16,25.6l-4.96-0.29c-5.85-0.34-21.41-0.55-19-0.26c0.91,0.11,4.64,0.33,8.27,0.49l0,0
		c3.64,0.16,8.66,0.24,11.15,0.17L275.16,25.6z"/>
	<path class="st0" d="M431.09,31.91c-0.19,0.12,2.12,0.15,5.11,0.07c3-0.08,5.65-0.37,5.89-0.64
		C442.49,30.88,431.85,31.43,431.09,31.91"/>
	<path class="st0" d="M816.17,15.81c-7.21,0.67-11.11,0.74-18.55,1.16c-8.22,0.47-6.77-0.36-8.85,0.57
		c-0.61,0.27-13.86-0.16-20.73-0.67c-2.71-0.2-3.03-0.11-2.52,0.71c0.5,0.81,0.22,0.91-1.87,0.68c-1.35-0.14-6.71-0.3-11.92-0.34
		c-5.21-0.04-12.25-0.14-15.65-0.21s-5.88,0.06-5.51,0.29c0.37,0.23,1.11,0.42,1.65,0.43c0.53,0,4.32,0.1,8.41,0.21
		c4.09,0.11,10.21,0.26,13.6,0.33c3.39,0.07,6.33,0.23,6.55,0.36c0.71,0.45,35.84-0.7,46.16-1.51c3.68-0.29,6.81-0.53,9.25-0.75"/>
	<path class="st0" d="M627.13,25.47L627.13,25.47c-1.02,0.16-0.37,0.25,1.44,0.21c1.82-0.04,2.65-0.17,1.86-0.29
		C629.64,25.28,628.16,25.31,627.13,25.47"/>
	<path class="st0" d="M642.61,25.59l-4.95,0.19l5.79,0.2c3.18,0.11,7.09,0.18,8.67,0.16c2.54-0.04,2.44-0.09-0.84-0.39
		C649.24,25.56,645.33,25.49,642.61,25.59"/>
	<path class="st0" d="M720.38,22.49c-0.65,0.19-0.45,0.32,0.51,0.32c0.87,0,1.35-0.14,1.07-0.32
		C721.69,22.31,720.97,22.31,720.38,22.49"/>
	<path class="st0" d="M664.69,26.06c-3.31-0.13-6.46-0.05-7,0.19s1.8,0.45,5.2,0.47c14.96,0.07,23.09-0.25,33.63-1.35
		c6.2-0.64,11.39-1.25,11.53-1.35s-4.32-0.04-9.91,0.12c-6.15,0.18-8.69,0.39-6.43,0.53l3.72,0.24l-5.26,0.54
		C683.7,26.12,672.71,26.38,664.69,26.06"/>
	<path class="st0" d="M581.75,25.03L581.75,25.03c-0.65,0.19-0.45,0.32,0.51,0.32c0.87,0,1.35-0.14,1.07-0.32
		C583.05,24.85,582.34,24.85,581.75,25.03"/>
	<path class="st0" d="M598.62,25.13c-0.79,0.16-0.14,0.25,1.45,0.21s2.23-0.17,1.44-0.29C600.71,24.94,599.41,24.97,598.62,25.13"/>
	<path class="st0" d="M713.55,23.44c2.27-0.06,3.29-0.19,2.27-0.29c-1.02-0.1-2.88-0.06-4.12,0.1
		C710.45,23.41,711.28,23.49,713.55,23.44"/>
	<path class="st0" d="M563.53,24.96c-0.56,0.17-0.09,0.28,1.04,0.25c1.14-0.03,1.59-0.17,1.02-0.31
		C565.02,24.77,564.09,24.8,563.53,24.96"/>
	<path class="st0" d="M540.39,24.44c-1.47,0.16-0.26,0.23,2.69,0.15s4.15-0.21,2.67-0.29C544.27,24.21,541.86,24.28,540.39,24.44"/>
	<path class="st0" d="M550.73,24.73L550.73,24.73c-0.8,0.16-0.34,0.27,1.02,0.25c1.36-0.02,2.01-0.16,1.45-0.29
		C552.65,24.55,551.53,24.57,550.73,24.73"/>
	<path class="st0" d="M816.16,8c-2.7,0.84-9.28,1.47-25.05,1.15c-5.36,0.29-10.72,0.58-16.07,0.87l1.46-1.16
		c1.18-0.94,2.68-1.23,7.92-1.53c4.53-0.26,6.91-0.65,7.96-1.32c0.82-0.52,3.69-1.28,6.36-1.68c2.9-0.43,5.47-1.19,6.37-1.87
		c1.41-1.07,1.37-0.85,2.26-1.16c3.01-1.05,7.41,2.75,8.55,1.83c0.13-0.1,0.17-0.36,0.28-0.84c0,0,0,0,0-2.29H0
		c-0.28,1.97-0.06,3.63,0,4c3.73,0.47,10.45,0.75,10.69,1.18c0.25,0.47-3,0.94-6.71,0.57C2.07,5.56,0.79,5.11,0,5.06V5.8
		C2.33,6.54,8.86,7.48,15.78,8c4.29,0.32,9.1,0.91,10.7,1.31c1.6,0.4,4.96,0.84,7.46,0.98c2.5,0.14,7.16,0.53,10.35,0.86
		c3.19,0.34,11.57,0.86,18.62,1.15c7.05,0.3,15.61,0.69,19.02,0.89c3.41,0.19,9.18,0.42,12.82,0.5c9.96,0.22,20.14,0.84,25.24,1.53
		c2.51,0.34,7.17,0.69,10.35,0.78c3.18,0.09,7.27,0.36,9.07,0.6c2.11,0.28,3.63,0.23,4.25-0.13c0.88-0.52,16.73,0.26,18.44,0.91
		c1.76,0.67,45.43,3.06,61.71,3.38c4.09,0.08,11.53,0.38,16.54,0.67c13.58,0.79,34.32,1.08,67.33,0.95c2.5-0.01,9,0.01,14.45,0.05
		c7.97,0.06,8.62,0.01,3.3-0.22c-3.64-0.16-17.4-0.39-30.57-0.52c-25.4-0.24-40.99-0.6-52.47-1.23c-3.87-0.21-12.98-0.57-20.26-0.8
		c-19.32-0.61-37.92-1.48-38.43-1.81c-0.65-0.41,20.44-0.15,24.41,0.3c1.86,0.21,10.01,0.48,18.1,0.59
		c8.1,0.11,14.98,0.3,15.29,0.42c0.32,0.12,4.44,0.14,9.17,0.05s12.5-0.05,17.27,0.1s12.02,0.31,16.11,0.36
		c4.09,0.05,9.48,0.15,11.98,0.23c9.36,0.3,22.34,0.37,36.56,0.19c8.06-0.1,14.94-0.08,15.28,0.05s10.27,0.14,22.08,0.04
		c21.8-0.2,27.69,0.82,42.55,0.81c4.46,0,8.99,0.98,13.38,0.17c0,0,7.32-1.36,9.35,0.35c0.06,0.05,0.68,0.58,1.35,0.51
		c0.23-0.02,0.47-0.12,0.49-0.22c0.02-0.07-0.02-0.16-0.11-0.25c-0.94-0.95,20.02-0.71,47,0.55c5.46,0.25,17.91,0.32,27.67,0.15
		c36.28-0.64,38.71-0.63,68.96,0.36c5.46,0.18,11.59,0.34,13.64,0.37l0,0c2.04,0.02,7.8-0.14,12.79-0.36
		c4.99-0.22,28.19-1.01,51.55-1.76c36.18-1.15,70.5-2.76,61.08-2.86c-4.83-0.05-2.39-0.57,8.21-1.74c7.21-0.79,13.25-1.1,20.53-1.04
		c5.68,0.05,14.23,0.06,18.99,0.02c4.77-0.04,14.61-0.04,21.88-0.01c4.93,0.02,8.38,0,11.99-0.16c4.77-0.21,8.61-0.6,14.94-1.23
		 M816.18,12.15c-19.49,2.43-39.32,2.64-39.41,1.6c0-0.04,0.02-0.07,0.03-0.08c0.29-0.33,5.66-0.72,13.02-0.95
		c12.65-0.39,29.46-1.52,24.88-1.67c-2.21-0.07-2.08-0.15,1.21-0.72c0.2-0.03,0.2-0.04,0.29-0.05 M764.02,13.84
		c-2.49,0.07-3.52-0.01-2.28-0.17s3.29-0.21,4.54-0.12C767.53,13.65,766.51,13.77,764.02,13.84 M180.35,17.63
		c-1.59,0.04-2.24-0.06-1.45-0.21c0.79-0.16,2.09-0.19,2.89-0.08C182.58,17.46,181.93,17.59,180.35,17.63"/>
	<path class="st0" d="M16.38,19.71L16.38,19.71c-0.65,0.19-0.45,0.32,0.51,0.32c0.87,0,1.35-0.14,1.07-0.32
		C17.68,19.54,16.97,19.54,16.38,19.71"/>
	<path class="st0" d="M63.6,19.92c2.5,0.12,8.45,0.16,13.21,0.09l8.67-0.13l-3.74-0.73c-2.64-0.51-5.69-0.59-10.33-0.27
		c-3.62,0.25-7.89,0.54-9.48,0.64C59.78,19.65,60.21,19.75,63.6,19.92"/>
	<path class="st0" d="M31.15,20.79c3.56,0.13,6.76,0.27,7.1,0.3c0.34,0.03,0.61-0.17,0.6-0.44c-0.01-0.28-2.34-0.57-5.18-0.64
		c-2.84-0.08-6.47-0.28-8.07-0.45c-2.28-0.25-2.69-0.17-1.92,0.34C24.23,20.25,27.59,20.65,31.15,20.79"/>
</g>
</svg>
