<?xml version="1.0" encoding="utf-8"?>
<!-- Generator: Adobe Illustrator 24.3.0, SVG Export Plug-In . SVG Version: 6.00 Build 0)  -->
<svg version="1.1" id="Camada_1" xmlns="http://www.w3.org/2000/svg" xmlns:xlink="http://www.w3.org/1999/xlink" x="0px" y="0px"
	 viewBox="0 0 816.2 32.02" style="enable-background:new 0 0 816.2 32.02;" xml:space="preserve">
<style type="text/css">
	.st0{fill:#F5F0E9;}
</style>
<g>
	<path class="st0" d="M719.48,10.63c1.23,0.47,3.47-0.26,2.82-0.91c-0.67-0.68-3.74-0.63-3.72,0.06
		C718.59,10.07,718.99,10.45,719.48,10.63"/>
	<path class="st0" d="M419.85,10.37c0.56,0.14,1.68,0.12,2.48-0.04v0c0.8-0.16,0.34-0.27-1.02-0.25
		C419.94,10.1,419.29,10.24,419.85,10.37"/>
	<path class="st0" d="M437.19,9.94c0.79-0.16,0.14-0.26-1.45-0.21c-1.59,0.04-2.23,0.17-1.44,0.29
		C435.11,10.13,436.41,10.1,437.19,9.94"/>
	<path class="st0" d="M442.97,9.77c0.57,0.14,1.5,0.11,2.06-0.05c0.56-0.17,0.09-0.28-1.04-0.25S442.4,9.63,442.97,9.77"/>
	<path class="st0" d="M450.02,10.1c0.28,0.18,0.99,0.18,1.58,0c0.65-0.19,0.45-0.32-0.51-0.32C450.22,9.78,449.74,9.93,450.02,10.1"
		/>
	<path class="st0" d="M523.46,5.5c-0.98-0.63-2-0.43-1.97,0.39c0.03,0.83,5.43,1.36,11.09,1.09c2.76-0.13,2.28-0.25-2.55-0.62
		C526.76,6.11,523.8,5.72,523.46,5.5"/>
	<path class="st0" d="M474.77,10.07c1.71,0.07,4.49,0,6.19-0.16c1.7-0.16,0.3-0.22-3.1-0.13C474.45,9.87,473.06,10,474.77,10.07"/>
	<path class="st0" d="M672.57,5.03L672.57,5.03c-1.14-0.21-2.17-0.41-2.28-0.44c-0.11-0.03-0.2,0.2-0.19,0.5s1.04,0.5,2.29,0.44
		l2.27-0.11L672.57,5.03z"/>
	<path class="st0" d="M695.37,13.66c0.5-0.13-3.54-0.87-8.99-1.65c-11.07-1.59-12.68-1.73-11.5-1.04
		C675.9,11.56,694.15,13.96,695.37,13.66"/>
	<path class="st0" d="M699.72,14.27c-0.45,0.01,0.11,0.35,1.26,0.75c1.15,0.4,2.46,0.72,2.91,0.71s-0.11-0.35-1.26-0.75
		C701.48,14.58,700.17,14.26,699.72,14.27"/>
	<path class="st0" d="M668.43,4.65c-0.69-0.25-5.67-0.48-11.06-0.51c-5.4-0.04-10.01-0.19-10.26-0.35c-0.72-0.45-1.83-0.3-1.81,0.26
		c0.02,0.51,4.27,0.74,17.37,0.94C666.8,5.05,669.17,4.92,668.43,4.65"/>
	<path class="st0" d="M660.33,9.22c-1.1,0.03-1.1,0.09,0.02,0.53c0.69,0.28,1.81,0.49,2.49,0.47c1.1-0.03,1.1-0.09-0.02-0.53
		C662.13,9.42,661.01,9.21,660.33,9.22"/>
	<path class="st0" d="M540.91,6.42l4.96,0.29c5.85,0.34,21.41,0.55,19,0.26c-0.91-0.11-4.64-0.33-8.27-0.49v0
		c-3.64-0.16-8.66-0.24-11.15-0.17L540.91,6.42z"/>
	<path class="st0" d="M384.98,0.11c0.19-0.12-2.12-0.15-5.11-0.07c-3,0.08-5.65,0.37-5.89,0.64C373.58,1.15,384.22,0.59,384.98,0.11
		"/>
	<path class="st0" d="M-0.1,16.21c7.21-0.67,11.11-0.74,18.55-1.16c8.22-0.47,6.77,0.36,8.85-0.57c0.61-0.27,13.86,0.16,20.73,0.67
		c2.71,0.2,3.03,0.11,2.52-0.71c-0.5-0.81-0.22-0.91,1.87-0.68c1.35,0.14,6.71,0.3,11.92,0.34c5.21,0.04,12.25,0.14,15.65,0.21
		c3.4,0.07,5.88-0.06,5.51-0.29c-0.37-0.23-1.11-0.43-1.65-0.43c-0.53,0-4.32-0.1-8.41-0.21c-4.09-0.11-10.21-0.26-13.6-0.33
		c-3.39-0.07-6.33-0.23-6.55-0.36c-0.71-0.45-35.84,0.7-46.16,1.51c-3.68,0.29-6.81,0.53-9.25,0.75"/>
	<path class="st0" d="M188.94,6.55L188.94,6.55c1.02-0.16,0.37-0.25-1.44-0.21c-1.82,0.04-2.65,0.17-1.86,0.29
		C186.43,6.74,187.92,6.71,188.94,6.55"/>
	<path class="st0" d="M173.46,6.43l4.95-0.19l-5.79-0.2c-3.18-0.11-7.09-0.18-8.67-0.16c-2.54,0.04-2.44,0.09,0.84,0.39
		C166.84,6.46,170.74,6.53,173.46,6.43"/>
	<path class="st0" d="M95.69,9.53c0.65-0.19,0.45-0.32-0.51-0.32c-0.87,0-1.35,0.14-1.07,0.32C94.39,9.71,95.1,9.71,95.69,9.53"/>
	<path class="st0" d="M151.38,5.96c3.31,0.13,6.46,0.05,7-0.19c0.54-0.24-1.8-0.45-5.2-0.46c-14.96-0.07-23.09,0.25-33.63,1.34
		c-6.2,0.64-11.39,1.25-11.53,1.35c-0.14,0.1,4.32,0.04,9.91-0.12c6.15-0.18,8.69-0.39,6.43-0.53l-3.72-0.24l5.26-0.54
		C132.38,5.9,143.37,5.64,151.38,5.96"/>
	<path class="st0" d="M234.33,7L234.33,7c0.65-0.19,0.45-0.32-0.51-0.32c-0.87,0-1.35,0.14-1.07,0.32
		C233.02,7.17,233.74,7.17,234.33,7"/>
	<path class="st0" d="M217.45,6.89c0.79-0.16,0.14-0.26-1.45-0.21c-1.59,0.04-2.23,0.17-1.44,0.29
		C215.36,7.08,216.66,7.05,217.45,6.89"/>
	<path class="st0" d="M102.52,8.59c-2.27,0.05-3.29,0.19-2.27,0.29c1.02,0.1,2.88,0.06,4.12-0.1
		C105.62,8.62,104.79,8.53,102.52,8.59"/>
	<path class="st0" d="M252.55,7.06c0.56-0.17,0.09-0.28-1.04-0.25c-1.14,0.03-1.59,0.17-1.02,0.31
		C251.06,7.25,251.99,7.22,252.55,7.06"/>
	<path class="st0" d="M275.69,7.59c1.47-0.16,0.26-0.23-2.69-0.15c-2.95,0.08-4.15,0.21-2.67,0.29
		C271.8,7.81,274.21,7.75,275.69,7.59"/>
	<path class="st0" d="M265.34,7.29L265.34,7.29c0.8-0.16,0.34-0.27-1.02-0.25c-1.36,0.02-2.01,0.16-1.45,0.29
		C263.43,7.47,264.54,7.45,265.34,7.29"/>
	<path class="st0" d="M-0.09,24.02c2.7-0.84,9.28-1.47,25.05-1.15c5.36-0.29,10.72-0.58,16.07-0.87l-1.46,1.16
		c-1.18,0.94-2.68,1.23-7.92,1.53c-4.53,0.26-6.91,0.65-7.96,1.32c-0.82,0.52-3.69,1.28-6.36,1.68c-2.9,0.43-5.47,1.19-6.37,1.87
		c-1.41,1.07-1.37,0.85-2.26,1.16c-3.01,1.05-7.41-2.75-8.55-1.83c-0.13,0.1-0.17,0.36-0.28,0.84c0,0,0,0,0,2.29h816.2
		c0.28-1.97,0.06-3.63,0-4c-3.73-0.47-10.45-0.75-10.69-1.18c-0.25-0.47,3-0.94,6.71-0.57c1.91,0.19,3.19,0.65,3.98,0.69l0-0.74
		c-2.33-0.74-8.86-1.67-15.78-2.19c-4.28-0.32-9.1-0.91-10.7-1.31c-1.6-0.4-4.96-0.84-7.46-0.98c-2.5-0.14-7.16-0.53-10.35-0.86
		c-3.19-0.34-11.57-0.86-18.62-1.15c-7.05-0.3-15.61-0.69-19.02-0.89c-3.41-0.19-9.18-0.42-12.82-0.5
		c-9.96-0.22-20.14-0.84-25.24-1.53c-2.51-0.34-7.17-0.69-10.35-0.78c-3.18-0.09-7.27-0.36-9.07-0.6c-2.11-0.28-3.63-0.23-4.24,0.13
		c-0.88,0.52-16.73-0.26-18.44-0.91c-1.76-0.67-45.43-3.06-61.71-3.38c-4.09-0.08-11.53-0.38-16.54-0.67
		C562.16,9.8,541.42,9.5,508.4,9.63c-2.5,0.01-9-0.01-14.45-0.05c-7.97-0.06-8.62-0.01-3.3,0.22c3.64,0.16,17.4,0.39,30.57,0.52
		c25.41,0.24,40.99,0.6,52.48,1.23c3.87,0.21,12.98,0.57,20.26,0.8c19.32,0.61,37.92,1.48,38.43,1.81
		c0.65,0.41-20.44,0.15-24.41-0.3c-1.86-0.21-10.01-0.48-18.1-0.59c-8.09-0.11-14.98-0.3-15.29-0.42c-0.32-0.12-4.44-0.14-9.17-0.05
		c-4.73,0.09-12.5,0.05-17.27-0.1c-4.77-0.15-12.02-0.31-16.11-0.36c-4.09-0.05-9.48-0.15-11.98-0.23
		c-9.36-0.3-22.34-0.37-36.56-0.19c-8.06,0.1-14.94,0.08-15.28-0.05c-0.34-0.13-10.27-0.14-22.08-0.04
		c-21.8,0.2-27.69-0.82-42.55-0.81c-4.46,0-8.99-0.98-13.38-0.17c0,0-7.32,1.36-9.35-0.35c-0.06-0.05-0.68-0.58-1.35-0.51
		c-0.23,0.02-0.47,0.12-0.49,0.22c-0.02,0.07,0.02,0.16,0.11,0.25c0.94,0.95-20.02,0.71-47-0.55c-5.46-0.25-17.91-0.32-27.67-0.15
		c-36.28,0.64-38.71,0.63-68.96-0.36c-5.46-0.18-11.59-0.34-13.64-0.37v0c-2.04-0.02-7.8,0.14-12.79,0.36
		c-4.99,0.22-28.19,1.01-51.55,1.76c-36.18,1.15-70.5,2.76-61.08,2.86c4.83,0.05,2.39,0.57-8.21,1.74
		c-7.21,0.79-13.25,1.1-20.53,1.04c-5.68-0.05-14.23-0.06-18.99-0.02c-4.77,0.04-14.61,0.04-21.88,0.01
		c-4.93-0.02-8.38,0-11.99,0.16c-4.77,0.21-8.61,0.6-14.94,1.23 M-0.11,19.87c19.49-2.43,39.32-2.64,39.41-1.6
		c0,0.04-0.02,0.07-0.03,0.08c-0.29,0.33-5.66,0.72-13.02,0.95c-12.65,0.39-29.46,1.52-24.88,1.67c2.21,0.07,2.08,0.15-1.21,0.72
		c-0.2,0.03-0.2,0.04-0.29,0.05 M52.06,18.18c2.49-0.07,3.52,0.01,2.28,0.17c-1.24,0.16-3.29,0.21-4.54,0.12
		C48.54,18.38,49.56,18.25,52.06,18.18 M635.73,14.39c1.59-0.04,2.24,0.06,1.45,0.21c-0.79,0.16-2.09,0.19-2.89,0.08
		C633.49,14.56,634.14,14.43,635.73,14.39"/>
	<path class="st0" d="M799.7,12.31L799.7,12.31c0.65-0.19,0.45-0.32-0.51-0.32c-0.87,0-1.35,0.14-1.07,0.32
		C798.39,12.48,799.11,12.49,799.7,12.31"/>
	<path class="st0" d="M752.47,12.1c-2.5-0.12-8.45-0.16-13.21-0.09l-8.67,0.13l3.74,0.73c2.64,0.51,5.69,0.59,10.33,0.27
		c3.62-0.25,7.89-0.54,9.48-0.64C756.29,12.37,755.87,12.27,752.47,12.1"/>
	<path class="st0" d="M784.92,11.23c-3.56-0.13-6.76-0.27-7.1-0.3c-0.34-0.03-0.61,0.17-0.6,0.44c0.01,0.28,2.34,0.57,5.18,0.64
		c2.84,0.08,6.47,0.28,8.07,0.45c2.28,0.25,2.69,0.17,1.92-0.34C791.84,11.77,788.48,11.37,784.92,11.23"/>
</g>
</svg>
