<?xml version="1.0" encoding="utf-8"?>
<!-- Generator: Adobe Illustrator 24.3.0, SVG Export Plug-In . SVG Version: 6.00 Build 0)  -->
<svg version="1.1" xmlns="http://www.w3.org/2000/svg" xmlns:xlink="http://www.w3.org/1999/xlink" x="0px" y="0px"
	 viewBox="0 0 872.77 245.27" style="enable-background:new 0 0 872.77 245.27;" xml:space="preserve">
<style type="text/css">
	.st0{fill:#F5F0E9;}
	.st1{fill:#EFE5D8;}
	.st2{fill:#FF5343;}
	.st3{fill:#8F4200;}
	.st4{fill:#6F3030;}
	.st5{fill:none;stroke:#6F3030;stroke-width:3;stroke-linecap:round;stroke-miterlimit:10;}
	.st6{fill:#2B252C;}
	.st7{clip-path:url(#SVGID_2_);fill:#2B252C;}
	.st8{fill:#2797D2;}
	.st9{fill:#454C53;}
	.st10{opacity:0.4;fill:#2B252C;}
	.st11{fill:#71BB00;}
	.st12{opacity:0.2;fill:#FFD01F;}
	.st13{fill:#438930;}
</style>
<g id="Layer_3">
	<path class="st0" d="M872.77,157.83c-19.88-2.5-37.68-5.22-37.68-5.22c-47.66-7.28-82.33-15.12-87.91-16.34
		c-105.78-23.12-345.63-12.03-345.63-12.03c-107.9,2.08-244.69,9.97-401.55,31.89c0,29.71,0,59.43,0,89.14h872.77L872.77,157.83z"/>
	<path class="st1" d="M0,150.87c257.4-72.66,456.34-66.99,593.43-46.76c102.57,15.14,159.32,36.78,279.03,47.14l0.16,9.62
		c-221.15-29.52-197-30.78-251.31-34.13c-91.23-5.63-218.78-12.55-374.5,24.99C185.03,166.61,98.16,193.48,0,244.95
		C0,213.59,0,182.23,0,150.87z"/>
</g>
<g id="Layer_11">
	<g id="XMLID_55_">
		<g id="XMLID_77_">
			<g id="XMLID_87_">
				
					<rect id="XMLID_93_" x="469.74" y="58.12" transform="matrix(0.0625 -0.998 0.998 0.0625 350.6711 559.1276)" class="st2" width="6.44" height="69.56"/>
				
					<rect id="XMLID_92_" x="471.75" y="46.55" transform="matrix(0.0625 -0.998 0.998 0.0625 362.8989 549.0035)" class="st2" width="3.86" height="69.56"/>
				
					<rect id="XMLID_91_" x="469.1" y="68.41" transform="matrix(0.0625 -0.998 0.998 0.0625 339.802 568.1267)" class="st2" width="6.44" height="69.56"/>
				
					<rect id="XMLID_90_" x="423.59" y="85.66" transform="matrix(0.0625 -0.998 0.998 0.0625 324.1411 521.553)" class="st3" width="32.2" height="5.15"/>
				
					<rect id="XMLID_89_" x="456.38" y="87.07" transform="matrix(0.0625 -0.998 0.998 0.0625 352.8259 556.1984)" class="st3" width="32.2" height="6.44"/>
				
					<rect id="XMLID_88_" x="489.16" y="89.77" transform="matrix(0.0625 -0.998 0.998 0.0625 381.5108 590.8438)" class="st3" width="32.2" height="5.15"/>
			</g>
			<path id="XMLID_84_" class="st4" d="M454.99,95.11c-5.34-0.33-9.94,3.72-10.27,9.06s3.72,9.94,9.06,10.27
				c5.34,0.33,9.94-3.72,10.27-9.06C464.38,100.04,460.33,95.44,454.99,95.11z M454.01,110.72c-3.29-0.21-5.78-3.04-5.58-6.32
				s3.04-5.78,6.32-5.58s5.78,3.04,5.58,6.32C460.13,108.43,457.29,110.93,454.01,110.72z"/>
			<path id="XMLID_81_" class="st4" d="M488.45,97.2c-5.34-0.33-9.94,3.72-10.27,9.06c-0.33,5.34,3.72,9.94,9.06,10.27
				c5.34,0.33,9.94-3.72,10.27-9.06C497.85,102.14,493.79,97.54,488.45,97.2z M487.47,112.82c-3.29-0.21-5.78-3.04-5.58-6.32
				s3.04-5.78,6.32-5.58s5.78,3.04,5.58,6.32C493.59,110.53,490.76,113.03,487.47,112.82z"/>
			<circle id="XMLID_80_" class="st4" cx="454.36" cy="105.15" r="3.73"/>
			<circle id="XMLID_79_" class="st4" cx="488.59" cy="106.92" r="3.73"/>
			<path id="XMLID_78_" class="st4" d="M548.41,104.15c-0.06,1.03-0.95,1.81-1.98,1.74l-39.99-2.51c-1.03-0.06-1.81-0.95-1.74-1.98
				l0.01-0.14c0.06-1.03,0.95-1.81,1.98-1.74l39.99,2.51c1.03,0.06,1.81,0.95,1.74,1.98L548.41,104.15z"/>
		</g>
		<g id="XMLID_56_">
			<line id="XMLID_76_" class="st5" x1="608.08" y1="89.1" x2="609.36" y2="68.53"/>
			<path id="XMLID_75_" class="st6" d="M612.59,68.6c0.13-2.05-1.43-3.82-3.49-3.95l-0.28-0.02c-2.05-0.13-3.82,1.43-3.95,3.49
				l-0.26,4.13c-0.13,2.05,1.43,3.82,3.49,3.95l0.28,0.02c2.05,0.13,3.82-1.43,3.95-3.49L612.59,68.6z"/>
			<path id="XMLID_74_" class="st2" d="M616.3,84.46l-18.1-1.13c-0.13-0.01-3.94-24.77-3.94-24.77l-31.87-2l-6.37,21.68
				c-0.63,2.1-3.06,3.7-4.96,3.58s-3.93,1.56-4.07,3.75l-1.08,17.29c-0.14,2.18,1.78,4.64,3.83,5.43l3.43,1.63
				c2.04,0.79,5.66,1.91,7.85,2.05l33.03,2.07c0.73,0.05,1.47,0.09,2.23,0.14l18.1,1.13c8.15,0.51,15.05-6.2,15.56-14.35l0.02-0.25
				C630.45,92.57,624.44,84.97,616.3,84.46z"/>
			<g id="XMLID_69_">
				<defs>
					<path id="SVGID_1_" d="M587.29,64.78l-18.93-1.19l-5.41,17.58c8.8,0.82,17.83,4.7,22.59,11.52L587.29,64.78z"/>
				</defs>
				<use xlink:href="#SVGID_1_"  style="overflow:visible;fill:#9EDBDA;"/>
				<clipPath id="SVGID_2_">
					<use xlink:href="#SVGID_1_"  style="overflow:visible;"/>
				</clipPath>
				<path id="XMLID_73_" class="st7" d="M574.17,84.4c-0.22,3.55-3.28,6.25-6.83,6.03l0,0c-3.55-0.22-6.25-3.28-6.03-6.83l0.4-6.43
					c0.22-3.55,3.28-6.25,6.83-6.03l0,0c3.55,0.22,6.25,3.28,6.03,6.83L574.17,84.4z"/>
				<path id="XMLID_72_" class="st7" d="M595.52,93.73c-0.35,5.54-5.12,9.76-10.67,9.41l-4.35-0.27c-5.54-0.35-9.76-5.12-9.41-10.67
					l0.03-0.49c0.35-5.54,5.12-9.76,10.67-9.41l4.35,0.27c5.54,0.35,9.76,5.12,9.41,10.67L595.52,93.73z"/>
			</g>
			<g id="XMLID_67_">
				<path class="st6" d="M581.63,107.52c-0.64,10.27-9.49,18.07-19.76,17.43c-10.27-0.64-18.07-9.49-17.43-19.76
					c0.64-10.27,9.49-18.07,19.76-17.43C574.47,88.41,582.27,97.26,581.63,107.52z"/>
			</g>
			<path id="XMLID_66_" class="st8" d="M571.62,106.89c-0.3,4.74-4.38,8.34-9.12,8.05c-4.74-0.3-8.34-4.38-8.04-9.12
				c0.3-4.74,4.38-8.34,9.12-8.04C568.31,98.07,571.91,102.16,571.62,106.89z"/>
			<path id="XMLID_65_" class="st9" d="M568.76,106.72c-0.2,3.16-2.92,5.56-6.08,5.36c-3.16-0.2-5.56-2.92-5.36-6.08
				c0.2-3.16,2.92-5.56,6.08-5.36C566.55,100.83,568.95,103.56,568.76,106.72z"/>
			<g id="XMLID_60_">
				<g id="XMLID_63_">
					<path class="st6" d="M629.47,114.5c-0.51,8.08-7.46,14.22-15.54,13.71c-8.08-0.51-14.21-7.46-13.71-15.54
						c0.51-8.08,7.46-14.21,15.54-13.71C623.84,99.47,629.98,106.43,629.47,114.5z"/>
				</g>
				<path id="XMLID_62_" class="st8" d="M621.6,114.01c-0.23,3.73-3.45,6.56-7.17,6.33c-3.73-0.23-6.56-3.44-6.33-7.17
					c0.23-3.73,3.45-6.56,7.17-6.33C619,107.07,621.83,110.28,621.6,114.01z"/>
				<path id="XMLID_61_" class="st9" d="M619.34,113.87c-0.16,2.49-2.3,4.37-4.78,4.22c-2.49-0.16-4.37-2.3-4.22-4.78
					c0.16-2.49,2.3-4.37,4.78-4.22C617.61,109.24,619.5,111.38,619.34,113.87z"/>
			</g>
			<path id="XMLID_59_" class="st10" d="M607.03,95.54c-0.04,0.68-0.63,1.2-1.32,1.16l-0.09-0.01c-0.68-0.04-1.2-0.63-1.16-1.32
				l0.41-6.52c0.04-0.68,0.63-1.2,1.32-1.16l0.09,0.01c0.68,0.04,1.21,0.63,1.16,1.32L607.03,95.54z"/>
			<path id="XMLID_58_" class="st10" d="M613.46,95.94c-0.04,0.68-0.63,1.2-1.32,1.16l-0.09-0.01c-0.68-0.04-1.2-0.63-1.16-1.32
				l0.41-6.52c0.04-0.68,0.63-1.2,1.32-1.16l0.09,0.01c0.68,0.04,1.2,0.63,1.16,1.32L613.46,95.94z"/>
			<path id="XMLID_57_" class="st10" d="M619.88,96.34c-0.04,0.68-0.63,1.2-1.32,1.16l-0.09-0.01c-0.68-0.04-1.2-0.63-1.16-1.32
				l0.41-6.52c0.04-0.68,0.63-1.2,1.32-1.16l0.09,0.01c0.68,0.04,1.2,0.63,1.16,1.32L619.88,96.34z"/>
		</g>
	</g>
</g>
<g id="Layer_10">
	<g id="XMLID_10_">
		<path id="XMLID_13_" class="st11" d="M333.32,144.26c-10.33-74.91-67.8-132.24-137.16-132.24C126.8,12.01,69.33,69.34,59,144.26
			H333.32z"/>
		<path id="XMLID_12_" class="st12" d="M194.22,144.26V12.04C125.73,13.1,69.23,70.05,59,144.26H194.22z"/>
	</g>
</g>
<g id="Layer_9">
	<g id="XMLID_5_">
		<path id="XMLID_7_" class="st13" d="M390.59,143.36c-7.4-53.67-48.57-94.74-98.26-94.74c-49.69,0-90.86,41.07-98.26,94.74H390.59z
			"/>
		<path id="XMLID_6_" class="st12" d="M290.94,143.36V48.63c-49.06,0.76-89.54,41.56-96.87,94.72H290.94z"/>
	</g>
</g>
</svg>
