<?xml version="1.0" encoding="utf-8"?>
<!-- Generator: Adobe Illustrator 24.3.0, SVG Export Plug-In . SVG Version: 6.00 Build 0)  -->
<svg version="1.1" xmlns="http://www.w3.org/2000/svg" xmlns:xlink="http://www.w3.org/1999/xlink" x="0px" y="0px"
	 viewBox="0 0 1920 265" style="enable-background:new 0 0 1920 265;" xml:space="preserve">
<style type="text/css">
	.st0{fill:#F5F0E9;}
	.st1{fill:#EFE5D8;}
	.st2{fill:#FFB300;}
	.st3{opacity:0.6;fill:#FFD01F;}
	.st4{fill:#8F4200;}
	.st5{fill:#FF8B30;}
	.st6{fill:#FF5343;}
	.st7{fill:#6F3030;}
	.st8{fill:none;stroke:#6F3030;stroke-width:3;stroke-linecap:round;stroke-miterlimit:10;}
	.st9{fill:#2B252C;}
	.st10{clip-path:url(#SVGID_2_);fill:#2B252C;}
	.st11{fill:#2797D2;}
	.st12{fill:#454C53;}
	.st13{opacity:0.4;fill:#2B252C;}
	.st14{fill:#71BB00;}
	.st15{opacity:0.2;fill:#FFD01F;}
	.st16{fill:#438930;}
</style>
<g id="Layer_3">
	<path class="st0" d="M1919.96,137.97c-154.1,27.1-287.54,39.37-393.24,44.85c0,0-201.98,10.47-365.92-4.27
		c-30.14-2.71-60.33-6.21-60.33-6.21c-62.8-7.28-108.5-15.12-115.85-16.34c-139.4-23.12-455.47-12.03-455.47-12.03
		C386.96,146.05,206.7,153.94,0,175.86c0,29.71,0,59.43,0,89.14h1919.78C1919.44,222.66,1920.31,180.32,1919.96,137.97z"/>
	<path class="st1" d="M0,169.6c87.68-19.69,419.97-85.17,788.93-40.39c430.69,52.28,720.47,90.38,986.85-4.09
		c0,0,75.13-27.03,144.22-66.09l0,98.93c-61.37,25.57-287.06,93.39-829.32,13.29C574.56,95.02,188.81,181.74,0,263.69L0,169.6z"/>
	<g id="XMLID_157_">
		<g id="XMLID_334_">
			<path id="XMLID_260_" class="st2" d="M1735,123.44c0,14.18-11.82,25.56-26,25.56h-0.73c-14.18,0-26.26-11.38-26.26-25.56V86.4
				c0-14.18,12.08-24.4,26.26-24.4h0.73c14.18,0,26,10.22,26,24.4V123.44z"/>
			<path id="XMLID_259_" class="st3" d="M1708.03,60.56c-14.07,0.13-25.45,11.56-25.45,25.67v37.48c0,14.1,11.37,25.54,25.45,25.67
				V60.56z"/>
			<path id="XMLID_258_" class="st4" d="M1713.12,162.8v-48.82c0-2.68-2.17-4.86-4.86-4.86c-2.68,0-4.86,2.17-4.86,4.86v48.82
				H1713.12z"/>
		</g>
		<g id="XMLID_330_">
			<path id="XMLID_257_" class="st2" d="M1782,125.32c0,14.18-11.5,25.68-25.68,25.68h-0.64c-14.18,0-25.68-11.5-25.68-25.68V87.68
				c0-14.18,11.5-25.68,25.68-25.68h0.64c14.18,0,25.68,11.5,25.68,25.68V125.32z"/>
			<path id="XMLID_256_" class="st3" d="M1755.23,60.56c-14.07,0.13-25.45,11.56-25.45,25.67v37.48c0,14.1,11.37,25.54,25.45,25.67
				V60.56z"/>
			<path id="XMLID_255_" class="st4" d="M1760.32,162.8v-48.82c0-2.68-2.17-4.86-4.86-4.86c-2.68,0-4.86,2.17-4.86,4.86v48.82
				H1760.32z"/>
		</g>
		<g id="XMLID_326_">
			<path id="XMLID_254_" class="st2" d="M1830,125.32c0,14.18-11.5,25.68-25.68,25.68h-0.64c-14.18,0-25.68-11.5-25.68-25.68V87.68
				c0-14.18,11.5-25.68,25.68-25.68h0.64c14.18,0,25.68,11.5,25.68,25.68V125.32z"/>
			<path id="XMLID_253_" class="st3" d="M1802.42,60.56c-14.08,0.13-25.45,11.56-25.45,25.67v37.48c0,14.1,11.38,25.54,25.45,25.67
				V60.56z"/>
			<path id="XMLID_252_" class="st4" d="M1807.51,162.8v-48.82c0-2.68-2.18-4.86-4.86-4.86c-2.68,0-4.86,2.17-4.86,4.86v48.82
				H1807.51z"/>
		</g>
		<g id="XMLID_166_">
			<g id="XMLID_324_">
				<path id="XMLID_251_" class="st5" d="M1699.16,83.61c0,2.62-2.12,4.74-4.73,4.74c-2.62,0-4.73-2.12-4.73-4.74
					c0-2.62,2.12-4.74,4.73-4.74C1697.04,78.88,1699.16,81,1699.16,83.61z"/>
			</g>
			<g id="XMLID_322_">
				<path id="XMLID_250_" class="st5" d="M1724.41,93.08c0,2.62-2.12,4.74-4.73,4.74c-2.62,0-4.74-2.12-4.74-4.74
					c0-2.62,2.12-4.74,4.74-4.74C1722.3,88.35,1724.41,90.47,1724.41,93.08z"/>
			</g>
			<g id="XMLID_320_">
				<path id="XMLID_249_" class="st5" d="M1699.16,127.81c0,2.62-2.12,4.74-4.73,4.74c-2.62,0-4.73-2.12-4.73-4.74
					c0-2.62,2.12-4.74,4.73-4.74C1697.04,123.07,1699.16,125.19,1699.16,127.81z"/>
			</g>
			<g id="XMLID_318_">
				<path id="XMLID_248_" class="st5" d="M1744.93,116.76c0,2.62-2.12,4.74-4.73,4.74c-2.62,0-4.74-2.12-4.74-4.74
					s2.12-4.74,4.74-4.74C1742.82,112.02,1744.93,114.14,1744.93,116.76z"/>
			</g>
			<g id="XMLID_316_">
				<path id="XMLID_247_" class="st5" d="M1751.25,85.19c0,2.61-2.12,4.73-4.74,4.73c-2.62,0-4.73-2.12-4.73-4.73
					c0-2.61,2.12-4.73,4.73-4.73C1749.13,80.46,1751.25,82.58,1751.25,85.19z"/>
			</g>
			<g id="XMLID_314_">
				<path id="XMLID_46_" class="st5" d="M1773.35,100.98c0,2.62-2.12,4.74-4.73,4.74c-2.62,0-4.74-2.12-4.74-4.74
					c0-2.62,2.12-4.74,4.74-4.74C1771.23,96.24,1773.35,98.36,1773.35,100.98z"/>
			</g>
			<g id="XMLID_312_">
				<path id="XMLID_44_" class="st5" d="M1793.87,88.35c0,2.62-2.12,4.74-4.73,4.74c-2.62,0-4.74-2.12-4.74-4.74
					c0-2.62,2.12-4.74,4.74-4.74C1791.75,83.61,1793.87,85.73,1793.87,88.35z"/>
			</g>
			<g id="XMLID_310_">
				<path id="XMLID_34_" class="st5" d="M1819.13,82.03c0,2.62-2.12,4.74-4.74,4.74s-4.73-2.12-4.73-4.74s2.12-4.74,4.73-4.74
					S1819.13,79.42,1819.13,82.03z"/>
			</g>
			<g id="XMLID_234_">
				<path id="XMLID_25_" class="st5" d="M1825.44,121.5c0,2.62-2.12,4.74-4.74,4.74s-4.74-2.12-4.74-4.74
					c0-2.62,2.12-4.74,4.74-4.74S1825.44,118.88,1825.44,121.5z"/>
			</g>
			<g id="XMLID_177_">
				<path id="XMLID_1_" class="st5" d="M1792.29,121.5c0,2.62-2.12,4.74-4.73,4.74c-2.62,0-4.74-2.12-4.74-4.74
					c0-2.62,2.12-4.74,4.74-4.74C1790.17,116.76,1792.29,118.88,1792.29,121.5z"/>
			</g>
		</g>
	</g>
</g>
<g id="Layer_11">
	<g id="XMLID_55_">
		<g id="XMLID_77_">
			<g id="XMLID_87_">
				
					<rect id="XMLID_93_" x="659.74" y="67.85" transform="matrix(0.0625 -0.998 0.998 0.0625 519.0779 757.8807)" class="st6" width="6.44" height="69.56"/>
				
					<rect id="XMLID_92_" x="661.75" y="56.28" transform="matrix(0.0625 -0.998 0.998 0.0625 531.3057 747.7567)" class="st6" width="3.86" height="69.56"/>
				
					<rect id="XMLID_91_" x="659.1" y="78.14" transform="matrix(0.0625 -0.998 0.998 0.0625 508.2087 766.8799)" class="st6" width="6.44" height="69.56"/>
				
					<rect id="XMLID_90_" x="613.59" y="95.39" transform="matrix(0.0625 -0.998 0.998 0.0625 492.5479 720.3063)" class="st4" width="32.2" height="5.15"/>
				
					<rect id="XMLID_89_" x="646.38" y="96.8" transform="matrix(0.0625 -0.998 0.998 0.0625 521.2327 754.9516)" class="st4" width="32.2" height="6.44"/>
				
					<rect id="XMLID_88_" x="679.16" y="99.5" transform="matrix(0.0625 -0.998 0.998 0.0625 549.9176 789.597)" class="st4" width="32.2" height="5.15"/>
			</g>
			<path id="XMLID_84_" class="st7" d="M644.99,104.84c-5.34-0.33-9.94,3.72-10.27,9.06s3.72,9.94,9.06,10.27s9.94-3.72,10.27-9.06
				S650.33,105.18,644.99,104.84z M644.01,120.46c-3.29-0.21-5.78-3.04-5.58-6.32c0.21-3.29,3.04-5.78,6.32-5.58
				c3.29,0.21,5.78,3.04,5.58,6.32C650.12,118.17,647.29,120.66,644.01,120.46z"/>
			<path id="XMLID_81_" class="st7" d="M678.45,106.94c-5.34-0.33-9.94,3.72-10.27,9.06s3.72,9.94,9.06,10.27
				c5.34,0.33,9.94-3.72,10.27-9.06S683.79,107.27,678.45,106.94z M677.47,122.55c-3.29-0.21-5.78-3.04-5.58-6.32
				s3.04-5.78,6.32-5.58c3.29,0.21,5.78,3.04,5.58,6.32C683.59,120.26,680.76,122.76,677.47,122.55z"/>
			<circle id="XMLID_80_" class="st7" cx="644.36" cy="114.88" r="3.73"/>
			<circle id="XMLID_79_" class="st7" cx="678.59" cy="116.65" r="3.73"/>
			<path id="XMLID_78_" class="st7" d="M738.41,113.88c-0.06,1.03-0.95,1.81-1.98,1.74l-39.99-2.51c-1.03-0.06-1.81-0.95-1.74-1.98
				l0.01-0.14c0.06-1.03,0.95-1.81,1.98-1.74l39.99,2.51c1.03,0.06,1.81,0.95,1.74,1.98L738.41,113.88z"/>
		</g>
		<g id="XMLID_56_">
			<line id="XMLID_76_" class="st8" x1="798.08" y1="98.84" x2="799.36" y2="78.27"/>
			<path id="XMLID_75_" class="st9" d="M802.59,78.33c0.13-2.05-1.43-3.82-3.49-3.95l-0.28-0.02c-2.05-0.13-3.82,1.43-3.95,3.49
				l-0.26,4.13c-0.13,2.05,1.43,3.82,3.49,3.95l0.28,0.02c2.05,0.13,3.82-1.43,3.95-3.49L802.59,78.33z"/>
			<path id="XMLID_74_" class="st6" d="M806.3,94.19l-18.1-1.13c-0.13-0.01-3.94-24.77-3.94-24.77l-31.87-2l-6.37,21.68
				c-0.63,2.1-3.06,3.7-4.96,3.58s-3.93,1.56-4.07,3.75l-1.08,17.29c-0.14,2.18,1.78,4.64,3.83,5.43l3.43,1.63
				c2.04,0.79,5.66,1.91,7.85,2.05l33.03,2.07c0.73,0.05,1.47,0.09,2.23,0.14l18.1,1.13c8.15,0.51,15.05-6.2,15.56-14.35l0.02-0.25
				C820.45,102.3,814.44,94.7,806.3,94.19z"/>
			<g id="XMLID_69_">
				<defs>
					<path id="SVGID_1_" d="M777.29,74.52l-18.93-1.19l-5.41,17.58c8.8,0.82,17.83,4.7,22.59,11.52L777.29,74.52z"/>
				</defs>
				<use xlink:href="#SVGID_1_"  style="overflow:visible;fill:#9EDBDA;"/>
				<clipPath id="SVGID_2_">
					<use xlink:href="#SVGID_1_"  style="overflow:visible;"/>
				</clipPath>
				<path id="XMLID_73_" class="st10" d="M764.17,94.13c-0.22,3.55-3.28,6.25-6.83,6.03l0,0c-3.55-0.22-6.25-3.28-6.03-6.83
					l0.4-6.43c0.22-3.55,3.28-6.25,6.83-6.03l0,0c3.55,0.22,6.25,3.28,6.03,6.83L764.17,94.13z"/>
				<path id="XMLID_72_" class="st10" d="M785.52,103.46c-0.35,5.54-5.12,9.76-10.67,9.41l-4.35-0.27
					c-5.54-0.35-9.76-5.12-9.41-10.67l0.03-0.49c0.35-5.54,5.12-9.76,10.67-9.41l4.35,0.27c5.54,0.35,9.76,5.12,9.41,10.67
					L785.52,103.46z"/>
			</g>
			<g id="XMLID_67_">
				<path class="st9" d="M771.63,117.26c-0.64,10.27-9.49,18.07-19.76,17.43c-10.27-0.64-18.07-9.49-17.43-19.76
					c0.64-10.27,9.49-18.07,19.76-17.43C764.47,98.14,772.27,106.99,771.63,117.26z"/>
			</g>
			<path id="XMLID_66_" class="st11" d="M761.62,116.63c-0.3,4.74-4.38,8.34-9.12,8.05c-4.74-0.3-8.34-4.38-8.04-9.12
				c0.3-4.74,4.38-8.34,9.12-8.04C758.31,107.81,761.91,111.89,761.62,116.63z"/>
			<path id="XMLID_65_" class="st12" d="M758.76,116.45c-0.2,3.16-2.92,5.56-6.08,5.36c-3.16-0.2-5.56-2.92-5.36-6.08
				c0.2-3.16,2.92-5.56,6.08-5.36C756.55,110.57,758.95,113.29,758.76,116.45z"/>
			<g id="XMLID_60_">
				<g id="XMLID_63_">
					<path class="st9" d="M819.47,124.23c-0.51,8.08-7.46,14.22-15.54,13.71c-8.08-0.51-14.21-7.46-13.71-15.54
						c0.51-8.08,7.46-14.21,15.54-13.71C813.84,109.2,819.98,116.16,819.47,124.23z"/>
				</g>
				<path id="XMLID_62_" class="st11" d="M811.6,123.74c-0.23,3.73-3.45,6.56-7.17,6.33c-3.73-0.23-6.56-3.44-6.33-7.17
					c0.23-3.73,3.45-6.56,7.17-6.33C809,116.8,811.83,120.01,811.6,123.74z"/>
				<path id="XMLID_61_" class="st12" d="M809.34,123.6c-0.16,2.49-2.3,4.37-4.78,4.22c-2.49-0.16-4.37-2.3-4.22-4.78
					c0.16-2.49,2.3-4.37,4.78-4.22S809.5,121.11,809.34,123.6z"/>
			</g>
			<path id="XMLID_59_" class="st13" d="M797.03,105.27c-0.04,0.68-0.63,1.2-1.32,1.16l-0.09-0.01c-0.68-0.04-1.2-0.63-1.16-1.32
				l0.41-6.52c0.04-0.68,0.63-1.2,1.32-1.16l0.09,0.01c0.68,0.04,1.21,0.63,1.16,1.32L797.03,105.27z"/>
			<path id="XMLID_58_" class="st13" d="M803.46,105.67c-0.04,0.68-0.63,1.2-1.32,1.16l-0.09-0.01c-0.68-0.04-1.2-0.63-1.16-1.32
				l0.41-6.52c0.04-0.68,0.63-1.2,1.32-1.16l0.09,0.01c0.68,0.04,1.2,0.63,1.16,1.32L803.46,105.67z"/>
			<path id="XMLID_57_" class="st13" d="M809.88,106.08c-0.04,0.68-0.63,1.2-1.32,1.16l-0.09-0.01c-0.68-0.04-1.2-0.63-1.16-1.32
				l0.41-6.52c0.04-0.68,0.63-1.2,1.32-1.16l0.09,0.01c0.68,0.04,1.2,0.63,1.16,1.32L809.88,106.08z"/>
		</g>
	</g>
</g>
<g id="Layer_10">
	<g id="XMLID_231_">
		<path id="XMLID_233_" class="st14" d="M533.32,133.99C522.99,59.08,465.52,1.75,396.16,1.75C326.8,1.75,269.33,59.08,259,133.99
			H533.32z"/>
		<path id="XMLID_232_" class="st15" d="M394.22,133.99V1.77C325.73,2.83,269.23,59.78,259,133.99H394.22z"/>
	</g>
</g>
<g id="Layer_9">
	<g id="XMLID_5_">
		<path id="XMLID_7_" class="st16" d="M590.59,133.09c-7.4-53.67-48.57-94.74-98.26-94.74c-49.69,0-90.86,41.07-98.26,94.74H590.59z
			"/>
		<path id="XMLID_6_" class="st15" d="M490.94,133.09V38.37c-49.06,0.76-89.54,41.56-96.87,94.72H490.94z"/>
	</g>
</g>
</svg>
