<?xml version="1.0" encoding="utf-8"?>
<!-- Generator: Adobe Illustrator 24.3.0, SVG Export Plug-In . SVG Version: 6.00 Build 0)  -->
<svg version="1.1" id="Camada_1" xmlns="http://www.w3.org/2000/svg" xmlns:xlink="http://www.w3.org/1999/xlink" x="0px" y="0px"
	 viewBox="0 0 847 56.7" style="enable-background:new 0 0 847 56.7;" xml:space="preserve">
<style type="text/css">
	.st0{fill:#FFFFFF;}
</style>
<g>
	<path class="st0" d="M138.7,3.1c1.2,0,1.8-0.1,1.1-0.2c-0.6-0.1-1.6-0.2-2.3,0C136.9,3,137.4,3.1,138.7,3.1"/>
	<path class="st0" d="M134.6,3.3c-0.2-0.2-0.8-0.2-1.2-0.1c-0.5,0.1-0.4,0.2,0.4,0.3C134.4,3.5,134.8,3.4,134.6,3.3"/>
	<path class="st0" d="M406.9,51.3c-0.8-0.1-2.1-0.2-2.9-0.1c-0.8,0.1-0.1,0.2,1.4,0.2C407,51.5,407.7,51.4,406.9,51.3"/>
	<path class="st0" d="M463.6,51.2c-0.6,0.1-0.1,0.2,1.1,0.2c1.2,0,1.8-0.1,1.1-0.2C465.3,51.1,464.2,51.1,463.6,51.2"/>
	<path class="st0" d="M473.3,51.9c-0.8-0.1-2.1-0.2-2.9-0.1c-0.8,0.1-0.1,0.2,1.4,0.2C473.4,52.1,474.1,52,473.3,51.9"/>
	<path class="st0" d="M261.1,53.5c-5.4-0.1-7.8,0-6.1,0.2c3.1,0.4,14.2,0.5,14.7,0.1C270,53.7,266.1,53.6,261.1,53.5"/>
	<path class="st0" d="M412,51c-0.6,0.1-0.1,0.2,1.1,0.2c1.2,0,1.8-0.1,1.1-0.2C413.7,50.9,412.7,50.9,412,51"/>
	<path class="st0" d="M426.9,50.9c-0.4-0.1-1.3-0.2-1.9-0.1c-0.6,0.1-0.3,0.2,0.8,0.2C426.8,51.1,427.3,51,426.9,50.9"/>
	<path class="st0" d="M685.9,0.9c-4.3,0-14.8,0-23.5-0.1c-8.7-0.1-18.1-0.1-21,0c-2.8,0-11.4,0.1-19,0.1c-14,0-18.2,0-25.8,0.3
		c-2.3,0.1-9,0.2-15,0.4C575.7,1.7,570.5,1.9,570,2s-6.4,0.3-13.1,0.4c-6.7,0.1-15,0.3-18.4,0.5c-3.4,0.2-10.6,0.4-16.2,0.5
		c-5.5,0.1-13.8,0.4-18.4,0.5c-4.6,0.1-17.2,0.3-28.1,0.3s-21.4,0.1-23.5,0.1c-2.1,0-16.9-0.1-32.9-0.3c-40.6-0.5-58-0.3-76.8,1.1
		C338.7,5.4,328,6,318.7,6.4c-9.2,0.4-17.2,0.9-17.8,1c-0.5,0.1-3.4,0.2-6.5,0.3c-3,0.1-11.6,0.3-19,0.5c-7.5,0.2-16.3,0.4-19.7,0.5
		S245.1,8.8,239.6,9c-5.5,0.1-13.6,0-18-0.2c-4.4-0.2-8.2-0.2-8.4,0c-0.2,0.2-1,0.5-1.8,0.7c-1.1,0.2-1.5,0.1-1.4-0.5
		c0-0.6-0.3-0.7-1.8-0.5c-1,0.1-8.9,0.2-17.6,0.1s-18.6,0-21.9,0.1c-3.4,0.1-10.8,0.1-16.4-0.1c-5.7-0.2-15-0.5-20.8-0.6
		C125.7,7.9,121,7.6,121,7.4c0-0.2-6.3-0.5-14.3-0.5C94.3,6.7,92.5,6.6,93.4,6.1c0.5-0.3,2-0.8,3.2-1s1.8-0.4,1.2-0.5
		c-0.6,0-3.3,0.4-6,1c-4.2,0.9-6.2,1-13.2,0.8C63.5,6.1,24.6,6.9,24,7.6c-2,2.1-2.9,2.7-5,3.4c-3,1-3.1,1.4-1.5,3.4
		c1.5,1.8,2.4,2.2,7.3,3c2.1,0.3,4.4,0.9,5.1,1.2c0.8,0.3,5.2,0.6,12.2,0.8c8.6,0.2,11,0.4,11.2,0.8s-0.3,0.5-2.5,0.3
		c-2-0.3-2.5-0.2-1.9,0.1c0.5,0.3,1.8,0.5,2.9,0.5c1.1,0,2.3,0.3,2.6,0.5c0.4,0.3,4.3,0.6,10.5,0.7c8.1,0.2,9.7,0.3,9.4,0.8
		c-0.4,0.7,0.9,0.9,1.9,0.2c0.3-0.2,4.3-0.5,8.7-0.5c6.2-0.1,7.8,0,7.1,0.4c-0.8,0.4-0.2,0.5,2.5,0.3c4.1-0.2,16.8,0.5,16.8,1
		c0,0.2-3.3,0.4-7.3,0.5c-7.6,0.2-10.5,0.2-25.5,0c-9.1-0.1-9.2-0.1-9.1,0.9l0.1,1l-21,0.3c-23.5,0.3-31.9,0.9-35.1,2.3
		c-1.2,0.5-1.6,0.8-1.1,0.7c4.9-1,12.2-1.6,21.9-1.8c2.7-0.1,8-0.2,11.9-0.3C57,28.1,91.4,29,96.8,29.7c5.1,0.7,8.7,0.9,16.9,1.2
		l5,0.2l-0.3,1.7c-0.3,1.5-0.5,1.7-2.2,1.8c-1,0-4.4-0.2-7.4-0.7c-3.9-0.5-5.8-0.6-6.3-0.3c-0.4,0.3-3.7,0.3-8.4,0.2
		c-5.1-0.2-7.7-0.1-7.8,0.2c0,0.3,0.5,0.5,1.1,0.5c0.6,0,8.6,0.2,17.8,0.5l16.7,0.5l1.5,2.2c1.3,1.9,1.9,2.2,4.8,2.9
		c3.3,0.7,14.1,1.4,30.9,2.1c11,0.4,17.2,1,17.5,1.7c0.1,0.3-1.7,0.6-5.5,0.7c-6.9,0.2-23.4-0.3-23-0.7c0.4-0.4-2.7-0.9-3.4-0.5
		c-1,0.6-11.4,1-19.6,0.9c-4.4-0.1-12.7,0-18.4,0.1S87,45,75.5,45c-11.5,0-21.8,0-22.7,0.1c-2.8,0.2-2.8,0.6,0.2,1
		c3.9,0.6,35,1.1,40,0.6c2.3-0.2,7-0.3,10.5-0.2s7.4,0.1,8.7-0.1c4.7-0.4,41.9,0.1,42.7,0.6c0.9,0.5,13.4,1,17.4,0.7
		c2.3-0.2,2.4-0.1,2.4,0.9c0,0.6-0.3,1.1-0.5,1.2c-3.3,0.2-9.3,0.2-25.6,0c-18.9-0.2-22.8,0-20.8,0.8c0.9,0.4,11.9,1.5,18.5,1.8
		c7.1,0.4,47,1.2,46.7,0.9c-0.1-0.1,5.8-0.1,13.1,0c20,0.4,36.6,0.2,38.7-0.4c2-0.7,17.1-1.4,32.1-1.6c2.8,0,9.8-0.2,15.5-0.4
		c5.7-0.2,10.8-0.3,11.3-0.3s4.5-0.2,8.7-0.4c12.9-0.8,23.7-1.5,28.8-1.8c2.7-0.2,7.8-0.4,11.3-0.4c3.5-0.1,10.5-0.3,15.5-0.6
		c13.6-0.7,28.2-0.7,68-0.2c3.7,0,17.8,1.5,20,2.1c1.6,0.4,5.4,0.8,9.4,0.9c3.6,0.1,6.9,0.3,7.1,0.4c0.3,0.1,2.8,0.4,5.6,0.6
		c2.8,0.2,5.2,0.5,5.4,0.7c0.5,0.5,3.8,1.5,5.1,1.5c0.7,0,1.3,0.3,1.4,0.6c0.2,0.4,2.4,0.5,9.6,0.2c8.5-0.3,33.9-0.5,37.1-0.3
		c7.8,0.5,20.2,1.8,18.9,2c-0.9,0.1-6.4,0.3-12.2,0.3c-5.8,0-10.8,0.2-11,0.3c-0.5,0.4,25.4,0.3,30.3-0.1c2.3-0.2,7.4-0.4,11.3-0.4
		c8-0.1,19-0.6,26-1.1c2.6-0.2,6.5-0.3,8.7-0.2c2.2,0,5.9-0.1,8.2-0.3c2.3-0.2,6.2-0.5,8.5-0.7c2.3-0.2,7.1-0.5,10.7-0.7
		c3.5-0.2,8.4-0.5,10.7-0.6c2.3-0.2,7.3-0.5,11-0.7c3.7-0.2,8.4-0.5,10.3-0.7c2-0.2,5.5-0.4,7.8-0.5c2.3-0.1,9.7-0.3,16.5-0.5
		c6.8-0.2,14-0.6,16.2-0.8c2.1-0.2,7.8-0.4,12.6-0.4c11.7,0,18.1-0.3,18.1-0.8c0-0.8,3.7-1.6,8.1-1.8c2.5-0.1,5.8-0.3,7.4-0.4
		c3.1-0.2,4.4-0.5,2.1-0.6c-0.8,0-1.4-0.2-1.4-0.5s1.2-0.4,2.6-0.4c1.8,0,2.6-0.1,2.6-0.6c0-0.4,0.7-0.8,1.5-0.9s1.7-0.5,1.9-0.7
		c0.2-0.2,3.6-0.5,7.4-0.7c3.9-0.2,7.3-0.5,7.7-0.7c0.4-0.2,3.6-0.5,7.1-0.7c9.8-0.6,13.4-1.1,15.1-2.1c1.2-0.7,2.9-1,8.1-1.3
		c5.1-0.2,6.5-0.5,6.4-1c-0.1-0.3,0-1.1,0.2-1.7c0.4-0.9,0.8-1,3.5-1c4.3,0.1,7.8-0.5,9.5-1.5c0.8-0.5,2.2-0.9,3.1-0.9
		c2.2,0,5.7-0.8,5.8-1.3c0-0.7,4.2-1.6,5.9-1.3c1.6,0.3,3.3-0.7,3.3-2.1c0-0.8-2.4-1.5-3.5-1c-0.9,0.5-10.6,0.7-11,0.3
		c-0.2-0.2,0.9-1.2,2.3-2.2c2.8-2,3-3.1,0.2-2c-1.9,0.8-4.2,0.9-19.2,1c-9.1,0-10.2,0-9.5-0.6c0.5-0.4,1.6-0.8,2.5-0.9
		s1.5-0.3,1.4-0.5c-0.2-0.1-1.4,0-2.7,0.2c-2.8,0.5-4,0-4.4-1.7c-0.5-2.1,1.3-2.8,7.7-3.2c3.2-0.2,6.3-0.5,7-0.8
		c1.3-0.5,1.6-1.2,0.4-1.3c-1.5-0.1,1.7-1.3,3.3-1.3c1.3,0,1.4-0.1,0.8-0.7c-0.4-0.4-1.7-0.7-2.8-0.7c-3.7-0.1-6.6-0.7-7.2-1.5
		c-1.8-2.2,2.2-5.1,8.1-5.9l3.3-0.4l-2.1-0.6c-1.2-0.3-2.8-1-3.6-1.5c-1.3-0.8-2.4-0.9-7.8-0.9c-16.1,0.1-24.3,0.2-31.1,0.7
		c-4.2,0.3-20.6,0.4-37.4,0.3C711,0.8,699.5,0.8,685.9,0.9 M87.3,27.8c-5.8-0.5-12-0.9-13.7-1c-1.7-0.1-3.1-0.3-3-0.6
		c0-0.6,30.8,1.2,40.5,2.4C117.3,29.4,99,28.8,87.3,27.8 M115.1,24.7c-1.3,0.5-3.2,0.5-3.2-0.1c0-0.2,1-0.4,2.1-0.4
		C115.6,24.3,115.9,24.4,115.1,24.7 M224.1,27.6c1-0.1,2.4,0,3.2,0.1c0.8,0.1,0,0.2-1.8,0.2C223.8,27.8,223.2,27.7,224.1,27.6
		 M176.8,49.8c-1.5,0-1.6-0.1-0.6-0.7c1-0.7,2.3-0.5,2.3,0.3C178.5,49.7,177.8,49.8,176.8,49.8 M213.7,49.5
		c-27.2,0.1-32.9-0.1-34.6-1.3c-1.1-0.8,55.7-0.6,57.4,0.2C237.4,48.8,224.5,49.4,213.7,49.5 M280.4,27.7c-0.5,0.3-3.5,0.4-19.4,0.3
		l0,0c-6,0-15.3,0-20.6,0c-5.4,0-8.9-0.1-8-0.3c0.9-0.2,9.5-0.4,19.1-0.5c9.6-0.1,19.9-0.3,23.1-0.4
		C279.7,26.7,281.6,26.9,280.4,27.7 M291.8,27.6c-0.7,0-2.9,0.1-5.1,0.2c-2.6,0.1-4,0-4.3-0.3c-0.3-0.3,0.2-0.5,1.4-0.5
		c1,0,3.5,0,5.5-0.1c2.1,0,3.7,0.1,3.7,0.4C293,27.4,292.5,27.6,291.8,27.6 M300.4,27.3c-2.9,0.4-6.1,0.4-6.1-0.1
		c0-0.3,1.7-0.4,4-0.3C301.5,27,302,27.1,300.4,27.3 M348,23.8c0,0.6-4.7,0.8-6.3,0.3c-0.7-0.2-0.2-0.3,1.5-0.3
		c1.5,0,3.1-0.1,3.7-0.2C347.5,23.5,348,23.5,348,23.8z M350.9,23.8c-1.4,0-1.9-0.1-1.1-0.2c0.8-0.1,2-0.1,2.6,0.1
		C352.9,23.8,352.3,23.9,350.9,23.8 M397.5,23c-1.9-0.1-10.2,0.1-18.6,0.4c-8.4,0.3-17,0.5-19.1,0.6c-2.3,0.1-4.1,0-4.3-0.3
		c-0.3-0.4,7.5-1.1,14.8-1.4c22.7-0.7,30.7-0.6,30.6,0.4C400.9,23,399.4,23.1,397.5,23 M420.7,23c-6.1,0-12.6,0.1-14.5,0.2
		c-3.5,0.1-5.3-0.6-2.3-0.9c3.7-0.4,28.7-0.2,28.3,0.2C432.1,22.7,426.9,22.9,420.7,23 M486.3,22.7c-1.1,0-1.4-0.1-0.8-0.2
		c0.6-0.1,1.5-0.1,1.9,0.1C487.9,22.7,487.4,22.8,486.3,22.7 M597.2,23L597.2,23c-0.4,0.2-5.4,0.4-11.3,0.4c-12.2,0-11-0.5,2.5-1.1
		C596.8,22,598.5,22.1,597.2,23"/>
	<path class="st0" d="M44.2,25c0,0.2,0.6,0.5,1.3,0.5c0.7,0,1.2-0.2,1-0.4s-0.8-0.5-1.3-0.5C44.6,24.5,44.2,24.7,44.2,25"/>
	<path class="st0" d="M47.1,20.7c-0.4-0.1-1.3-0.2-1.9-0.1c-0.6,0.1-0.3,0.2,0.8,0.2S47.6,20.8,47.1,20.7"/>
	<path class="st0" d="M2.4,10.3C3.8,10.7,4,10.7,4.4,10c0.2-0.3,1.9-0.8,3.8-1l3.4-0.4L8.5,8.5C5.2,8.4,0.6,9.7,2.4,10.3"/>
	<path class="st0" d="M3.7,27.2c0.6,0,1.8-0.2,2.5-0.4c2.2-0.8,12.9-1.4,24-1.5c5.6,0,10-0.2,9.7-0.4c-0.8-0.5-21.9-0.1-27.3,0.5
		c-2.7,0.3-6,0.8-7.5,1.2C3.7,26.9,3,27.2,3.7,27.2"/>
	<path class="st0" d="M88.7,32.2c2.6-0.1,2.1-0.2-2.6-0.5c-7.9-0.6-17.4-0.9-16.8-0.5c0.3,0.2,2.5,0.5,5.1,0.7
		C79.2,32.2,83.1,32.3,88.7,32.2"/>
	<path class="st0" d="M106,4.3c-3.7,0.5,8.7,0.3,12.9-0.2c2.6-0.3,1.8-0.3-3.5-0.3C111.7,4,107.5,4.1,106,4.3"/>
	<path class="st0" d="M120.9,49.7c-0.2-0.2-0.8-0.2-1.2-0.1c-0.5,0.1-0.4,0.2,0.4,0.3C120.8,49.9,121.1,49.8,120.9,49.7"/>
	<path class="st0" d="M116.9,49.6c-3.3-0.3-10.5-0.6-10.2-0.4c0.2,0.1,2.3,0.4,4.6,0.6C115.4,50.1,120.2,49.9,116.9,49.6"/>
</g>
</svg>
