<?xml version="1.0" encoding="utf-8"?>
<!-- Generator: Adobe Illustrator 24.3.0, SVG Export Plug-In . SVG Version: 6.00 Build 0)  -->
<svg version="1.1" id="Camada_1" xmlns="http://www.w3.org/2000/svg" xmlns:xlink="http://www.w3.org/1999/xlink" x="0px" y="0px"
	 viewBox="0 0 847 56.7" style="enable-background:new 0 0 847 56.7;" xml:space="preserve">
<style type="text/css">
	.st0{fill:#F38022;}
</style>
<g>
	<path class="st0" d="M710.2,3.1c1.2,0,1.7-0.1,1.1-0.2c-0.6-0.1-1.6-0.1-2.3,0C708.5,3,709,3.1,710.2,3.1"/>
	<path class="st0" d="M714.3,3.3c-0.2,0.2,0.2,0.2,0.8,0.2c0.8,0,0.9-0.2,0.4-0.3C715,3.1,714.5,3.1,714.3,3.3"/>
	<path class="st0" d="M442,51.3c-0.8,0.1-0.1,0.2,1.5,0.2c1.6,0,2.2-0.1,1.4-0.2C444.1,51.2,442.8,51.2,442,51.3"/>
	<path class="st0" d="M385.3,51.2c-0.6-0.1-1.6-0.1-2.3,0c-0.6,0.1-0.1,0.2,1.1,0.2C385.4,51.4,385.9,51.3,385.3,51.2"/>
	<path class="st0" d="M375.6,51.9c-0.8,0.1-0.1,0.2,1.5,0.2c1.6,0,2.2-0.1,1.4-0.2C377.7,51.7,376.4,51.7,375.6,51.9"/>
	<path class="st0" d="M587.7,53.5c-4.9,0.1-8.8,0.2-8.6,0.3c0.5,0.3,11.6,0.3,14.7-0.1C595.6,53.5,593.2,53.4,587.7,53.5"/>
	<path class="st0" d="M436.8,51c-0.6-0.1-1.6-0.1-2.3,0c-0.6,0.1-0.1,0.2,1.1,0.2C437,51.2,437.5,51.1,436.8,51"/>
	<path class="st0" d="M422,50.9c-0.4,0.1,0.1,0.2,1.1,0.2c1.1,0,1.4-0.1,0.8-0.2C423.3,50.7,422.4,50.7,422,50.9"/>
	<path class="st0" d="M163,0.9c-13.6-0.1-25-0.1-55.7,0.1C90.4,1.1,74,0.9,69.8,0.7C63,0.3,54.8,0.1,38.7,0c-5.5,0-6.5,0.1-7.8,0.9
		c-0.9,0.5-2.5,1.2-3.6,1.5l-2.1,0.6l3.3,0.4c5.9,0.8,9.9,3.7,8.1,5.9c-0.7,0.8-3.5,1.4-7.2,1.5c-1.1,0-2.4,0.4-2.8,0.7
		c-0.7,0.6-0.5,0.7,0.8,0.7c1.6,0,4.8,1.2,3.3,1.3c-1.2,0-1,0.8,0.4,1.3c0.6,0.2,3.8,0.6,7,0.8c6.4,0.4,8.2,1.1,7.7,3.2
		c-0.4,1.8-1.5,2.2-4.4,1.7c-1.4-0.2-2.6-0.3-2.7-0.2c-0.1,0.1,0.5,0.3,1.4,0.5s2,0.5,2.5,0.9c0.7,0.6-0.3,0.7-9.5,0.6
		c-15,0-17.3-0.2-19.2-1c-2.7-1.2-2.6,0,0.2,2c1.4,1,2.5,2,2.3,2.2c-0.4,0.4-10,0.2-11-0.3c-1.1-0.6-3.5,0.1-3.5,1
		c0.1,1.4,1.7,2.4,3.3,2.1c1.6-0.3,5.8,0.6,5.9,1.3c0,0.5,3.6,1.3,5.8,1.3c0.9,0,2.3,0.4,3.1,0.9c1.7,1.1,5.2,1.6,9.5,1.5
		c2.6,0,3.1,0.1,3.5,1c0.2,0.6,0.3,1.3,0.2,1.7c-0.1,0.5,1.3,0.7,6.4,1c5.2,0.3,6.9,0.5,8.1,1.3c1.7,1,5.3,1.5,15.1,2.1
		c3.5,0.2,6.8,0.5,7.1,0.7c0.4,0.2,3.8,0.5,7.7,0.7c3.9,0.2,7.2,0.5,7.4,0.7c0.2,0.2,1.1,0.5,1.9,0.7s1.5,0.6,1.5,0.9
		c0,0.5,0.8,0.6,2.6,0.6c1.4,0,2.6,0.1,2.6,0.4s-0.6,0.5-1.4,0.5c-2.3,0-1,0.4,2.1,0.6c1.6,0.1,4.9,0.2,7.4,0.4
		c4.5,0.2,8.1,1,8.1,1.8c0,0.5,6.4,0.7,18.1,0.8c4.8,0,10.5,0.2,12.6,0.4c2.1,0.2,9.4,0.5,16.2,0.8c6.8,0.2,14.2,0.5,16.5,0.5
		c2.3,0.1,5.8,0.3,7.8,0.5c2,0.2,6.6,0.5,10.3,0.7c3.7,0.2,8.7,0.5,11,0.7c2.3,0.2,7.1,0.5,10.7,0.6c3.5,0.2,8.4,0.5,10.7,0.7
		c2.3,0.2,6.1,0.5,8.5,0.7c2.4,0.2,6,0.3,8.2,0.3c2.2,0,6.1,0.1,8.7,0.2c7.1,0.5,18.1,0.9,26,1.1c3.9,0.1,9,0.3,11.3,0.4
		c4.9,0.4,30.8,0.4,30.3,0.1c-0.2-0.1-5.1-0.3-11-0.3c-5.8,0-11.4-0.2-12.2-0.3c-1.3-0.2,11.1-1.5,18.9-2c3.1-0.2,28.6,0,37.1,0.3
		c7.1,0.2,9.4,0.2,9.6-0.2c0.1-0.3,0.8-0.5,1.4-0.6c1.3,0,4.6-1,5.1-1.5c0.2-0.2,2.6-0.5,5.4-0.7c2.8-0.2,5.3-0.5,5.6-0.6
		c0.3-0.1,3.5-0.3,7.1-0.4c4-0.1,7.7-0.5,9.4-0.9c2.2-0.6,16.3-2,20-2.1c39.9-0.5,54.4-0.4,68,0.2c5,0.2,12,0.5,15.5,0.6
		c3.5,0.1,8.6,0.3,11.3,0.4c5.1,0.3,15.9,1,28.8,1.8c4.3,0.3,8.2,0.5,8.7,0.4c0.5,0,5.6,0.1,11.3,0.3c5.7,0.2,12.6,0.3,15.5,0.4
		c15,0.2,30.1,1,32.1,1.6c2.1,0.7,18.6,0.9,38.7,0.4c7.3-0.2,13.2-0.2,13.1,0c-0.2,0.3,39.6-0.5,46.7-0.9c6.6-0.4,17.6-1.5,18.5-1.8
		c1.9-0.8-1.9-1-20.8-0.8c-16.3,0.2-22.3,0.2-25.6,0c-0.3,0-0.5-0.5-0.5-1.2c0-1,0.1-1.1,2.4-0.9c3.9,0.3,16.5-0.2,17.3-0.7
		c0.8-0.5,38-1,42.7-0.6c1.2,0.1,5.1,0.1,8.7,0.1s8.3,0,10.5,0.2c5,0.4,36.1,0,40-0.6c3-0.4,3.1-0.8,0.2-1c-1-0.1-11.2-0.1-22.7-0.1
		c-11.5,0-25.6-0.1-31.3-0.3s-14-0.2-18.4-0.1c-8.2,0.2-18.6-0.3-19.6-0.9c-0.7-0.4-3.8,0-3.4,0.5c0.4,0.4-16.1,0.9-23,0.7
		c-3.7-0.1-5.6-0.4-5.5-0.7c0.3-0.7,6.5-1.3,17.5-1.7c16.9-0.7,27.7-1.4,30.9-2.1c2.9-0.6,3.4-0.9,4.8-2.9l1.5-2.2l16.7-0.5
		c9.2-0.3,17.2-0.5,17.8-0.5c0.6,0,1.1-0.2,1.1-0.5c0-0.3-2.7-0.4-7.8-0.2c-4.7,0.2-8,0.1-8.4-0.2c-0.5-0.3-2.4-0.2-6.3,0.3
		c-3.1,0.4-6.4,0.7-7.5,0.7c-1.6-0.1-1.9-0.3-2.2-1.8l-0.3-1.7l5-0.2c8.1-0.2,11.8-0.5,16.9-1.2c5.5-0.7,39.9-1.7,50.6-1.4
		c3.9,0.1,9.3,0.2,11.9,0.3c9.7,0.2,16.9,0.8,21.9,1.8c0.6,0.1,0.1-0.2-1-0.7c-3.2-1.4-11.5-2-35.1-2.3l-21-0.3l0.1-1
		c0.1-1,0-1-9.1-0.9c-15,0.2-17.9,0.2-25.5,0c-4-0.1-7.3-0.4-7.3-0.5c0-0.5,12.7-1.3,16.8-1c2.7,0.2,3.3,0.1,2.5-0.3
		c-0.8-0.4,0.9-0.5,7.1-0.4c4.4,0.1,8.3,0.3,8.7,0.5c1,0.6,2.3,0.5,1.9-0.2c-0.3-0.5,1.4-0.7,9.4-0.8c6.1-0.1,10-0.4,10.5-0.7
		c0.4-0.3,1.6-0.5,2.6-0.5c1.1,0,2.4-0.3,2.9-0.5c0.7-0.4,0.2-0.4-1.9-0.1c-2.2,0.3-2.7,0.2-2.5-0.3s2.6-0.7,11.2-0.8
		c7-0.2,11.4-0.4,12.2-0.8c0.7-0.3,3-0.8,5.1-1.2c4.9-0.8,5.9-1.2,7.3-3c1.7-2,1.5-2.4-1.5-3.4c-2.2-0.7-3.1-1.3-5-3.4
		c-0.6-0.7-39.5-1.5-54.6-1.2c-7,0.1-8.9,0-13.2-0.8c-2.7-0.6-5.5-1-6-1c-0.6,0,0,0.2,1.2,0.5s2.7,0.7,3.2,1
		c0.8,0.5-0.9,0.6-13.3,0.8c-8,0.1-14.3,0.3-14.3,0.5c0,0.2-4.7,0.5-10.5,0.6c-5.8,0.1-15.1,0.4-20.8,0.6
		c-5.7,0.2-13.1,0.3-16.4,0.1c-3.4-0.1-13.2-0.2-21.9-0.1s-16.6,0-17.6-0.1c-1.4-0.2-1.8-0.1-1.8,0.5c0,0.6-0.3,0.7-1.4,0.5
		c-0.8-0.2-1.6-0.5-1.8-0.7c-0.2-0.2-4-0.2-8.4,0c-4.4,0.2-12.5,0.3-18,0.2c-5.5-0.1-12.8-0.3-16.1-0.3s-12.2-0.3-19.7-0.5
		c-7.5-0.2-16-0.4-19-0.5c-3-0.1-5.9-0.2-6.5-0.3c-0.5-0.1-8.5-0.5-17.8-1s-20-1-23.9-1.3c-18.8-1.3-36.2-1.6-76.8-1.1
		c-16,0.2-30.8,0.3-32.9,0.3c-2.1,0-12.7-0.1-23.5-0.1S349.6,4.1,345,3.9c-4.6-0.1-12.9-0.4-18.4-0.5C321,3.3,313.8,3,310.4,2.9
		C307,2.7,298.7,2.5,292,2.4c-6.8-0.1-12.7-0.3-13.1-0.4s-5.7-0.3-11.6-0.4c-5.9-0.1-12.7-0.3-15-0.4c-7.6-0.2-11.8-0.3-25.8-0.3
		c-7.6,0-16.2,0-19-0.1c-2.8,0-12.3,0-21,0C177.8,0.9,167.2,1,163,0.9 M761.6,27.8c-11.7,0.9-30,1.5-23.8,0.8
		c9.7-1.2,40.5-3,40.5-2.4c0,0.2-1.4,0.5-3,0.6C773.6,26.9,767.5,27.4,761.6,27.8 M733.8,24.7c-0.8-0.3-0.5-0.4,1.1-0.5
		c1.2,0,2.1,0.2,2.1,0.4C737,25.2,735,25.2,733.8,24.7 M624.7,27.6c1,0.1,0.3,0.2-1.4,0.2c-1.8,0-2.6,0-1.8-0.2
		C622.3,27.6,623.8,27.5,624.7,27.6 M672,49.8c-0.9,0-1.7-0.2-1.7-0.4c0-0.8,1.3-1,2.3-0.3C673.6,49.7,673.5,49.8,672,49.8
		 M635.2,49.5c-10.8,0-23.8-0.7-22.8-1.1c1.8-0.8,58.5-1,57.4-0.2C668.1,49.4,662.4,49.6,635.2,49.5 M568.5,27.7
		c-1.2-0.8,0.7-1.1,5.9-0.9c3.1,0.1,13.5,0.3,23.1,0.4c9.6,0.1,18.1,0.3,19.1,0.5c0.9,0.2-2.6,0.3-8,0.3c-5.3,0-14.6,0-20.6,0l0,0
		C571.9,28.1,569,28.1,568.5,27.7 M557.1,27.6c-0.7,0-1.2-0.2-1.2-0.4c0-0.2,1.6-0.4,3.7-0.4c2,0,4.5,0.1,5.5,0.1
		c1.2,0,1.7,0.2,1.4,0.5c-0.3,0.3-1.7,0.4-4.3,0.3C560,27.7,557.8,27.6,557.1,27.6 M548.5,27.3c-1.5-0.2-1.1-0.3,2.1-0.4
		c2.3-0.1,4,0,4,0.3C554.6,27.7,551.4,27.8,548.5,27.3 M501.9,23.6c0.6,0.1,2.2,0.2,3.7,0.2c1.7,0,2.3,0.1,1.5,0.3
		c-1.5,0.5-6.3,0.2-6.3-0.3C500.9,23.5,501.4,23.5,501.9,23.6z M498,23.8c-1.4,0-2.1,0-1.5-0.2c0.6-0.1,1.8-0.2,2.6-0.1
		C499.9,23.7,499.4,23.8,498,23.8 M451.4,23c-1.9,0.1-3.4-0.1-3.4-0.3c0-1.1,7.9-1.2,30.6-0.4c7.3,0.2,15.1,1,14.8,1.4
		c-0.2,0.3-2,0.4-4.3,0.3c-2.2-0.1-10.8-0.4-19.1-0.6C461.6,23.1,453.2,23,451.4,23 M428.2,23c-6.1,0-11.3-0.3-11.6-0.5
		c-0.4-0.4,24.6-0.6,28.3-0.2c3.1,0.3,1.2,1.1-2.3,0.9C440.8,23.1,434.3,23,428.2,23 M362.5,22.7c-1.1,0-1.6,0-1.1-0.2
		c0.4-0.1,1.3-0.2,1.9-0.1C364,22.6,363.6,22.7,362.5,22.7 M251.7,23c-1.4-0.9,0.4-1,8.7-0.7c13.6,0.6,14.7,1.1,2.5,1.1
		C257.2,23.4,252.1,23.2,251.7,23L251.7,23"/>
	<path class="st0" d="M804.7,25c0-0.2-0.4-0.4-1-0.4c-0.5,0-1.1,0.2-1.3,0.5s0.2,0.4,1,0.4C804.1,25.4,804.7,25.2,804.7,25"/>
	<path class="st0" d="M801.8,20.7c-0.4,0.1,0.1,0.2,1.2,0.2s1.4-0.1,0.8-0.2C803.1,20.5,802.2,20.5,801.8,20.7"/>
	<path class="st0" d="M846.5,10.3c1.8-0.6-2.8-1.9-6.1-1.8l-3.2,0.1l3.4,0.4c1.9,0.2,3.6,0.6,3.8,1
		C844.8,10.7,845.1,10.7,846.5,10.3"/>
	<path class="st0" d="M845.2,27.2c0.6,0,0-0.3-1.4-0.7c-1.4-0.3-4.8-0.9-7.5-1.2c-5.3-0.6-26.5-1-27.3-0.5c-0.3,0.2,4.1,0.4,9.7,0.4
		c11,0.1,21.8,0.8,24,1.5C843.4,27,844.6,27.2,845.2,27.2"/>
	<path class="st0" d="M760.2,32.2c5.5,0.1,9.5,0,14.3-0.3c2.5-0.2,4.8-0.5,5.1-0.7c0.6-0.4-8.9-0.2-16.8,0.5
		C758.1,32,757.6,32.1,760.2,32.2"/>
	<path class="st0" d="M742.8,4.3c-1.4-0.2-5.7-0.4-9.4-0.4c-5.4-0.1-6.1,0-3.5,0.3C734.2,4.6,746.5,4.8,742.8,4.3"/>
	<path class="st0" d="M727.9,49.7c-0.2,0.2,0.2,0.2,0.9,0.2c0.8,0,0.9-0.2,0.4-0.3C728.7,49.5,728.2,49.5,727.9,49.7"/>
	<path class="st0" d="M732,49.6c-3.3,0.3,1.5,0.5,5.6,0.2c2.4-0.2,4.4-0.4,4.6-0.6C742.5,49,735.2,49.2,732,49.6"/>
</g>
</svg>
